{"glyphs":{"0":{"ha":856,"x_min":76,"x_max":781,"o":"m 428 -17 q 258 27 326 -17 q 150 145 190 72 q 93 307 110 218 q 76 486 76 396 q 86 627 76 556 q 120 763 97 698 q 185 878 144 827 q 285 959 225 930 q 428 989 345 989 q 599 945 531 989 q 707 828 667 901 q 764 666 747 755 q 781 486 781 577 q 770 345 781 417 q 736 210 760 274 q 671 94 712 145 q 570 13 631 42 q 428 -17 510 -17 m 428 139 q 519 169 483 139 q 576 250 556 199 q 605 362 597 301 q 614 486 614 424 q 605 613 614 551 q 575 724 596 674 q 518 804 554 774 q 428 833 482 833 q 336 803 373 833 q 280 722 300 773 q 250 610 259 672 q 242 486 242 549 q 250 360 242 422 q 280 248 259 298 q 337 168 301 198 q 428 139 373 139 m 428 388 q 358 416 386 388 q 331 486 331 444 q 358 555 331 527 q 428 583 386 583 q 498 555 469 583 q 526 486 526 527 q 498 416 526 444 q 428 388 469 388 z "},"1":{"ha":856,"x_min":106,"x_max":750,"o":"m 347 0 l 347 763 l 136 706 l 136 861 l 513 974 l 513 0 l 347 0 m 106 0 l 106 158 l 750 158 l 750 0 l 106 0 z "},"2":{"ha":856,"x_min":101,"x_max":753,"o":"m 101 0 q 127 184 101 105 q 198 324 153 264 q 300 430 242 384 q 422 513 358 476 q 499 563 463 536 q 556 624 534 590 q 578 701 578 658 q 540 798 578 762 q 439 833 503 833 q 327 801 372 833 q 261 713 283 768 l 114 779 q 185 889 138 842 q 297 963 233 936 q 436 989 361 989 q 602 952 533 989 q 708 850 672 915 q 744 706 744 786 q 711 558 744 617 q 621 456 678 499 q 493 372 564 413 q 401 310 442 343 q 333 240 360 278 q 294 158 305 202 l 753 158 l 753 0 l 101 0 z "},"3":{"ha":856,"x_min":96,"x_max":761,"o":"m 428 -17 q 279 12 344 -17 q 168 92 214 40 q 96 211 122 143 l 244 272 q 325 170 278 201 q 432 139 373 139 q 515 155 478 139 q 573 203 551 172 q 594 281 594 235 q 554 385 594 343 q 428 426 513 426 l 340 426 l 340 583 l 424 583 q 523 617 485 583 q 560 708 560 651 q 524 799 560 764 q 429 833 489 833 q 360 819 390 833 q 310 781 331 804 q 275 729 290 757 l 126 786 q 194 890 151 844 q 296 963 237 936 q 429 989 355 989 q 583 955 516 989 q 687 860 649 920 q 725 725 725 801 q 693 602 725 656 q 606 515 661 548 q 717 429 672 490 q 761 282 761 369 q 718 122 761 189 q 600 19 676 55 q 428 -17 525 -17 z "},"4":{"ha":856,"x_min":56,"x_max":806,"o":"m 521 0 l 521 211 l 56 211 l 56 314 l 521 972 l 682 972 l 682 363 l 806 363 l 806 211 l 682 211 l 682 0 l 521 0 m 269 363 l 521 363 l 521 742 l 269 363 z "},"5":{"ha":856,"x_min":99,"x_max":757,"o":"m 396 -17 q 266 -1 324 -17 q 167 37 209 14 q 99 85 125 60 l 189 213 q 274 162 226 185 q 396 139 321 139 q 497 161 453 139 q 566 225 541 184 q 590 322 590 267 q 573 408 590 371 q 522 465 556 444 q 440 486 488 486 q 347 465 385 486 q 281 413 309 444 l 129 479 l 168 972 l 699 972 l 699 815 l 318 815 l 296 599 q 366 631 327 619 q 451 643 405 643 q 618 600 550 643 q 722 484 686 557 q 757 324 757 412 q 731 186 757 249 q 656 78 704 124 q 542 8 608 33 q 396 -17 476 -17 z "},"6":{"ha":856,"x_min":79,"x_max":776,"o":"m 431 -17 q 236 33 315 -17 q 119 167 158 83 q 79 358 79 252 q 113 576 79 473 q 216 764 147 679 q 390 906 285 848 q 636 989 495 965 l 636 836 q 490 785 561 822 q 365 690 419 748 q 286 554 310 632 q 358 597 315 581 q 458 614 401 614 q 623 573 551 614 q 735 461 694 532 q 776 300 776 390 q 732 135 776 207 q 609 24 687 64 q 431 -17 531 -17 m 431 139 q 524 158 483 139 q 589 213 565 178 q 613 297 613 249 q 562 416 613 372 q 431 460 511 460 q 336 439 377 460 q 271 382 294 419 q 247 297 247 346 q 271 213 247 249 q 336 158 295 178 q 431 139 378 139 z "},"7":{"ha":856,"x_min":97,"x_max":758,"o":"m 299 0 q 330 313 299 167 q 429 595 361 460 q 607 863 497 730 l 650 817 l 97 817 l 97 972 l 758 972 l 758 832 q 616 627 673 738 q 525 402 558 517 q 477 184 492 288 q 463 0 463 81 l 299 0 z "},"8":{"ha":856,"x_min":75,"x_max":781,"o":"m 426 -17 q 241 22 320 -17 q 119 130 163 61 q 75 289 75 199 q 122 438 75 374 q 249 533 169 501 q 155 611 194 560 q 115 733 115 662 q 153 865 115 807 q 261 956 192 922 q 426 989 331 989 q 593 956 522 989 q 702 865 663 922 q 740 733 740 807 q 700 611 740 663 q 604 535 660 560 q 732 438 683 503 q 781 289 781 374 q 737 130 781 199 q 614 22 693 61 q 426 -17 534 -17 m 426 132 q 561 177 508 132 q 614 294 614 222 q 590 377 614 340 q 524 434 566 413 q 426 456 481 456 q 329 434 371 456 q 264 377 287 413 q 240 294 240 340 q 292 177 240 222 q 426 132 344 132 m 426 601 q 535 636 494 601 q 576 721 576 670 q 534 808 576 775 q 426 842 492 842 q 319 808 360 842 q 279 721 279 775 q 319 636 279 670 q 426 601 359 601 z "},"9":{"ha":856,"x_min":85,"x_max":769,"o":"m 243 -17 l 243 136 q 388 177 319 144 q 509 272 458 210 q 583 428 561 333 q 509 382 556 400 q 403 364 463 364 q 239 402 311 364 q 126 510 167 441 q 85 674 85 580 q 129 839 85 768 q 251 949 174 910 q 429 989 329 989 q 622 940 547 989 q 733 805 697 890 q 769 613 769 720 q 736 370 769 481 q 637 176 703 260 q 472 43 571 93 q 243 -17 374 -7 m 426 517 q 521 536 481 517 q 583 592 561 556 q 606 678 606 628 q 583 760 606 724 q 520 816 560 796 q 428 836 481 836 q 333 816 373 836 q 270 760 292 796 q 249 678 249 724 q 297 560 249 603 q 426 517 344 517 z "},"A":{"ha":856,"x_min":32,"x_max":824,"o":"m 32 0 l 350 972 l 506 972 l 824 0 l 646 0 l 451 653 q 443 683 448 664 q 435 722 439 701 q 428 761 431 743 q 420 722 424 743 q 412 683 416 701 q 404 653 408 664 l 210 0 l 32 0 m 238 214 l 282 364 l 574 364 l 618 214 l 238 214 z "},"Á":{"ha":856,"x_min":32,"x_max":824,"o":"m 32 0 l 350 972 l 506 972 l 824 0 l 646 0 l 451 653 q 443 683 448 664 q 435 722 439 701 q 428 761 431 743 q 420 722 424 743 q 412 683 416 701 q 404 653 408 664 l 210 0 l 32 0 m 238 214 l 282 364 l 574 364 l 618 214 l 238 214 m 336 1063 l 533 1279 l 740 1279 l 493 1063 l 336 1063 z "},"Ă":{"ha":856,"x_min":32,"x_max":824,"o":"m 32 0 l 350 972 l 506 972 l 824 0 l 646 0 l 451 653 q 443 683 448 664 q 435 722 439 701 q 428 761 431 743 q 420 722 424 743 q 412 683 416 701 q 404 653 408 664 l 210 0 l 32 0 m 238 214 l 282 364 l 574 364 l 618 214 l 238 214 m 428 1060 q 280 1092 338 1060 q 195 1177 223 1124 q 168 1293 168 1231 l 296 1293 q 329 1213 296 1247 q 428 1179 363 1179 q 527 1213 494 1179 q 561 1293 561 1247 l 689 1293 q 661 1177 689 1231 q 576 1092 633 1124 q 428 1060 518 1060 z "},"Ắ":{"ha":856,"x_min":32,"x_max":824,"o":"m 32 0 l 350 972 l 506 972 l 824 0 l 646 0 l 451 653 q 443 683 448 664 q 435 722 439 701 q 428 761 431 743 q 420 722 424 743 q 412 683 416 701 q 404 653 408 664 l 210 0 l 32 0 m 238 214 l 282 364 l 574 364 l 618 214 l 238 214 m 428 1060 q 280 1092 338 1060 q 195 1177 223 1124 q 168 1293 168 1231 l 296 1293 q 329 1213 296 1247 q 428 1179 363 1179 q 527 1213 494 1179 q 561 1293 561 1247 l 689 1293 q 661 1177 689 1231 q 576 1092 633 1124 q 428 1060 518 1060 m 338 1383 l 535 1600 l 742 1600 l 494 1383 l 338 1383 z "},"Ặ":{"ha":856,"x_min":32,"x_max":824,"o":"m 32 0 l 350 972 l 506 972 l 824 0 l 646 0 l 451 653 q 443 683 448 664 q 435 722 439 701 q 428 761 431 743 q 420 722 424 743 q 412 683 416 701 q 404 653 408 664 l 210 0 l 32 0 m 238 214 l 282 364 l 574 364 l 618 214 l 238 214 m 428 -300 q 355 -270 384 -300 q 326 -199 326 -241 q 355 -126 326 -155 q 428 -97 384 -97 q 500 -126 471 -97 q 529 -199 529 -155 q 500 -270 529 -241 q 428 -300 471 -300 m 428 1060 q 280 1092 338 1060 q 195 1177 223 1124 q 168 1293 168 1231 l 296 1293 q 329 1213 296 1247 q 428 1179 363 1179 q 527 1213 494 1179 q 561 1293 561 1247 l 689 1293 q 661 1177 689 1231 q 576 1092 633 1124 q 428 1060 518 1060 z "},"Ằ":{"ha":856,"x_min":32,"x_max":824,"o":"m 32 0 l 350 972 l 506 972 l 824 0 l 646 0 l 451 653 q 443 683 448 664 q 435 722 439 701 q 428 761 431 743 q 420 722 424 743 q 412 683 416 701 q 404 653 408 664 l 210 0 l 32 0 m 238 214 l 282 364 l 574 364 l 618 214 l 238 214 m 428 1060 q 280 1092 338 1060 q 195 1177 223 1124 q 168 1293 168 1231 l 296 1293 q 329 1213 296 1247 q 428 1179 363 1179 q 527 1213 494 1179 q 561 1293 561 1247 l 689 1293 q 661 1177 689 1231 q 576 1092 633 1124 q 428 1060 518 1060 m 364 1319 l 117 1536 l 322 1536 l 519 1319 l 364 1319 z "},"Ẳ":{"ha":856,"x_min":32,"x_max":824,"o":"m 32 0 l 350 972 l 506 972 l 824 0 l 646 0 l 451 653 q 443 683 448 664 q 435 722 439 701 q 428 761 431 743 q 420 722 424 743 q 412 683 416 701 q 404 653 408 664 l 210 0 l 32 0 m 238 214 l 282 364 l 574 364 l 618 214 l 238 214 m 428 1060 q 280 1092 338 1060 q 195 1177 223 1124 q 168 1293 168 1231 l 296 1293 q 329 1213 296 1247 q 428 1179 363 1179 q 527 1213 494 1179 q 561 1293 561 1247 l 689 1293 q 661 1177 689 1231 q 576 1092 633 1124 q 428 1060 518 1060 m 368 1292 q 379 1353 368 1326 q 418 1403 390 1380 q 438 1422 433 1415 q 443 1436 443 1429 q 439 1447 443 1442 q 426 1451 434 1451 q 376 1413 401 1451 l 297 1463 q 347 1531 310 1503 q 432 1558 384 1558 q 522 1526 486 1558 q 557 1443 557 1494 q 543 1383 557 1403 q 514 1347 530 1363 q 492 1322 501 1335 q 482 1292 482 1310 l 368 1292 z "},"Ẵ":{"ha":856,"x_min":32,"x_max":824,"o":"m 32 0 l 350 972 l 506 972 l 824 0 l 646 0 l 451 653 q 443 683 448 664 q 435 722 439 701 q 428 761 431 743 q 420 722 424 743 q 412 683 416 701 q 404 653 408 664 l 210 0 l 32 0 m 238 214 l 282 364 l 574 364 l 618 214 l 238 214 m 428 1060 q 280 1092 338 1060 q 195 1177 223 1124 q 168 1293 168 1231 l 296 1293 q 329 1213 296 1247 q 428 1179 363 1179 q 527 1213 494 1179 q 561 1293 561 1247 l 689 1293 q 661 1177 689 1231 q 576 1092 633 1124 q 428 1060 518 1060 m 539 1400 q 467 1411 499 1400 q 406 1436 435 1423 q 357 1457 381 1448 q 310 1465 334 1465 q 265 1452 284 1465 q 244 1406 246 1438 l 168 1406 q 202 1537 168 1486 q 319 1588 236 1588 q 392 1576 359 1588 q 453 1551 424 1565 q 500 1531 476 1540 q 549 1522 524 1522 q 594 1536 575 1522 q 614 1582 613 1550 l 690 1582 q 656 1451 690 1502 q 539 1400 622 1400 z "},"Ǎ":{"ha":856,"x_min":32,"x_max":824,"o":"m 32 0 l 350 972 l 506 972 l 824 0 l 646 0 l 451 653 q 443 683 448 664 q 435 722 439 701 q 428 761 431 743 q 420 722 424 743 q 412 683 416 701 q 404 653 408 664 l 210 0 l 32 0 m 238 214 l 282 364 l 574 364 l 618 214 l 238 214 m 349 1063 l 153 1279 l 300 1279 l 428 1172 l 556 1279 l 703 1279 l 507 1063 l 349 1063 z "},"Â":{"ha":856,"x_min":32,"x_max":824,"o":"m 32 0 l 350 972 l 506 972 l 824 0 l 646 0 l 451 653 q 443 683 448 664 q 435 722 439 701 q 428 761 431 743 q 420 722 424 743 q 412 683 416 701 q 404 653 408 664 l 210 0 l 32 0 m 238 214 l 282 364 l 574 364 l 618 214 l 238 214 m 151 1063 l 349 1279 l 506 1279 l 701 1063 l 554 1063 l 426 1169 l 299 1063 l 151 1063 z "},"Ấ":{"ha":856,"x_min":32,"x_max":1010,"o":"m 32 0 l 350 972 l 506 972 l 824 0 l 646 0 l 451 653 q 443 683 448 664 q 435 722 439 701 q 428 761 431 743 q 420 722 424 743 q 412 683 416 701 q 404 653 408 664 l 210 0 l 32 0 m 238 214 l 282 364 l 574 364 l 618 214 l 238 214 m 151 1063 l 349 1279 l 506 1279 l 701 1063 l 554 1063 l 426 1169 l 299 1063 l 151 1063 m 588 1257 l 785 1474 l 1010 1474 l 763 1257 l 588 1257 z "},"Ậ":{"ha":856,"x_min":32,"x_max":824,"o":"m 32 0 l 350 972 l 506 972 l 824 0 l 646 0 l 451 653 q 443 683 448 664 q 435 722 439 701 q 428 761 431 743 q 420 722 424 743 q 412 683 416 701 q 404 653 408 664 l 210 0 l 32 0 m 238 214 l 282 364 l 574 364 l 618 214 l 238 214 m 428 -300 q 355 -270 384 -300 q 326 -199 326 -241 q 355 -126 326 -155 q 428 -97 384 -97 q 500 -126 471 -97 q 529 -199 529 -155 q 500 -270 529 -241 q 428 -300 471 -300 m 151 1063 l 349 1279 l 506 1279 l 701 1063 l 554 1063 l 426 1169 l 299 1063 l 151 1063 z "},"Ầ":{"ha":856,"x_min":32,"x_max":824,"o":"m 32 0 l 350 972 l 506 972 l 824 0 l 646 0 l 451 653 q 443 683 448 664 q 435 722 439 701 q 428 761 431 743 q 420 722 424 743 q 412 683 416 701 q 404 653 408 664 l 210 0 l 32 0 m 238 214 l 282 364 l 574 364 l 618 214 l 238 214 m 151 1063 l 349 1279 l 506 1279 l 701 1063 l 554 1063 l 426 1169 l 299 1063 l 151 1063 m 664 1257 l 417 1474 l 622 1474 l 819 1257 l 664 1257 z "},"Ẩ":{"ha":856,"x_min":32,"x_max":824,"o":"m 32 0 l 350 972 l 506 972 l 824 0 l 646 0 l 451 653 q 443 683 448 664 q 435 722 439 701 q 428 761 431 743 q 420 722 424 743 q 412 683 416 701 q 404 653 408 664 l 210 0 l 32 0 m 238 214 l 282 364 l 574 364 l 618 214 l 238 214 m 151 1063 l 349 1279 l 506 1279 l 701 1063 l 554 1063 l 426 1169 l 299 1063 l 151 1063 m 368 1333 q 379 1395 368 1368 q 418 1444 390 1422 q 438 1464 433 1456 q 443 1478 443 1471 q 439 1489 443 1484 q 426 1493 434 1493 q 376 1454 401 1493 l 297 1504 q 347 1573 310 1545 q 432 1600 384 1600 q 522 1568 486 1600 q 557 1485 557 1536 q 543 1425 557 1445 q 514 1389 530 1405 q 492 1364 501 1376 q 482 1333 482 1351 l 368 1333 z "},"Ẫ":{"ha":856,"x_min":32,"x_max":824,"o":"m 32 0 l 350 972 l 506 972 l 824 0 l 646 0 l 451 653 q 443 683 448 664 q 435 722 439 701 q 428 761 431 743 q 420 722 424 743 q 412 683 416 701 q 404 653 408 664 l 210 0 l 32 0 m 238 214 l 282 364 l 574 364 l 618 214 l 238 214 m 151 1063 l 349 1279 l 506 1279 l 701 1063 l 554 1063 l 426 1169 l 299 1063 l 151 1063 m 538 1358 q 466 1370 498 1358 q 404 1394 433 1381 q 356 1415 379 1406 q 308 1424 333 1424 q 264 1410 283 1424 q 243 1364 244 1397 l 167 1364 q 201 1495 167 1444 q 318 1546 235 1546 q 390 1535 358 1546 q 451 1510 423 1524 q 499 1490 475 1499 q 547 1481 522 1481 q 593 1494 574 1481 q 613 1540 612 1508 l 689 1540 q 655 1409 689 1460 q 538 1358 621 1358 z "},"Ȁ":{"ha":856,"x_min":-46,"x_max":824,"o":"m 32 0 l 350 972 l 506 972 l 824 0 l 646 0 l 451 653 q 443 683 448 664 q 435 722 439 701 q 428 761 431 743 q 420 722 424 743 q 412 683 416 701 q 404 653 408 664 l 210 0 l 32 0 m 238 214 l 282 364 l 574 364 l 618 214 l 238 214 m 507 1063 l 260 1279 l 485 1279 l 682 1063 l 507 1063 m 201 1063 l -46 1279 l 179 1279 l 376 1063 l 201 1063 z "},"Ä":{"ha":856,"x_min":32,"x_max":824,"o":"m 32 0 l 350 972 l 506 972 l 824 0 l 646 0 l 451 653 q 443 683 448 664 q 435 722 439 701 q 428 761 431 743 q 420 722 424 743 q 412 683 416 701 q 404 653 408 664 l 210 0 l 32 0 m 238 214 l 282 364 l 574 364 l 618 214 l 238 214 m 300 1079 q 234 1106 260 1079 q 208 1172 208 1133 q 234 1238 208 1211 q 300 1264 260 1264 q 366 1238 340 1264 q 393 1172 393 1211 q 366 1106 393 1133 q 300 1079 340 1079 m 556 1079 q 490 1106 516 1079 q 464 1172 464 1133 q 490 1238 464 1211 q 556 1264 516 1264 q 622 1238 595 1264 q 649 1172 649 1211 q 622 1106 649 1133 q 556 1079 595 1079 z "},"Ǟ":{"ha":856,"x_min":32,"x_max":824,"o":"m 32 0 l 350 972 l 506 972 l 824 0 l 646 0 l 451 653 q 443 683 448 664 q 435 722 439 701 q 428 761 431 743 q 420 722 424 743 q 412 683 416 701 q 404 653 408 664 l 210 0 l 32 0 m 238 214 l 282 364 l 574 364 l 618 214 l 238 214 m 300 1079 q 234 1106 260 1079 q 208 1172 208 1133 q 234 1238 208 1211 q 300 1264 260 1264 q 366 1238 340 1264 q 393 1172 393 1211 q 366 1106 393 1133 q 300 1079 340 1079 m 556 1079 q 490 1106 516 1079 q 464 1172 464 1133 q 490 1238 464 1211 q 556 1264 516 1264 q 622 1238 595 1264 q 649 1172 649 1211 q 622 1106 649 1133 q 556 1079 595 1079 m 199 1378 l 199 1508 l 657 1508 l 657 1378 l 199 1378 z "},"Ȧ":{"ha":856,"x_min":32,"x_max":824,"o":"m 32 0 l 350 972 l 506 972 l 824 0 l 646 0 l 451 653 q 443 683 448 664 q 435 722 439 701 q 428 761 431 743 q 420 722 424 743 q 412 683 416 701 q 404 653 408 664 l 210 0 l 32 0 m 238 214 l 282 364 l 574 364 l 618 214 l 238 214 m 428 1078 q 362 1105 388 1078 q 336 1171 336 1131 q 362 1236 336 1210 q 428 1263 388 1263 q 494 1236 467 1263 q 521 1171 521 1210 q 494 1105 521 1131 q 428 1078 467 1078 z "},"Ạ":{"ha":856,"x_min":32,"x_max":824,"o":"m 32 0 l 350 972 l 506 972 l 824 0 l 646 0 l 451 653 q 443 683 448 664 q 435 722 439 701 q 428 761 431 743 q 420 722 424 743 q 412 683 416 701 q 404 653 408 664 l 210 0 l 32 0 m 238 214 l 282 364 l 574 364 l 618 214 l 238 214 m 428 -300 q 355 -270 384 -300 q 326 -199 326 -241 q 355 -126 326 -155 q 428 -97 384 -97 q 500 -126 471 -97 q 529 -199 529 -155 q 500 -270 529 -241 q 428 -300 471 -300 z "},"Ǡ":{"ha":856,"x_min":32,"x_max":824,"o":"m 32 0 l 350 972 l 506 972 l 824 0 l 646 0 l 451 653 q 443 683 448 664 q 435 722 439 701 q 428 761 431 743 q 420 722 424 743 q 412 683 416 701 q 404 653 408 664 l 210 0 l 32 0 m 238 214 l 282 364 l 574 364 l 618 214 l 238 214 m 428 1078 q 362 1105 388 1078 q 336 1171 336 1131 q 362 1236 336 1210 q 428 1263 388 1263 q 494 1236 467 1263 q 521 1171 521 1210 q 494 1105 521 1131 q 428 1078 467 1078 m 199 1376 l 199 1507 l 657 1507 l 657 1376 l 199 1376 z "},"À":{"ha":856,"x_min":32,"x_max":824,"o":"m 32 0 l 350 972 l 506 972 l 824 0 l 646 0 l 451 653 q 443 683 448 664 q 435 722 439 701 q 428 761 431 743 q 420 722 424 743 q 412 683 416 701 q 404 653 408 664 l 210 0 l 32 0 m 238 214 l 282 364 l 574 364 l 618 214 l 238 214 m 376 1063 l 129 1279 l 335 1279 l 532 1063 l 376 1063 z "},"Ả":{"ha":856,"x_min":32,"x_max":824,"o":"m 32 0 l 350 972 l 506 972 l 824 0 l 646 0 l 451 653 q 443 683 448 664 q 435 722 439 701 q 428 761 431 743 q 420 722 424 743 q 412 683 416 701 q 404 653 408 664 l 210 0 l 32 0 m 238 214 l 282 364 l 574 364 l 618 214 l 238 214 m 368 1026 q 379 1088 368 1061 q 418 1138 390 1115 q 438 1157 433 1149 q 443 1171 443 1164 q 439 1182 443 1177 q 426 1186 434 1186 q 376 1147 401 1186 l 297 1197 q 347 1266 310 1238 q 432 1293 384 1293 q 522 1261 486 1293 q 557 1178 557 1229 q 543 1118 557 1138 q 514 1082 530 1098 q 492 1057 501 1069 q 482 1026 482 1044 l 368 1026 z "},"Ȃ":{"ha":856,"x_min":32,"x_max":824,"o":"m 32 0 l 350 972 l 506 972 l 824 0 l 646 0 l 451 653 q 443 683 448 664 q 435 722 439 701 q 428 761 431 743 q 420 722 424 743 q 412 683 416 701 q 404 653 408 664 l 210 0 l 32 0 m 238 214 l 282 364 l 574 364 l 618 214 l 238 214 m 164 1057 q 192 1174 164 1120 q 280 1260 221 1228 q 429 1293 338 1293 q 579 1260 521 1293 q 665 1173 638 1227 q 693 1057 693 1119 l 554 1057 q 525 1129 554 1096 q 429 1163 496 1163 q 333 1129 364 1163 q 303 1057 303 1096 l 164 1057 z "},"Ɑ":{"ha":856,"x_min":58,"x_max":750,"o":"m 394 -17 q 243 27 306 -17 q 138 145 179 72 q 78 307 97 218 q 58 486 58 396 q 78 665 58 576 q 138 827 97 754 q 243 945 179 901 q 394 989 306 989 q 496 964 451 989 q 570 898 540 939 l 570 972 l 750 972 l 750 0 l 570 0 l 570 74 q 494 8 537 33 q 394 -17 451 -17 m 416 156 q 501 178 463 156 q 570 233 538 201 l 570 739 q 505 795 540 772 q 420 817 469 817 q 339 787 372 817 q 284 707 305 756 q 255 599 264 657 q 245 486 245 541 q 255 370 245 428 q 284 264 264 312 q 338 186 305 215 q 416 156 370 156 z "},"Ā":{"ha":856,"x_min":32,"x_max":824,"o":"m 32 0 l 350 972 l 506 972 l 824 0 l 646 0 l 451 653 q 443 683 448 664 q 435 722 439 701 q 428 761 431 743 q 420 722 424 743 q 412 683 416 701 q 404 653 408 664 l 210 0 l 32 0 m 238 214 l 282 364 l 574 364 l 618 214 l 238 214 m 199 1086 l 199 1217 l 657 1217 l 657 1086 l 199 1086 z "},"Ą":{"ha":856,"x_min":32,"x_max":824,"o":"m 624 -350 q 503 -310 550 -350 q 456 -203 456 -270 q 507 -81 456 -133 q 646 0 558 -29 l 582 214 l 274 214 l 210 0 l 32 0 l 350 972 l 506 972 l 824 0 q 707 -30 761 -3 q 620 -98 653 -56 q 588 -189 588 -140 q 605 -239 588 -223 q 646 -254 623 -254 q 682 -246 667 -254 q 706 -226 697 -237 l 782 -281 q 724 -327 763 -303 q 624 -350 686 -350 m 318 364 l 538 364 l 451 653 q 439 702 447 671 q 428 761 432 734 q 416 702 423 734 q 404 653 410 671 l 318 364 z "},"Å":{"ha":856,"x_min":32,"x_max":824,"o":"m 32 0 l 322 888 q 272 948 291 912 q 253 1026 253 984 q 277 1114 253 1075 q 340 1176 301 1153 q 428 1199 380 1199 q 516 1176 476 1199 q 579 1114 556 1153 q 603 1026 603 1075 q 584 948 603 984 q 533 888 565 912 l 824 0 l 646 0 l 582 214 l 274 214 l 210 0 l 32 0 m 318 364 l 538 364 l 451 653 q 439 702 447 669 q 428 761 432 734 q 416 702 423 734 q 404 653 410 669 l 318 364 m 428 964 q 470 982 452 964 q 488 1026 488 999 q 470 1071 488 1053 q 428 1089 452 1089 q 385 1071 402 1089 q 368 1026 368 1053 q 385 982 368 999 q 428 964 402 964 z "},"Ǻ":{"ha":856,"x_min":32,"x_max":824,"o":"m 32 0 l 322 888 q 272 948 291 912 q 253 1026 253 984 q 277 1114 253 1075 q 340 1176 301 1153 q 428 1199 380 1199 q 516 1176 476 1199 q 579 1114 556 1153 q 603 1026 603 1075 q 584 948 603 984 q 533 888 565 912 l 824 0 l 646 0 l 582 214 l 274 214 l 210 0 l 32 0 m 318 364 l 538 364 l 451 653 q 439 702 447 669 q 428 761 432 734 q 416 702 423 734 q 404 653 410 669 l 318 364 m 428 964 q 470 982 452 964 q 488 1026 488 999 q 470 1071 488 1053 q 428 1089 452 1089 q 385 1071 402 1089 q 368 1026 368 1053 q 385 982 368 999 q 428 964 402 964 m 336 1256 l 533 1472 l 740 1472 l 493 1256 l 336 1256 z "},"Ã":{"ha":856,"x_min":32,"x_max":824,"o":"m 32 0 l 350 972 l 506 972 l 824 0 l 646 0 l 451 653 q 443 683 448 664 q 435 722 439 701 q 428 761 431 743 q 420 722 424 743 q 412 683 416 701 q 404 653 408 664 l 210 0 l 32 0 m 238 214 l 282 364 l 574 364 l 618 214 l 238 214 m 538 1079 q 466 1091 498 1079 q 404 1115 433 1102 q 356 1136 379 1127 q 308 1144 333 1144 q 264 1131 283 1144 q 243 1085 244 1117 l 167 1085 q 201 1216 167 1165 q 318 1267 235 1267 q 390 1256 358 1267 q 451 1231 423 1244 q 499 1210 475 1219 q 547 1201 522 1201 q 593 1215 574 1201 q 613 1261 612 1229 l 689 1261 q 655 1130 689 1181 q 538 1079 621 1079 z "},"Æ":{"ha":856,"x_min":0,"x_max":850,"o":"m 0 0 l 406 972 l 836 972 l 836 815 l 629 815 l 629 581 l 756 581 l 756 424 l 629 424 l 629 157 l 850 157 l 850 0 l 464 0 l 464 740 q 450 697 459 724 q 435 653 441 669 l 176 0 l 0 0 m 239 214 l 299 364 l 486 364 l 486 214 l 239 214 z "},"Ǽ":{"ha":856,"x_min":0,"x_max":858,"o":"m 0 0 l 406 972 l 836 972 l 836 815 l 629 815 l 629 581 l 756 581 l 756 424 l 629 424 l 629 157 l 850 157 l 850 0 l 464 0 l 464 740 q 450 697 459 724 q 435 653 441 669 l 176 0 l 0 0 m 239 214 l 299 364 l 486 364 l 486 214 l 239 214 m 454 1063 l 651 1279 l 858 1279 l 611 1063 l 454 1063 z "},"Ǣ":{"ha":856,"x_min":0,"x_max":850,"o":"m 0 0 l 406 972 l 836 972 l 836 815 l 629 815 l 629 581 l 756 581 l 756 424 l 629 424 l 629 157 l 850 157 l 850 0 l 464 0 l 464 740 q 450 697 459 724 q 435 653 441 669 l 176 0 l 0 0 m 239 214 l 299 364 l 486 364 l 486 214 l 239 214 m 317 1086 l 317 1217 l 775 1217 l 775 1086 l 317 1086 z "},"B":{"ha":856,"x_min":106,"x_max":778,"o":"m 106 0 l 106 972 l 433 972 q 619 934 551 972 q 716 837 688 897 q 744 713 744 778 q 714 595 744 648 q 618 513 683 542 q 739 422 699 485 q 778 285 778 358 q 761 183 778 234 q 707 91 744 133 q 607 25 669 50 q 454 0 545 0 l 106 0 m 271 153 l 465 153 q 555 173 523 153 q 600 223 587 192 q 613 283 613 253 q 598 352 613 319 q 542 407 583 385 q 425 428 501 428 l 271 428 l 271 153 m 271 579 l 411 579 q 538 613 497 579 q 579 701 579 647 q 568 757 579 730 q 527 802 558 784 q 438 819 497 819 l 271 819 l 271 579 z "},"Ḅ":{"ha":856,"x_min":106,"x_max":778,"o":"m 106 0 l 106 972 l 433 972 q 619 934 551 972 q 716 837 688 897 q 744 713 744 778 q 714 595 744 648 q 618 513 683 542 q 739 422 699 485 q 778 285 778 358 q 761 183 778 234 q 707 91 744 133 q 607 25 669 50 q 454 0 545 0 l 106 0 m 271 153 l 465 153 q 555 173 523 153 q 600 223 587 192 q 613 283 613 253 q 598 352 613 319 q 542 407 583 385 q 425 428 501 428 l 271 428 l 271 153 m 271 579 l 411 579 q 538 613 497 579 q 579 701 579 647 q 568 757 579 730 q 527 802 558 784 q 438 819 497 819 l 271 819 l 271 579 m 428 -300 q 355 -270 384 -300 q 326 -199 326 -241 q 355 -126 326 -155 q 428 -97 384 -97 q 500 -126 471 -97 q 529 -199 529 -155 q 500 -270 529 -241 q 428 -300 471 -300 z "},"Ɓ":{"ha":856,"x_min":7,"x_max":803,"o":"m 270 0 l 270 819 l 260 819 q 182 775 201 819 q 157 618 163 730 l 7 694 q 42 847 15 785 q 122 940 68 908 q 266 972 176 972 l 501 972 q 660 935 601 972 q 745 839 719 897 q 770 716 770 780 q 739 594 770 649 q 644 513 708 539 q 764 423 725 489 q 803 280 803 356 q 776 150 803 215 q 687 43 749 85 q 522 0 625 0 l 270 0 m 435 153 l 529 153 q 595 173 572 153 q 628 223 619 192 q 638 283 638 253 q 626 352 638 319 q 582 407 614 385 q 489 428 550 428 l 435 428 l 435 153 m 435 579 l 475 579 q 571 613 537 579 q 605 701 605 647 q 597 757 605 730 q 567 802 590 784 q 501 819 545 819 l 435 819 l 435 579 z "},"Ƀ":{"ha":856,"x_min":7,"x_max":792,"o":"m 150 0 l 150 972 l 447 972 q 633 934 565 972 q 730 837 701 897 q 758 713 758 778 q 727 595 758 648 q 632 513 697 542 q 752 422 713 485 q 792 285 792 358 q 775 183 792 234 q 720 91 758 133 q 621 25 683 50 q 468 0 559 0 l 150 0 m 315 153 l 479 153 q 569 173 537 153 q 614 223 601 192 q 626 283 626 253 q 611 352 626 319 q 556 407 597 385 q 439 428 515 428 l 315 428 l 315 153 m 315 579 l 425 579 q 552 613 510 579 q 593 701 593 647 q 582 757 593 730 q 541 802 572 784 q 451 819 510 819 l 315 819 l 315 579 m 7 219 l 7 361 l 492 361 l 492 219 l 7 219 z "},"C":{"ha":856,"x_min":60,"x_max":750,"o":"m 444 -15 q 265 28 339 -15 q 147 144 192 72 q 81 306 101 217 q 60 486 60 395 q 81 662 60 574 q 148 824 102 751 q 267 943 194 898 q 444 988 340 988 q 586 958 526 988 q 686 882 647 928 q 746 785 726 835 l 599 714 q 536 799 571 768 q 444 831 501 831 q 344 799 385 831 q 278 717 303 768 q 242 605 253 665 q 231 486 231 544 q 243 363 231 424 q 282 252 256 302 q 349 172 308 202 q 444 142 390 142 q 538 177 501 142 q 600 267 574 212 l 750 210 q 682 94 724 145 q 582 14 641 43 q 444 -15 523 -15 z "},"Ć":{"ha":856,"x_min":60,"x_max":753,"o":"m 444 -15 q 265 28 339 -15 q 147 144 192 72 q 81 306 101 217 q 60 486 60 395 q 81 662 60 574 q 148 824 102 751 q 267 943 194 898 q 444 988 340 988 q 586 958 526 988 q 686 882 647 928 q 746 785 726 835 l 599 714 q 536 799 571 768 q 444 831 501 831 q 344 799 385 831 q 278 717 303 768 q 242 605 253 665 q 231 486 231 544 q 243 363 231 424 q 282 252 256 302 q 349 172 308 202 q 444 142 390 142 q 538 177 501 142 q 600 267 574 212 l 750 210 q 682 94 724 145 q 582 14 641 43 q 444 -15 523 -15 m 349 1063 l 546 1279 l 753 1279 l 506 1063 l 349 1063 z "},"Č":{"ha":856,"x_min":60,"x_max":750,"o":"m 444 -15 q 265 28 339 -15 q 147 144 192 72 q 81 306 101 217 q 60 486 60 395 q 81 662 60 574 q 148 824 102 751 q 267 943 194 898 q 444 988 340 988 q 586 958 526 988 q 686 882 647 928 q 746 785 726 835 l 599 714 q 536 799 571 768 q 444 831 501 831 q 344 799 385 831 q 278 717 303 768 q 242 605 253 665 q 231 486 231 544 q 243 363 231 424 q 282 252 256 302 q 349 172 308 202 q 444 142 390 142 q 538 177 501 142 q 600 267 574 212 l 750 210 q 682 94 724 145 q 582 14 641 43 q 444 -15 523 -15 m 361 1063 l 165 1279 l 313 1279 l 440 1172 l 568 1279 l 715 1279 l 519 1063 l 361 1063 z "},"Ç":{"ha":856,"x_min":60,"x_max":750,"o":"m 444 -15 q 265 28 339 -15 q 147 144 192 72 q 81 306 101 217 q 60 486 60 395 q 81 662 60 574 q 148 824 102 751 q 267 943 194 898 q 444 988 340 988 q 586 958 526 988 q 686 882 647 928 q 746 785 726 835 l 599 714 q 536 799 571 768 q 444 831 501 831 q 344 799 385 831 q 278 717 303 768 q 242 605 253 665 q 231 486 231 544 q 243 363 231 424 q 282 252 256 302 q 349 172 308 202 q 444 142 390 142 q 538 177 501 142 q 600 267 574 212 l 750 210 q 682 94 724 145 q 582 14 641 43 q 444 -15 523 -15 m 432 -336 q 344 -319 379 -336 q 288 -276 308 -302 l 361 -222 q 383 -240 369 -233 q 417 -246 397 -246 q 466 -230 448 -246 q 485 -187 485 -213 q 465 -147 485 -162 q 413 -131 445 -131 q 356 -147 381 -131 l 324 -107 l 422 14 l 508 14 l 458 -67 q 576 -103 540 -67 q 613 -189 613 -139 q 565 -295 613 -253 q 432 -336 517 -336 z "},"Ĉ":{"ha":856,"x_min":60,"x_max":750,"o":"m 444 -15 q 265 28 339 -15 q 147 144 192 72 q 81 306 101 217 q 60 486 60 395 q 81 662 60 574 q 148 824 102 751 q 267 943 194 898 q 444 988 340 988 q 586 958 526 988 q 686 882 647 928 q 746 785 726 835 l 599 714 q 536 799 571 768 q 444 831 501 831 q 344 799 385 831 q 278 717 303 768 q 242 605 253 665 q 231 486 231 544 q 243 363 231 424 q 282 252 256 302 q 349 172 308 202 q 444 142 390 142 q 538 177 501 142 q 600 267 574 212 l 750 210 q 682 94 724 145 q 582 14 641 43 q 444 -15 523 -15 m 164 1063 l 361 1279 l 518 1279 l 714 1063 l 567 1063 l 439 1169 l 311 1063 l 164 1063 z "},"Ċ":{"ha":856,"x_min":60,"x_max":750,"o":"m 444 -15 q 265 28 339 -15 q 147 144 192 72 q 81 306 101 217 q 60 486 60 395 q 81 662 60 574 q 148 824 102 751 q 267 943 194 898 q 444 988 340 988 q 586 958 526 988 q 686 882 647 928 q 746 785 726 835 l 599 714 q 536 799 571 768 q 444 831 501 831 q 344 799 385 831 q 278 717 303 768 q 242 605 253 665 q 231 486 231 544 q 243 363 231 424 q 282 252 256 302 q 349 172 308 202 q 444 142 390 142 q 538 177 501 142 q 600 267 574 212 l 750 210 q 682 94 724 145 q 582 14 641 43 q 444 -15 523 -15 m 440 1078 q 375 1105 401 1078 q 349 1171 349 1131 q 375 1236 349 1210 q 440 1263 401 1263 q 507 1236 480 1263 q 533 1171 533 1210 q 507 1105 533 1131 q 440 1078 480 1078 z "},"Ƈ":{"ha":856,"x_min":60,"x_max":874,"o":"m 586 785 l 586 822 q 635 1035 586 963 q 799 1133 684 1108 l 874 1015 q 770 949 794 992 q 746 827 746 907 l 746 785 l 586 785 m 444 -15 q 265 28 339 -15 q 147 144 192 72 q 81 306 101 217 q 60 486 60 395 q 81 662 60 574 q 148 824 102 751 q 267 943 194 898 q 444 988 340 988 q 586 958 526 988 q 686 882 647 928 q 746 785 726 835 l 599 714 q 536 799 571 768 q 444 831 501 831 q 344 799 385 831 q 278 717 303 768 q 242 605 253 665 q 231 486 231 544 q 243 363 231 424 q 282 252 256 302 q 349 172 308 202 q 444 142 390 142 q 538 177 501 142 q 600 267 574 212 l 750 210 q 682 94 724 145 q 582 14 641 43 q 444 -15 523 -15 z "},"D":{"ha":856,"x_min":106,"x_max":797,"o":"m 106 0 l 106 972 l 350 972 q 557 931 472 972 q 695 820 642 890 q 773 664 749 750 q 797 486 797 577 q 774 317 797 403 q 699 160 751 232 q 560 44 647 88 q 344 0 473 0 l 106 0 m 271 156 l 361 156 q 486 185 435 156 q 567 263 537 215 q 611 370 598 312 q 625 486 625 428 q 611 607 625 548 q 567 713 597 665 q 490 789 537 760 q 376 817 442 817 l 271 817 l 271 156 z "},"Ǳ":{"ha":856,"x_min":28,"x_max":844,"o":"m 28 0 l 28 972 l 217 972 q 361 910 310 972 q 432 738 412 847 q 451 486 451 628 q 442 299 451 388 q 407 144 433 211 q 335 39 382 77 q 211 0 288 0 l 28 0 m 172 142 l 211 142 q 284 235 263 142 q 304 486 304 329 q 284 741 304 651 q 211 831 263 831 l 172 831 l 172 142 m 467 0 l 467 111 l 671 831 l 483 831 l 483 972 l 832 972 l 832 861 l 624 142 l 844 142 l 844 0 l 467 0 z "},"Ǆ":{"ha":856,"x_min":28,"x_max":856,"o":"m 28 0 l 28 972 l 217 972 q 361 910 310 972 q 432 738 412 847 q 451 486 451 628 q 442 299 451 388 q 407 144 433 211 q 335 39 382 77 q 211 0 288 0 l 28 0 m 172 142 l 211 142 q 284 235 263 142 q 304 486 304 329 q 284 741 304 651 q 211 831 263 831 l 172 831 l 172 142 m 467 0 l 467 111 l 671 831 l 483 831 l 483 972 l 832 972 l 832 861 l 624 142 l 844 142 l 844 0 l 467 0 m 585 1063 l 458 1279 l 585 1279 l 657 1172 l 729 1279 l 856 1279 l 729 1063 l 585 1063 z "},"Ð":{"ha":856,"x_min":-7,"x_max":797,"o":"m -7 408 l -7 564 l 488 564 l 488 408 l -7 408 m 106 0 l 106 972 l 350 972 q 557 931 472 972 q 695 820 642 890 q 773 664 749 750 q 797 486 797 577 q 774 317 797 403 q 699 160 751 232 q 560 44 647 88 q 344 0 473 0 l 106 0 m 271 156 l 361 156 q 486 185 435 156 q 567 263 537 215 q 611 370 598 312 q 625 486 625 428 q 611 607 625 548 q 567 713 597 665 q 490 789 537 760 q 376 817 442 817 l 271 817 l 271 156 z "},"Ď":{"ha":856,"x_min":106,"x_max":797,"o":"m 106 0 l 106 972 l 350 972 q 557 931 472 972 q 695 820 642 890 q 773 664 749 750 q 797 486 797 577 q 774 317 797 403 q 699 160 751 232 q 560 44 647 88 q 344 0 473 0 l 106 0 m 271 156 l 361 156 q 486 185 435 156 q 567 263 537 215 q 611 370 598 312 q 625 486 625 428 q 611 607 625 548 q 567 713 597 665 q 490 789 537 760 q 376 817 442 817 l 271 817 l 271 156 m 347 1061 l 151 1278 l 299 1278 l 426 1171 l 554 1278 l 701 1278 l 506 1061 l 347 1061 z "},"Ḓ":{"ha":856,"x_min":106,"x_max":797,"o":"m 106 0 l 106 972 l 350 972 q 557 931 472 972 q 695 820 642 890 q 773 664 749 750 q 797 486 797 577 q 774 317 797 403 q 699 160 751 232 q 560 44 647 88 q 344 0 473 0 l 106 0 m 271 156 l 361 156 q 486 185 435 156 q 567 263 537 215 q 611 370 598 312 q 625 486 625 428 q 611 607 625 548 q 567 713 597 665 q 490 789 537 760 q 376 817 442 817 l 271 817 l 271 156 m 153 -318 l 350 -101 l 507 -101 l 703 -318 l 556 -318 l 428 -211 l 300 -318 l 153 -318 z "},"Đ":{"ha":856,"x_min":-7,"x_max":797,"o":"m -7 408 l -7 564 l 488 564 l 488 408 l -7 408 m 106 0 l 106 972 l 350 972 q 557 931 472 972 q 695 820 642 890 q 773 664 749 750 q 797 486 797 577 q 774 317 797 403 q 699 160 751 232 q 560 44 647 88 q 344 0 473 0 l 106 0 m 271 156 l 361 156 q 486 185 435 156 q 567 263 537 215 q 611 370 598 312 q 625 486 625 428 q 611 607 625 548 q 567 713 597 665 q 490 789 537 760 q 376 817 442 817 l 271 817 l 271 156 z "},"Ḍ":{"ha":856,"x_min":106,"x_max":797,"o":"m 106 0 l 106 972 l 350 972 q 557 931 472 972 q 695 820 642 890 q 773 664 749 750 q 797 486 797 577 q 774 317 797 403 q 699 160 751 232 q 560 44 647 88 q 344 0 473 0 l 106 0 m 271 156 l 361 156 q 486 185 435 156 q 567 263 537 215 q 611 370 598 312 q 625 486 625 428 q 611 607 625 548 q 567 713 597 665 q 490 789 537 760 q 376 817 442 817 l 271 817 l 271 156 m 428 -300 q 355 -270 384 -300 q 326 -199 326 -241 q 355 -126 326 -155 q 428 -97 384 -97 q 500 -126 471 -97 q 529 -199 529 -155 q 500 -270 529 -241 q 428 -300 471 -300 z "},"Ɗ":{"ha":856,"x_min":7,"x_max":821,"o":"m 270 0 l 270 819 l 260 819 q 182 775 201 819 q 157 618 163 730 l 7 694 q 42 847 15 785 q 122 940 68 908 q 266 972 176 972 l 459 972 q 632 935 563 972 q 743 830 702 897 q 803 675 785 763 q 821 486 821 588 q 804 305 821 392 q 747 149 788 218 q 635 40 706 81 q 453 0 563 0 l 270 0 m 435 156 l 470 156 q 561 181 526 156 q 616 252 597 207 q 642 358 635 298 q 649 486 649 418 q 641 618 649 558 q 615 723 633 678 q 565 792 597 768 q 485 817 533 817 l 435 817 l 435 156 z "},"Ḏ":{"ha":856,"x_min":106,"x_max":797,"o":"m 106 0 l 106 972 l 350 972 q 557 931 472 972 q 695 820 642 890 q 773 664 749 750 q 797 486 797 577 q 774 317 797 403 q 699 160 751 232 q 560 44 647 88 q 344 0 473 0 l 106 0 m 271 156 l 361 156 q 486 185 435 156 q 567 263 537 215 q 611 370 598 312 q 625 486 625 428 q 611 607 625 548 q 567 713 597 665 q 490 789 537 760 q 376 817 442 817 l 271 817 l 271 156 m 199 -249 l 199 -101 l 657 -101 l 657 -249 l 199 -249 z "},"Ɖ":{"ha":856,"x_min":-7,"x_max":797,"o":"m -7 408 l -7 564 l 488 564 l 488 408 l -7 408 m 106 0 l 106 972 l 350 972 q 557 931 472 972 q 695 820 642 890 q 773 664 749 750 q 797 486 797 577 q 774 317 797 403 q 699 160 751 232 q 560 44 647 88 q 344 0 473 0 l 106 0 m 271 156 l 361 156 q 486 185 435 156 q 567 263 537 215 q 611 370 598 312 q 625 486 625 428 q 611 607 625 548 q 567 713 597 665 q 490 789 537 760 q 376 817 442 817 l 271 817 l 271 156 z "},"ǲ":{"ha":856,"x_min":28,"x_max":797,"o":"m 28 0 l 28 972 l 217 972 q 361 910 310 972 q 432 738 412 847 q 451 486 451 628 q 442 299 451 388 q 407 144 433 211 q 335 39 382 77 q 211 0 288 0 l 28 0 m 172 142 l 211 142 q 284 235 263 142 q 304 486 304 329 q 284 741 304 651 q 211 831 263 831 l 172 831 l 172 142 m 492 0 l 492 121 l 646 568 l 518 568 l 518 710 l 797 710 l 797 592 l 643 142 l 796 142 l 796 0 l 492 0 z "},"ǅ":{"ha":856,"x_min":28,"x_max":856,"o":"m 28 0 l 28 972 l 217 972 q 361 910 310 972 q 432 738 412 847 q 451 486 451 628 q 442 299 451 388 q 407 144 433 211 q 335 39 382 77 q 211 0 288 0 l 28 0 m 172 142 l 211 142 q 284 235 263 142 q 304 486 304 329 q 284 741 304 651 q 211 831 263 831 l 172 831 l 172 142 m 492 0 l 492 121 l 646 568 l 518 568 l 518 710 l 797 710 l 797 592 l 643 142 l 796 142 l 796 0 l 492 0 m 585 800 l 458 1017 l 585 1017 l 657 910 l 729 1017 l 856 1017 l 729 800 l 585 800 z "},"E":{"ha":856,"x_min":106,"x_max":758,"o":"m 106 0 l 106 972 l 729 972 l 729 815 l 271 815 l 271 581 l 569 581 l 569 424 l 271 424 l 271 157 l 758 157 l 758 0 l 106 0 z "},"É":{"ha":856,"x_min":106,"x_max":758,"o":"m 106 0 l 106 972 l 729 972 l 729 815 l 271 815 l 271 581 l 569 581 l 569 424 l 271 424 l 271 157 l 758 157 l 758 0 l 106 0 m 325 1063 l 522 1279 l 729 1279 l 482 1063 l 325 1063 z "},"Ĕ":{"ha":856,"x_min":106,"x_max":758,"o":"m 106 0 l 106 972 l 729 972 l 729 815 l 271 815 l 271 581 l 569 581 l 569 424 l 271 424 l 271 157 l 758 157 l 758 0 l 106 0 m 417 1060 q 269 1092 326 1060 q 184 1177 212 1124 q 157 1293 157 1231 l 285 1293 q 318 1213 285 1247 q 417 1179 351 1179 q 516 1213 483 1179 q 550 1293 550 1247 l 678 1293 q 650 1177 678 1231 q 565 1092 622 1124 q 417 1060 507 1060 z "},"Ě":{"ha":856,"x_min":106,"x_max":758,"o":"m 106 0 l 106 972 l 729 972 l 729 815 l 271 815 l 271 581 l 569 581 l 569 424 l 271 424 l 271 157 l 758 157 l 758 0 l 106 0 m 338 1063 l 142 1279 l 289 1279 l 417 1172 l 544 1279 l 692 1279 l 496 1063 l 338 1063 z "},"Ȩ":{"ha":856,"x_min":106,"x_max":758,"o":"m 106 0 l 106 972 l 729 972 l 729 815 l 271 815 l 271 581 l 569 581 l 569 424 l 271 424 l 271 157 l 758 157 l 758 0 l 106 0 m 410 -336 q 322 -319 357 -336 q 265 -276 286 -302 l 339 -222 q 361 -240 347 -233 q 394 -246 375 -246 q 444 -230 426 -246 q 463 -187 463 -213 q 443 -147 463 -162 q 390 -131 423 -131 q 333 -147 358 -131 l 301 -107 l 400 14 l 486 14 l 436 -67 q 554 -103 517 -67 q 590 -189 590 -139 q 542 -295 590 -253 q 410 -336 494 -336 z "},"Ê":{"ha":856,"x_min":106,"x_max":758,"o":"m 106 0 l 106 972 l 729 972 l 729 815 l 271 815 l 271 581 l 569 581 l 569 424 l 271 424 l 271 157 l 758 157 l 758 0 l 106 0 m 140 1063 l 338 1279 l 494 1279 l 690 1063 l 543 1063 l 415 1169 l 288 1063 l 140 1063 z "},"Ế":{"ha":856,"x_min":106,"x_max":758,"o":"m 106 0 l 106 972 l 729 972 l 729 815 l 271 815 l 271 581 l 569 581 l 569 424 l 271 424 l 271 157 l 758 157 l 758 0 l 106 0 m 140 1063 l 338 1279 l 494 1279 l 690 1063 l 543 1063 l 415 1169 l 288 1063 l 140 1063 m 325 1369 l 522 1586 l 729 1586 l 482 1369 l 325 1369 z "},"Ệ":{"ha":856,"x_min":106,"x_max":758,"o":"m 106 0 l 106 972 l 729 972 l 729 815 l 271 815 l 271 581 l 569 581 l 569 424 l 271 424 l 271 157 l 758 157 l 758 0 l 106 0 m 428 -300 q 355 -270 384 -300 q 326 -199 326 -241 q 355 -126 326 -155 q 428 -97 384 -97 q 500 -126 471 -97 q 529 -199 529 -155 q 500 -270 529 -241 q 428 -300 471 -300 m 140 1063 l 338 1279 l 494 1279 l 690 1063 l 543 1063 l 415 1169 l 288 1063 l 140 1063 z "},"Ề":{"ha":856,"x_min":106,"x_max":808,"o":"m 106 0 l 106 972 l 729 972 l 729 815 l 271 815 l 271 581 l 569 581 l 569 424 l 271 424 l 271 157 l 758 157 l 758 0 l 106 0 m 140 1063 l 338 1279 l 494 1279 l 690 1063 l 543 1063 l 415 1169 l 288 1063 l 140 1063 m 653 1257 l 406 1474 l 611 1474 l 808 1257 l 653 1257 z "},"Ể":{"ha":856,"x_min":106,"x_max":758,"o":"m 106 0 l 106 972 l 729 972 l 729 815 l 271 815 l 271 581 l 569 581 l 569 424 l 271 424 l 271 157 l 758 157 l 758 0 l 106 0 m 140 1063 l 338 1279 l 494 1279 l 690 1063 l 543 1063 l 415 1169 l 288 1063 l 140 1063 m 357 1333 q 368 1395 357 1368 q 407 1444 379 1422 q 427 1464 422 1456 q 432 1478 432 1471 q 427 1489 432 1484 q 415 1493 423 1493 q 365 1454 390 1493 l 286 1504 q 336 1573 299 1545 q 421 1600 373 1600 q 510 1568 475 1600 q 546 1485 546 1536 q 532 1425 546 1445 q 503 1389 519 1405 q 481 1364 490 1376 q 471 1333 471 1351 l 357 1333 z "},"Ễ":{"ha":856,"x_min":106,"x_max":758,"o":"m 106 0 l 106 972 l 729 972 l 729 815 l 271 815 l 271 581 l 569 581 l 569 424 l 271 424 l 271 157 l 758 157 l 758 0 l 106 0 m 140 1063 l 338 1279 l 494 1279 l 690 1063 l 543 1063 l 415 1169 l 288 1063 l 140 1063 m 526 1358 q 455 1370 487 1358 q 393 1394 422 1381 q 345 1415 368 1406 q 297 1424 322 1424 q 252 1410 272 1424 q 232 1364 233 1397 l 156 1364 q 190 1495 156 1444 q 307 1546 224 1546 q 379 1535 347 1546 q 440 1510 412 1524 q 488 1490 464 1499 q 536 1481 511 1481 q 582 1494 563 1481 q 601 1540 601 1508 l 678 1540 q 644 1409 678 1460 q 526 1358 610 1358 z "},"Ȅ":{"ha":856,"x_min":-57,"x_max":758,"o":"m 106 0 l 106 972 l 729 972 l 729 815 l 271 815 l 271 581 l 569 581 l 569 424 l 271 424 l 271 157 l 758 157 l 758 0 l 106 0 m 496 1063 l 249 1279 l 474 1279 l 671 1063 l 496 1063 m 190 1063 l -57 1279 l 168 1279 l 365 1063 l 190 1063 z "},"Ë":{"ha":856,"x_min":106,"x_max":758,"o":"m 106 0 l 106 972 l 729 972 l 729 815 l 271 815 l 271 581 l 569 581 l 569 424 l 271 424 l 271 157 l 758 157 l 758 0 l 106 0 m 289 1079 q 223 1106 249 1079 q 197 1172 197 1133 q 223 1238 197 1211 q 289 1264 249 1264 q 355 1238 328 1264 q 382 1172 382 1211 q 355 1106 382 1133 q 289 1079 328 1079 m 544 1079 q 479 1106 505 1079 q 453 1172 453 1133 q 479 1238 453 1211 q 544 1264 505 1264 q 611 1238 584 1264 q 638 1172 638 1211 q 611 1106 638 1133 q 544 1079 584 1079 z "},"Ė":{"ha":856,"x_min":106,"x_max":758,"o":"m 106 0 l 106 972 l 729 972 l 729 815 l 271 815 l 271 581 l 569 581 l 569 424 l 271 424 l 271 157 l 758 157 l 758 0 l 106 0 m 417 1078 q 351 1105 377 1078 q 325 1171 325 1131 q 351 1236 325 1210 q 417 1263 377 1263 q 483 1236 456 1263 q 510 1171 510 1210 q 483 1105 510 1131 q 417 1078 456 1078 z "},"Ẹ":{"ha":856,"x_min":106,"x_max":758,"o":"m 106 0 l 106 972 l 729 972 l 729 815 l 271 815 l 271 581 l 569 581 l 569 424 l 271 424 l 271 157 l 758 157 l 758 0 l 106 0 m 428 -300 q 355 -270 384 -300 q 326 -199 326 -241 q 355 -126 326 -155 q 428 -97 384 -97 q 500 -126 471 -97 q 529 -199 529 -155 q 500 -270 529 -241 q 428 -300 471 -300 z "},"È":{"ha":856,"x_min":106,"x_max":758,"o":"m 106 0 l 106 972 l 729 972 l 729 815 l 271 815 l 271 581 l 569 581 l 569 424 l 271 424 l 271 157 l 758 157 l 758 0 l 106 0 m 365 1063 l 118 1279 l 324 1279 l 521 1063 l 365 1063 z "},"Ẻ":{"ha":856,"x_min":106,"x_max":758,"o":"m 106 0 l 106 972 l 729 972 l 729 815 l 271 815 l 271 581 l 569 581 l 569 424 l 271 424 l 271 157 l 758 157 l 758 0 l 106 0 m 357 1026 q 368 1088 357 1061 q 407 1138 379 1115 q 427 1157 422 1149 q 432 1171 432 1164 q 427 1182 432 1177 q 415 1186 423 1186 q 365 1147 390 1186 l 286 1197 q 336 1266 299 1238 q 421 1293 373 1293 q 510 1261 475 1293 q 546 1178 546 1229 q 532 1118 546 1138 q 503 1082 519 1098 q 481 1057 490 1069 q 471 1026 471 1044 l 357 1026 z "},"Ȇ":{"ha":856,"x_min":106,"x_max":758,"o":"m 106 0 l 106 972 l 729 972 l 729 815 l 271 815 l 271 581 l 569 581 l 569 424 l 271 424 l 271 157 l 758 157 l 758 0 l 106 0 m 153 1057 q 181 1174 153 1120 q 268 1260 210 1228 q 418 1293 327 1293 q 568 1260 510 1293 q 654 1173 626 1227 q 682 1057 682 1119 l 543 1057 q 514 1129 543 1096 q 418 1163 485 1163 q 322 1129 353 1163 q 292 1057 292 1096 l 153 1057 z "},"Ē":{"ha":856,"x_min":106,"x_max":758,"o":"m 106 0 l 106 972 l 729 972 l 729 815 l 271 815 l 271 581 l 569 581 l 569 424 l 271 424 l 271 157 l 758 157 l 758 0 l 106 0 m 188 1086 l 188 1217 l 646 1217 l 646 1086 l 188 1086 z "},"Ę":{"ha":856,"x_min":106,"x_max":758,"o":"m 557 -336 q 436 -296 483 -336 q 389 -189 389 -256 q 430 -78 389 -127 q 542 0 470 -30 l 106 0 l 106 972 l 729 972 l 729 815 l 271 815 l 271 581 l 569 581 l 569 424 l 271 424 l 271 157 l 758 157 l 758 0 l 719 0 q 615 -28 660 0 q 545 -97 570 -56 q 521 -175 521 -137 q 539 -225 521 -209 q 579 -240 556 -240 q 615 -232 600 -240 q 639 -212 630 -224 l 715 -267 q 658 -313 696 -290 q 557 -336 619 -336 z "},"Ɛ":{"ha":856,"x_min":76,"x_max":799,"o":"m 425 -17 q 243 19 322 -17 q 120 121 165 56 q 76 274 76 187 q 123 423 76 363 q 256 509 170 483 q 149 592 188 535 q 110 720 110 649 q 150 860 110 800 q 262 955 190 921 q 431 989 334 989 q 643 930 557 989 q 770 781 730 870 l 628 726 q 557 804 605 772 q 439 837 510 837 q 317 803 360 837 q 274 710 274 769 q 317 611 274 647 q 437 574 359 574 l 583 574 l 583 420 l 431 420 q 285 381 331 420 q 240 277 240 342 q 292 171 240 206 q 435 136 344 136 q 567 169 512 136 q 658 274 623 201 l 799 215 q 664 48 758 113 q 425 -17 569 -17 z "},"Ǝ":{"ha":856,"x_min":97,"x_max":750,"o":"m 97 0 l 97 157 l 585 157 l 585 424 l 286 424 l 286 581 l 585 581 l 585 815 l 126 815 l 126 972 l 750 972 l 750 0 l 97 0 z "},"Ʃ":{"ha":856,"x_min":63,"x_max":793,"o":"m 63 0 l 63 121 l 346 501 l 83 851 l 83 972 l 772 972 l 772 819 l 300 819 l 536 501 l 277 153 l 793 153 l 793 0 l 63 0 z "},"Ẽ":{"ha":856,"x_min":106,"x_max":758,"o":"m 106 0 l 106 972 l 729 972 l 729 815 l 271 815 l 271 581 l 569 581 l 569 424 l 271 424 l 271 157 l 758 157 l 758 0 l 106 0 m 526 1079 q 455 1091 487 1079 q 393 1115 422 1102 q 345 1136 368 1127 q 297 1144 322 1144 q 252 1131 272 1144 q 232 1085 233 1117 l 156 1085 q 190 1216 156 1165 q 307 1267 224 1267 q 379 1256 347 1267 q 440 1231 412 1244 q 488 1210 464 1219 q 536 1201 511 1201 q 582 1215 563 1201 q 601 1261 601 1229 l 678 1261 q 644 1130 678 1181 q 526 1079 610 1079 z "},"Ʒ":{"ha":856,"x_min":76,"x_max":765,"o":"m 439 -17 q 210 51 303 -17 q 76 221 117 118 l 226 283 q 314 177 262 213 q 436 142 367 142 q 553 183 511 142 q 596 286 596 224 q 575 362 596 329 q 510 414 555 394 q 392 436 465 433 l 290 531 l 535 813 l 121 813 l 121 972 l 746 972 l 746 833 l 504 561 q 696 476 626 549 q 765 279 765 404 q 723 123 765 189 q 607 20 681 56 q 439 -17 533 -17 z "},"Ǯ":{"ha":856,"x_min":76,"x_max":765,"o":"m 439 -17 q 210 51 303 -17 q 76 221 117 118 l 226 283 q 314 177 262 213 q 436 142 367 142 q 553 183 511 142 q 596 286 596 224 q 575 362 596 329 q 510 414 555 394 q 392 436 465 433 l 290 531 l 535 813 l 121 813 l 121 972 l 746 972 l 746 833 l 504 561 q 696 476 626 549 q 765 279 765 404 q 723 123 765 189 q 607 20 681 56 q 439 -17 533 -17 m 351 1063 l 156 1279 l 303 1279 l 431 1172 l 558 1279 l 706 1279 l 510 1063 l 351 1063 z "},"F":{"ha":856,"x_min":106,"x_max":761,"o":"m 106 0 l 106 972 l 761 972 l 761 815 l 271 815 l 271 581 l 628 581 l 628 424 l 271 424 l 271 0 l 106 0 z "},"Ƒ":{"ha":856,"x_min":-90,"x_max":761,"o":"m 106 0 l 106 972 l 761 972 l 761 815 l 271 815 l 271 581 l 628 581 l 628 424 l 271 424 l 271 0 l 106 0 m -10 -326 l -90 -201 q 26 -164 -17 -185 q 87 -109 69 -143 q 106 -18 106 -74 l 106 14 l 271 14 l 271 -7 q 200 -219 271 -141 q -10 -326 130 -298 z "},"G":{"ha":856,"x_min":60,"x_max":767,"o":"m 443 -17 q 272 25 344 -17 q 152 139 199 67 q 83 301 106 211 q 60 486 60 391 q 83 666 60 577 q 155 828 107 756 q 275 945 203 901 q 443 989 347 989 q 582 961 526 989 q 677 888 639 933 q 743 793 715 843 l 597 710 q 535 795 572 759 q 443 832 499 832 q 344 800 385 832 q 279 717 304 769 q 243 605 254 665 q 232 486 232 544 q 245 358 232 420 q 283 247 258 297 q 349 169 309 198 q 443 140 389 140 q 559 192 520 140 q 597 321 597 244 l 597 342 l 428 342 l 428 497 l 767 497 l 767 363 q 724 155 767 240 q 608 27 681 70 q 443 -17 535 -17 z "},"Ǵ":{"ha":856,"x_min":60,"x_max":767,"o":"m 443 -17 q 272 25 344 -17 q 152 139 199 67 q 83 301 106 211 q 60 486 60 391 q 83 666 60 577 q 155 828 107 756 q 275 945 203 901 q 443 989 347 989 q 582 961 526 989 q 677 888 639 933 q 743 793 715 843 l 597 710 q 535 795 572 759 q 443 832 499 832 q 344 800 385 832 q 279 717 304 769 q 243 605 254 665 q 232 486 232 544 q 245 358 232 420 q 283 247 258 297 q 349 169 309 198 q 443 140 389 140 q 559 192 520 140 q 597 321 597 244 l 597 342 l 428 342 l 428 497 l 767 497 l 767 363 q 724 155 767 240 q 608 27 681 70 q 443 -17 535 -17 m 353 1063 l 550 1279 l 757 1279 l 510 1063 l 353 1063 z "},"Ğ":{"ha":856,"x_min":60,"x_max":767,"o":"m 443 -17 q 272 25 344 -17 q 152 139 199 67 q 83 301 106 211 q 60 486 60 391 q 83 666 60 577 q 155 828 107 756 q 275 945 203 901 q 443 989 347 989 q 582 961 526 989 q 677 888 639 933 q 743 793 715 843 l 597 710 q 535 795 572 759 q 443 832 499 832 q 344 800 385 832 q 279 717 304 769 q 243 605 254 665 q 232 486 232 544 q 245 358 232 420 q 283 247 258 297 q 349 169 309 198 q 443 140 389 140 q 559 192 520 140 q 597 321 597 244 l 597 342 l 428 342 l 428 497 l 767 497 l 767 363 q 724 155 767 240 q 608 27 681 70 q 443 -17 535 -17 m 444 1060 q 297 1092 354 1060 q 212 1177 240 1124 q 185 1293 185 1231 l 313 1293 q 346 1213 313 1247 q 444 1179 379 1179 q 544 1213 510 1179 q 578 1293 578 1247 l 706 1293 q 678 1177 706 1231 q 592 1092 650 1124 q 444 1060 535 1060 z "},"Ǧ":{"ha":856,"x_min":60,"x_max":767,"o":"m 443 -17 q 272 25 344 -17 q 152 139 199 67 q 83 301 106 211 q 60 486 60 391 q 83 666 60 577 q 155 828 107 756 q 275 945 203 901 q 443 989 347 989 q 582 961 526 989 q 677 888 639 933 q 743 793 715 843 l 597 710 q 535 795 572 759 q 443 832 499 832 q 344 800 385 832 q 279 717 304 769 q 243 605 254 665 q 232 486 232 544 q 245 358 232 420 q 283 247 258 297 q 349 169 309 198 q 443 140 389 140 q 559 192 520 140 q 597 321 597 244 l 597 342 l 428 342 l 428 497 l 767 497 l 767 363 q 724 155 767 240 q 608 27 681 70 q 443 -17 535 -17 m 365 1063 l 169 1279 l 317 1279 l 444 1172 l 572 1279 l 719 1279 l 524 1063 l 365 1063 z "},"Ĝ":{"ha":856,"x_min":60,"x_max":767,"o":"m 443 -17 q 272 25 344 -17 q 152 139 199 67 q 83 301 106 211 q 60 486 60 391 q 83 666 60 577 q 155 828 107 756 q 275 945 203 901 q 443 989 347 989 q 582 961 526 989 q 677 888 639 933 q 743 793 715 843 l 597 710 q 535 795 572 759 q 443 832 499 832 q 344 800 385 832 q 279 717 304 769 q 243 605 254 665 q 232 486 232 544 q 245 358 232 420 q 283 247 258 297 q 349 169 309 198 q 443 140 389 140 q 559 192 520 140 q 597 321 597 244 l 597 342 l 428 342 l 428 497 l 767 497 l 767 363 q 724 155 767 240 q 608 27 681 70 q 443 -17 535 -17 m 168 1063 l 365 1279 l 522 1279 l 718 1063 l 571 1063 l 443 1169 l 315 1063 l 168 1063 z "},"Ģ":{"ha":856,"x_min":60,"x_max":767,"o":"m 443 -17 q 272 25 344 -17 q 152 139 199 67 q 83 301 106 211 q 60 486 60 391 q 83 666 60 577 q 155 828 107 756 q 275 945 203 901 q 443 989 347 989 q 582 961 526 989 q 677 888 639 933 q 743 793 715 843 l 597 710 q 535 795 572 759 q 443 832 499 832 q 344 800 385 832 q 279 717 304 769 q 243 605 254 665 q 232 486 232 544 q 245 358 232 420 q 283 247 258 297 q 349 169 309 198 q 443 140 389 140 q 559 192 520 140 q 597 321 597 244 l 597 342 l 428 342 l 428 497 l 767 497 l 767 363 q 724 155 767 240 q 608 27 681 70 q 443 -17 535 -17 m 403 -418 l 350 -382 q 387 -339 365 -369 q 418 -279 410 -309 q 371 -251 389 -273 q 353 -196 353 -229 q 380 -132 353 -156 q 440 -108 406 -108 q 502 -134 476 -108 q 529 -208 529 -160 q 492 -328 529 -271 q 403 -418 455 -385 z "},"Ġ":{"ha":856,"x_min":60,"x_max":767,"o":"m 443 -17 q 272 25 344 -17 q 152 139 199 67 q 83 301 106 211 q 60 486 60 391 q 83 666 60 577 q 155 828 107 756 q 275 945 203 901 q 443 989 347 989 q 582 961 526 989 q 677 888 639 933 q 743 793 715 843 l 597 710 q 535 795 572 759 q 443 832 499 832 q 344 800 385 832 q 279 717 304 769 q 243 605 254 665 q 232 486 232 544 q 245 358 232 420 q 283 247 258 297 q 349 169 309 198 q 443 140 389 140 q 559 192 520 140 q 597 321 597 244 l 597 342 l 428 342 l 428 497 l 767 497 l 767 363 q 724 155 767 240 q 608 27 681 70 q 443 -17 535 -17 m 444 1078 q 379 1105 405 1078 q 353 1171 353 1131 q 379 1236 353 1210 q 444 1263 405 1263 q 511 1236 484 1263 q 538 1171 538 1210 q 511 1105 538 1131 q 444 1078 484 1078 z "},"Ɠ":{"ha":856,"x_min":60,"x_max":871,"o":"m 583 793 l 583 831 q 632 1044 583 972 q 796 1142 681 1116 l 871 1024 q 767 958 791 1000 q 743 835 743 915 l 743 793 l 583 793 m 443 -17 q 272 25 344 -17 q 152 139 199 67 q 83 301 106 211 q 60 486 60 391 q 83 666 60 577 q 155 828 107 756 q 275 945 203 901 q 443 989 347 989 q 582 961 526 989 q 677 888 639 933 q 743 793 715 843 l 597 710 q 535 795 572 759 q 443 832 499 832 q 344 800 385 832 q 279 717 304 769 q 243 605 254 665 q 232 486 232 544 q 245 358 232 420 q 283 247 258 297 q 349 169 309 198 q 443 140 389 140 q 559 192 520 140 q 597 321 597 244 l 597 342 l 428 342 l 428 497 l 767 497 l 767 363 q 724 155 767 240 q 608 27 681 70 q 443 -17 535 -17 z "},"Ḡ":{"ha":856,"x_min":60,"x_max":767,"o":"m 443 -17 q 272 25 344 -17 q 152 139 199 67 q 83 301 106 211 q 60 486 60 391 q 83 666 60 577 q 155 828 107 756 q 275 945 203 901 q 443 989 347 989 q 582 961 526 989 q 677 888 639 933 q 743 793 715 843 l 597 710 q 535 795 572 759 q 443 832 499 832 q 344 800 385 832 q 279 717 304 769 q 243 605 254 665 q 232 486 232 544 q 245 358 232 420 q 283 247 258 297 q 349 169 309 198 q 443 140 389 140 q 559 192 520 140 q 597 321 597 244 l 597 342 l 428 342 l 428 497 l 767 497 l 767 363 q 724 155 767 240 q 608 27 681 70 q 443 -17 535 -17 m 215 1086 l 215 1217 l 674 1217 l 674 1086 l 215 1086 z "},"Ǥ":{"ha":856,"x_min":60,"x_max":856,"o":"m 429 -17 q 260 25 331 -17 q 145 139 190 67 q 81 301 101 211 q 60 486 60 391 q 81 666 60 577 q 148 828 103 756 q 263 945 193 901 q 428 989 332 989 q 564 962 508 989 q 659 890 621 935 q 721 792 697 845 l 576 710 q 518 795 553 759 q 428 832 484 832 q 332 800 370 832 q 272 717 294 769 q 241 605 250 665 q 232 486 232 544 q 243 358 232 420 q 276 247 253 297 q 337 169 299 198 q 429 140 375 140 q 541 192 506 140 q 576 321 576 244 l 576 557 l 746 557 l 746 363 q 705 155 746 240 q 592 27 664 70 q 429 -17 521 -17 m 410 263 l 410 418 l 856 418 l 856 263 l 410 263 z "},"H":{"ha":856,"x_min":106,"x_max":750,"o":"m 106 0 l 106 972 l 271 972 l 271 579 l 585 579 l 585 972 l 750 972 l 750 0 l 585 0 l 585 424 l 271 424 l 271 0 l 106 0 z "},"Ħ":{"ha":856,"x_min":7,"x_max":849,"o":"m 585 0 l 585 424 l 271 424 l 271 0 l 106 0 l 106 703 l 7 703 l 7 858 l 106 858 l 106 972 l 271 972 l 271 858 l 585 858 l 585 972 l 750 972 l 750 858 l 849 858 l 849 703 l 750 703 l 750 0 l 585 0 m 585 579 l 585 703 l 271 703 l 271 579 l 585 579 z "},"Ȟ":{"ha":856,"x_min":106,"x_max":750,"o":"m 106 0 l 106 972 l 271 972 l 271 579 l 585 579 l 585 972 l 750 972 l 750 0 l 585 0 l 585 424 l 271 424 l 271 0 l 106 0 m 349 1063 l 153 1279 l 300 1279 l 428 1172 l 556 1279 l 703 1279 l 507 1063 l 349 1063 z "},"Ĥ":{"ha":856,"x_min":106,"x_max":750,"o":"m 106 0 l 106 972 l 271 972 l 271 579 l 585 579 l 585 972 l 750 972 l 750 0 l 585 0 l 585 424 l 271 424 l 271 0 l 106 0 m 151 1063 l 349 1279 l 506 1279 l 701 1063 l 554 1063 l 426 1169 l 299 1063 l 151 1063 z "},"Ḥ":{"ha":856,"x_min":106,"x_max":750,"o":"m 106 0 l 106 972 l 271 972 l 271 579 l 585 579 l 585 972 l 750 972 l 750 0 l 585 0 l 585 424 l 271 424 l 271 0 l 106 0 m 428 -300 q 355 -270 384 -300 q 326 -199 326 -241 q 355 -126 326 -155 q 428 -97 384 -97 q 500 -126 471 -97 q 529 -199 529 -155 q 500 -270 529 -241 q 428 -300 471 -300 z "},"Ɦ":{"ha":856,"x_min":7,"x_max":803,"o":"m 270 0 l 270 819 l 260 819 q 182 775 201 819 q 157 618 163 730 l 7 694 q 42 847 15 785 q 122 940 68 908 q 266 972 176 972 l 435 972 l 435 579 l 638 579 l 638 972 l 803 972 l 803 0 l 638 0 l 638 424 l 435 424 l 435 0 l 270 0 z "},"Ɥ":{"ha":856,"x_min":67,"x_max":750,"o":"m 585 0 l 585 429 q 508 353 560 388 q 379 318 456 318 q 152 412 238 318 q 67 686 67 506 l 67 972 l 232 972 l 232 710 q 278 533 232 588 q 408 478 324 478 q 539 533 493 478 q 585 710 585 588 l 585 972 l 750 972 l 750 0 l 585 0 z "},"I":{"ha":856,"x_min":142,"x_max":714,"o":"m 344 0 l 344 972 l 510 972 l 510 0 l 344 0 m 142 0 l 142 146 l 714 146 l 714 0 l 142 0 m 142 826 l 142 972 l 714 972 l 714 826 l 142 826 z "},"Ĳ":{"ha":856,"x_min":21,"x_max":835,"o":"m 631 -17 q 493 40 544 -17 q 428 199 442 97 l 556 239 q 584 151 568 176 q 631 125 599 125 q 674 153 658 125 q 690 249 690 181 l 690 972 l 835 972 l 835 269 q 806 94 835 156 q 731 8 778 32 q 631 -17 685 -17 m 21 0 l 21 142 l 126 142 l 126 831 l 21 831 l 21 972 l 376 972 l 376 831 l 271 831 l 271 142 l 376 142 l 376 0 l 21 0 z "},"Í":{"ha":856,"x_min":142,"x_max":740,"o":"m 344 0 l 344 972 l 510 972 l 510 0 l 344 0 m 142 0 l 142 146 l 714 146 l 714 0 l 142 0 m 142 826 l 142 972 l 714 972 l 714 826 l 142 826 m 336 1063 l 533 1279 l 740 1279 l 493 1063 l 336 1063 z "},"Ĭ":{"ha":856,"x_min":142,"x_max":714,"o":"m 344 0 l 344 972 l 510 972 l 510 0 l 344 0 m 142 0 l 142 146 l 714 146 l 714 0 l 142 0 m 142 826 l 142 972 l 714 972 l 714 826 l 142 826 m 428 1060 q 280 1092 338 1060 q 195 1177 223 1124 q 168 1293 168 1231 l 296 1293 q 329 1213 296 1247 q 428 1179 363 1179 q 527 1213 494 1179 q 561 1293 561 1247 l 689 1293 q 661 1177 689 1231 q 576 1092 633 1124 q 428 1060 518 1060 z "},"Ǐ":{"ha":856,"x_min":142,"x_max":714,"o":"m 344 0 l 344 972 l 510 972 l 510 0 l 344 0 m 142 0 l 142 146 l 714 146 l 714 0 l 142 0 m 142 826 l 142 972 l 714 972 l 714 826 l 142 826 m 349 1063 l 153 1279 l 300 1279 l 428 1172 l 556 1279 l 703 1279 l 507 1063 l 349 1063 z "},"Î":{"ha":856,"x_min":142,"x_max":714,"o":"m 344 0 l 344 972 l 510 972 l 510 0 l 344 0 m 142 0 l 142 146 l 714 146 l 714 0 l 142 0 m 142 826 l 142 972 l 714 972 l 714 826 l 142 826 m 151 1063 l 349 1279 l 506 1279 l 701 1063 l 554 1063 l 426 1169 l 299 1063 l 151 1063 z "},"Ȉ":{"ha":856,"x_min":-46,"x_max":714,"o":"m 344 0 l 344 972 l 510 972 l 510 0 l 344 0 m 142 0 l 142 146 l 714 146 l 714 0 l 142 0 m 142 826 l 142 972 l 714 972 l 714 826 l 142 826 m 507 1063 l 260 1279 l 485 1279 l 682 1063 l 507 1063 m 201 1063 l -46 1279 l 179 1279 l 376 1063 l 201 1063 z "},"Ï":{"ha":856,"x_min":142,"x_max":714,"o":"m 344 0 l 344 972 l 510 972 l 510 0 l 344 0 m 142 0 l 142 146 l 714 146 l 714 0 l 142 0 m 142 826 l 142 972 l 714 972 l 714 826 l 142 826 m 300 1079 q 234 1106 260 1079 q 208 1172 208 1133 q 234 1238 208 1211 q 300 1264 260 1264 q 366 1238 340 1264 q 393 1172 393 1211 q 366 1106 393 1133 q 300 1079 340 1079 m 556 1079 q 490 1106 516 1079 q 464 1172 464 1133 q 490 1238 464 1211 q 556 1264 516 1264 q 622 1238 595 1264 q 649 1172 649 1211 q 622 1106 649 1133 q 556 1079 595 1079 z "},"Ḯ":{"ha":856,"x_min":142,"x_max":740,"o":"m 344 0 l 344 972 l 510 972 l 510 0 l 344 0 m 142 0 l 142 146 l 714 146 l 714 0 l 142 0 m 142 826 l 142 972 l 714 972 l 714 826 l 142 826 m 300 1079 q 234 1106 260 1079 q 208 1172 208 1133 q 234 1238 208 1211 q 300 1264 260 1264 q 366 1238 340 1264 q 393 1172 393 1211 q 366 1106 393 1133 q 300 1079 340 1079 m 556 1079 q 490 1106 516 1079 q 464 1172 464 1133 q 490 1238 464 1211 q 556 1264 516 1264 q 622 1238 595 1264 q 649 1172 649 1211 q 622 1106 649 1133 q 556 1079 595 1079 m 336 1354 l 533 1571 l 740 1571 l 493 1354 l 336 1354 z "},"İ":{"ha":856,"x_min":142,"x_max":714,"o":"m 344 0 l 344 972 l 510 972 l 510 0 l 344 0 m 142 0 l 142 146 l 714 146 l 714 0 l 142 0 m 142 826 l 142 972 l 714 972 l 714 826 l 142 826 m 428 1078 q 362 1105 388 1078 q 336 1171 336 1131 q 362 1236 336 1210 q 428 1263 388 1263 q 494 1236 467 1263 q 521 1171 521 1210 q 494 1105 521 1131 q 428 1078 467 1078 z "},"Ị":{"ha":856,"x_min":142,"x_max":714,"o":"m 344 0 l 344 972 l 510 972 l 510 0 l 344 0 m 142 0 l 142 146 l 714 146 l 714 0 l 142 0 m 142 826 l 142 972 l 714 972 l 714 826 l 142 826 m 428 -300 q 355 -270 384 -300 q 326 -199 326 -241 q 355 -126 326 -155 q 428 -97 384 -97 q 500 -126 471 -97 q 529 -199 529 -155 q 500 -270 529 -241 q 428 -300 471 -300 z "},"Ì":{"ha":856,"x_min":129,"x_max":714,"o":"m 344 0 l 344 972 l 510 972 l 510 0 l 344 0 m 142 0 l 142 146 l 714 146 l 714 0 l 142 0 m 142 826 l 142 972 l 714 972 l 714 826 l 142 826 m 376 1063 l 129 1279 l 335 1279 l 532 1063 l 376 1063 z "},"Ỉ":{"ha":856,"x_min":142,"x_max":714,"o":"m 344 0 l 344 972 l 510 972 l 510 0 l 344 0 m 142 0 l 142 146 l 714 146 l 714 0 l 142 0 m 142 826 l 142 972 l 714 972 l 714 826 l 142 826 m 368 1026 q 379 1088 368 1061 q 418 1138 390 1115 q 438 1157 433 1149 q 443 1171 443 1164 q 439 1182 443 1177 q 426 1186 434 1186 q 376 1147 401 1186 l 297 1197 q 347 1266 310 1238 q 432 1293 384 1293 q 522 1261 486 1293 q 557 1178 557 1229 q 543 1118 557 1138 q 514 1082 530 1098 q 492 1057 501 1069 q 482 1026 482 1044 l 368 1026 z "},"Ȋ":{"ha":856,"x_min":142,"x_max":714,"o":"m 344 0 l 344 972 l 510 972 l 510 0 l 344 0 m 142 0 l 142 146 l 714 146 l 714 0 l 142 0 m 142 826 l 142 972 l 714 972 l 714 826 l 142 826 m 164 1057 q 192 1174 164 1120 q 280 1260 221 1228 q 429 1293 338 1293 q 579 1260 521 1293 q 665 1173 638 1227 q 693 1057 693 1119 l 554 1057 q 525 1129 554 1096 q 429 1163 496 1163 q 333 1129 364 1163 q 303 1057 303 1096 l 164 1057 z "},"Ī":{"ha":856,"x_min":142,"x_max":714,"o":"m 344 0 l 344 972 l 510 972 l 510 0 l 344 0 m 142 0 l 142 146 l 714 146 l 714 0 l 142 0 m 142 826 l 142 972 l 714 972 l 714 826 l 142 826 m 199 1086 l 199 1217 l 657 1217 l 657 1086 l 199 1086 z "},"Į":{"ha":856,"x_min":142,"x_max":714,"o":"m 464 -336 q 343 -296 390 -336 q 296 -189 296 -256 q 336 -78 296 -126 q 449 0 377 -30 l 142 0 l 142 146 l 344 146 l 344 826 l 142 826 l 142 972 l 714 972 l 714 826 l 510 826 l 510 146 l 714 146 l 714 0 l 639 0 q 520 -30 567 0 q 451 -100 474 -59 q 428 -175 428 -141 q 445 -225 428 -209 q 486 -240 463 -240 q 522 -232 507 -240 q 546 -212 537 -224 l 622 -267 q 565 -313 603 -290 q 464 -336 526 -336 z "},"Ɩ":{"ha":856,"x_min":344,"x_max":713,"o":"m 538 -17 q 390 31 435 -17 q 344 165 344 78 l 344 972 l 510 972 l 510 197 q 534 148 510 166 q 592 129 558 129 q 652 138 621 129 q 713 161 683 146 l 692 15 q 619 -8 658 0 q 538 -17 581 -17 z "},"Ɨ":{"ha":856,"x_min":142,"x_max":714,"o":"m 178 407 l 178 567 l 678 567 l 678 407 l 178 407 m 344 0 l 344 972 l 510 972 l 510 0 l 344 0 m 142 0 l 142 146 l 714 146 l 714 0 l 142 0 m 142 826 l 142 972 l 714 972 l 714 826 l 142 826 z "},"Ĩ":{"ha":856,"x_min":142,"x_max":714,"o":"m 344 0 l 344 972 l 510 972 l 510 0 l 344 0 m 142 0 l 142 146 l 714 146 l 714 0 l 142 0 m 142 826 l 142 972 l 714 972 l 714 826 l 142 826 m 538 1079 q 466 1091 498 1079 q 404 1115 433 1102 q 356 1136 379 1127 q 308 1144 333 1144 q 264 1131 283 1144 q 243 1085 244 1117 l 167 1085 q 201 1216 167 1165 q 318 1267 235 1267 q 390 1256 358 1267 q 451 1231 423 1244 q 499 1210 475 1219 q 547 1201 522 1201 q 593 1215 574 1201 q 613 1261 612 1229 l 689 1261 q 655 1130 689 1181 q 538 1079 621 1079 z "},"J":{"ha":856,"x_min":114,"x_max":747,"o":"m 424 -17 q 238 36 319 -17 q 114 185 157 89 l 256 253 q 298 192 274 217 q 352 153 321 167 q 425 140 383 140 q 501 157 465 140 q 560 216 538 173 q 583 339 583 259 l 583 972 l 747 972 l 747 331 q 717 160 747 228 q 640 54 688 92 q 535 -1 592 15 q 424 -17 478 -17 z "},"Ĵ":{"ha":856,"x_min":114,"x_max":940,"o":"m 424 -17 q 238 36 319 -17 q 114 185 157 89 l 256 253 q 298 192 274 217 q 352 153 321 167 q 425 140 383 140 q 501 157 465 140 q 560 216 538 173 q 583 339 583 259 l 583 972 l 747 972 l 747 331 q 717 160 747 228 q 640 54 688 92 q 535 -1 592 15 q 424 -17 478 -17 m 390 1063 l 588 1279 l 744 1279 l 940 1063 l 793 1063 l 665 1169 l 538 1063 l 390 1063 z "},"K":{"ha":856,"x_min":106,"x_max":815,"o":"m 257 357 l 257 588 l 560 972 l 753 972 l 257 357 m 106 0 l 106 972 l 271 972 l 271 0 l 106 0 m 622 0 l 351 507 l 463 646 l 815 0 l 622 0 z "},"Ǩ":{"ha":856,"x_min":106,"x_max":815,"o":"m 257 357 l 257 588 l 560 972 l 753 972 l 257 357 m 106 0 l 106 972 l 271 972 l 271 0 l 106 0 m 622 0 l 351 507 l 463 646 l 815 0 l 622 0 m 328 1063 l 132 1279 l 279 1279 l 407 1172 l 535 1279 l 682 1279 l 486 1063 l 328 1063 z "},"Ķ":{"ha":856,"x_min":106,"x_max":815,"o":"m 257 357 l 257 588 l 560 972 l 753 972 l 257 357 m 106 0 l 106 972 l 271 972 l 271 0 l 106 0 m 622 0 l 351 507 l 463 646 l 815 0 l 622 0 m 390 -418 l 338 -382 q 375 -339 352 -369 q 406 -279 397 -309 q 358 -251 376 -273 q 340 -196 340 -229 q 367 -132 340 -156 q 428 -108 394 -108 q 490 -134 463 -108 q 517 -208 517 -160 q 480 -328 517 -271 q 390 -418 442 -385 z "},"Ƙ":{"ha":856,"x_min":106,"x_max":819,"o":"m 106 0 l 106 972 l 271 972 l 271 605 l 444 826 q 531 914 486 879 q 627 966 575 948 q 746 989 680 985 l 819 871 q 706 848 751 865 q 626 801 660 831 q 556 727 592 772 l 474 626 l 815 0 l 622 0 l 362 488 l 271 374 l 271 0 l 106 0 z "},"L":{"ha":856,"x_min":106,"x_max":719,"o":"m 106 0 l 106 972 l 271 972 l 271 158 l 719 158 l 719 0 l 106 0 z "},"Ǉ":{"ha":856,"x_min":28,"x_max":835,"o":"m 28 0 l 28 972 l 172 972 l 172 142 l 392 142 l 392 0 l 28 0 m 631 -17 q 493 40 544 -17 q 428 199 442 97 l 556 239 q 584 151 568 176 q 631 125 599 125 q 674 153 658 125 q 690 249 690 181 l 690 972 l 835 972 l 835 269 q 806 94 835 156 q 731 8 778 32 q 631 -17 685 -17 z "},"Ĺ":{"ha":856,"x_min":97,"x_max":719,"o":"m 106 0 l 106 972 l 271 972 l 271 158 l 719 158 l 719 0 l 106 0 m 97 1063 l 294 1279 l 501 1279 l 254 1063 l 97 1063 z "},"Ľ":{"ha":856,"x_min":106,"x_max":719,"o":"m 106 0 l 106 972 l 271 972 l 271 158 l 719 158 l 719 0 l 106 0 m 456 624 l 406 661 q 427 736 418 687 q 442 848 437 786 q 447 972 447 910 l 599 972 l 599 961 q 561 771 599 853 q 456 624 524 690 z "},"Ḽ":{"ha":856,"x_min":106,"x_max":719,"o":"m 106 0 l 106 972 l 271 972 l 271 158 l 719 158 l 719 0 l 106 0 m 136 -318 l 333 -101 l 490 -101 l 686 -318 l 539 -318 l 411 -211 l 283 -318 l 136 -318 z "},"Ļ":{"ha":856,"x_min":106,"x_max":719,"o":"m 106 0 l 106 972 l 271 972 l 271 158 l 719 158 l 719 0 l 106 0 m 374 -418 l 321 -382 q 358 -339 335 -369 q 389 -279 381 -309 q 342 -251 360 -273 q 324 -196 324 -229 q 350 -132 324 -156 q 411 -108 377 -108 q 473 -134 447 -108 q 500 -208 500 -160 q 463 -328 500 -271 q 374 -418 426 -385 z "},"Ŀ":{"ha":856,"x_min":106,"x_max":724,"o":"m 106 0 l 106 972 l 271 972 l 271 158 l 719 158 l 719 0 l 106 0 m 613 378 q 535 409 566 378 q 504 485 504 441 q 535 561 504 528 q 613 593 566 593 q 692 561 660 593 q 724 485 724 528 q 692 409 724 441 q 613 378 660 378 z "},"Ḷ":{"ha":856,"x_min":106,"x_max":719,"o":"m 106 0 l 106 972 l 271 972 l 271 158 l 719 158 l 719 0 l 106 0 m 411 -300 q 339 -270 367 -300 q 310 -199 310 -241 q 339 -126 310 -155 q 411 -97 367 -97 q 483 -126 454 -97 q 513 -199 513 -155 q 483 -270 513 -241 q 411 -300 454 -300 z "},"ǈ":{"ha":856,"x_min":28,"x_max":786,"o":"m 28 0 l 28 972 l 172 972 l 172 142 l 392 142 l 392 0 l 28 0 m 540 -296 l 468 -183 q 588 -124 556 -161 q 619 -15 619 -87 l 619 568 l 499 568 l 499 710 l 764 710 l 764 0 q 737 -153 764 -94 q 654 -250 710 -213 q 600 -278 627 -267 q 540 -296 573 -290 m 690 808 q 623 836 651 808 q 596 904 596 865 q 623 971 596 944 q 690 999 651 999 q 759 971 731 999 q 786 904 786 944 q 759 836 786 865 q 690 808 731 808 z "},"Ł":{"ha":856,"x_min":61,"x_max":772,"o":"m 156 0 l 156 313 l 61 240 l 61 421 l 156 492 l 156 972 l 321 972 l 321 618 l 510 761 l 510 582 l 321 439 l 321 158 l 772 158 l 772 0 l 156 0 z "},"M":{"ha":856,"x_min":106,"x_max":750,"o":"m 106 0 l 106 972 l 267 972 l 407 439 q 420 390 413 418 q 431 343 428 362 q 441 390 434 362 q 454 439 449 418 l 599 972 l 750 972 l 750 0 l 607 0 l 607 528 q 607 569 607 544 q 610 608 608 594 q 596 569 603 591 q 583 528 589 548 l 435 0 l 421 0 l 272 528 q 259 570 267 548 q 246 608 252 592 q 248 569 247 594 q 249 528 249 544 l 249 0 l 106 0 z "},"Ḿ":{"ha":856,"x_min":106,"x_max":750,"o":"m 106 0 l 106 972 l 267 972 l 407 439 q 420 390 413 418 q 431 343 428 362 q 441 390 434 362 q 454 439 449 418 l 599 972 l 750 972 l 750 0 l 607 0 l 607 528 q 607 569 607 544 q 610 608 608 594 q 596 569 603 591 q 583 528 589 548 l 435 0 l 421 0 l 272 528 q 259 570 267 548 q 246 608 252 592 q 248 569 247 594 q 249 528 249 544 l 249 0 l 106 0 m 336 1063 l 533 1279 l 740 1279 l 493 1063 l 336 1063 z "},"N":{"ha":856,"x_min":106,"x_max":750,"o":"m 106 0 l 106 972 l 263 972 l 565 372 q 583 340 572 361 q 600 306 594 319 q 598 342 599 324 q 597 372 597 360 l 597 972 l 750 972 l 750 0 l 600 0 l 292 603 q 274 635 285 615 q 256 669 263 656 q 259 635 259 654 q 260 603 260 617 l 260 0 l 106 0 z "},"Ǌ":{"ha":856,"x_min":28,"x_max":835,"o":"m 631 -17 q 493 40 544 -17 q 428 199 442 97 l 556 239 q 584 151 568 176 q 631 125 599 125 q 674 153 658 125 q 690 249 690 181 l 690 972 l 835 972 l 835 269 q 806 94 835 156 q 731 8 778 32 q 631 -17 685 -17 m 28 0 l 28 972 l 144 972 l 242 575 q 253 530 246 558 q 264 482 260 502 q 262 532 263 502 q 261 574 261 561 l 261 972 l 400 972 l 400 0 l 283 0 l 186 393 q 174 439 182 409 q 163 489 167 469 q 166 440 165 469 q 167 396 167 410 l 167 0 l 28 0 z "},"Ń":{"ha":856,"x_min":106,"x_max":750,"o":"m 106 0 l 106 972 l 263 972 l 565 372 q 583 340 572 361 q 600 306 594 319 q 598 342 599 324 q 597 372 597 360 l 597 972 l 750 972 l 750 0 l 600 0 l 292 603 q 274 635 285 615 q 256 669 263 656 q 259 635 259 654 q 260 603 260 617 l 260 0 l 106 0 m 336 1063 l 533 1279 l 740 1279 l 493 1063 l 336 1063 z "},"Ň":{"ha":856,"x_min":106,"x_max":750,"o":"m 106 0 l 106 972 l 263 972 l 565 372 q 583 340 572 361 q 600 306 594 319 q 598 342 599 324 q 597 372 597 360 l 597 972 l 750 972 l 750 0 l 600 0 l 292 603 q 274 635 285 615 q 256 669 263 656 q 259 635 259 654 q 260 603 260 617 l 260 0 l 106 0 m 349 1063 l 153 1279 l 300 1279 l 428 1172 l 556 1279 l 703 1279 l 507 1063 l 349 1063 z "},"Ṋ":{"ha":856,"x_min":106,"x_max":750,"o":"m 106 0 l 106 972 l 263 972 l 565 372 q 583 340 572 361 q 600 306 594 319 q 598 342 599 324 q 597 372 597 360 l 597 972 l 750 972 l 750 0 l 600 0 l 292 603 q 274 635 285 615 q 256 669 263 656 q 259 635 259 654 q 260 603 260 617 l 260 0 l 106 0 m 153 -318 l 350 -101 l 507 -101 l 703 -318 l 556 -318 l 428 -211 l 300 -318 l 153 -318 z "},"Ņ":{"ha":856,"x_min":106,"x_max":750,"o":"m 106 0 l 106 972 l 263 972 l 565 372 q 583 340 572 361 q 600 306 594 319 q 598 342 599 324 q 597 372 597 360 l 597 972 l 750 972 l 750 0 l 600 0 l 292 603 q 274 635 285 615 q 256 669 263 656 q 259 635 259 654 q 260 603 260 617 l 260 0 l 106 0 m 390 -418 l 338 -382 q 375 -339 352 -369 q 406 -279 397 -309 q 358 -251 376 -273 q 340 -196 340 -229 q 367 -132 340 -156 q 428 -108 394 -108 q 490 -134 463 -108 q 517 -208 517 -160 q 480 -328 517 -271 q 390 -418 442 -385 z "},"Ṅ":{"ha":856,"x_min":106,"x_max":750,"o":"m 106 0 l 106 972 l 263 972 l 565 372 q 583 340 572 361 q 600 306 594 319 q 598 342 599 324 q 597 372 597 360 l 597 972 l 750 972 l 750 0 l 600 0 l 292 603 q 274 635 285 615 q 256 669 263 656 q 259 635 259 654 q 260 603 260 617 l 260 0 l 106 0 m 428 1078 q 362 1105 388 1078 q 336 1171 336 1131 q 362 1236 336 1210 q 428 1263 388 1263 q 494 1236 467 1263 q 521 1171 521 1210 q 494 1105 521 1131 q 428 1078 467 1078 z "},"Ṇ":{"ha":856,"x_min":106,"x_max":750,"o":"m 106 0 l 106 972 l 263 972 l 565 372 q 583 340 572 361 q 600 306 594 319 q 598 342 599 324 q 597 372 597 360 l 597 972 l 750 972 l 750 0 l 600 0 l 292 603 q 274 635 285 615 q 256 669 263 656 q 259 635 259 654 q 260 603 260 617 l 260 0 l 106 0 m 428 -300 q 355 -270 384 -300 q 326 -199 326 -241 q 355 -126 326 -155 q 428 -97 384 -97 q 500 -126 471 -97 q 529 -199 529 -155 q 500 -270 529 -241 q 428 -300 471 -300 z "},"Ǹ":{"ha":856,"x_min":106,"x_max":750,"o":"m 106 0 l 106 972 l 263 972 l 565 372 q 583 340 572 361 q 600 306 594 319 q 598 342 599 324 q 597 372 597 360 l 597 972 l 750 972 l 750 0 l 600 0 l 292 603 q 274 635 285 615 q 256 669 263 656 q 259 635 259 654 q 260 603 260 617 l 260 0 l 106 0 m 376 1063 l 129 1279 l 335 1279 l 532 1063 l 376 1063 z "},"Ɲ":{"ha":856,"x_min":-90,"x_max":750,"o":"m -10 -326 l -90 -201 q 26 -164 -17 -185 q 87 -109 69 -143 q 106 -18 106 -74 l 106 972 l 263 972 l 565 372 q 583 340 572 361 q 600 306 594 319 q 598 342 599 324 q 597 372 597 360 l 597 972 l 750 972 l 750 0 l 600 0 l 292 603 q 274 636 283 619 q 256 669 265 653 q 259 635 259 654 q 260 603 260 617 l 260 -7 q 191 -219 260 -141 q -10 -326 122 -298 z "},"ǋ":{"ha":856,"x_min":28,"x_max":786,"o":"m 28 0 l 28 972 l 144 972 l 242 575 q 253 530 246 558 q 264 482 260 502 q 262 532 263 502 q 261 574 261 561 l 261 972 l 400 972 l 400 0 l 283 0 l 186 393 q 174 441 181 412 q 163 489 167 469 q 166 440 165 469 q 167 396 167 410 l 167 0 l 28 0 m 540 -296 l 468 -183 q 588 -124 556 -161 q 619 -15 619 -87 l 619 568 l 499 568 l 499 710 l 764 710 l 764 0 q 737 -153 764 -94 q 654 -250 710 -213 q 600 -278 627 -267 q 540 -296 573 -290 m 690 808 q 623 836 651 808 q 596 904 596 865 q 623 971 596 944 q 690 999 651 999 q 759 971 731 999 q 786 904 786 944 q 759 836 786 865 q 690 808 731 808 z "},"Ñ":{"ha":856,"x_min":106,"x_max":750,"o":"m 106 0 l 106 972 l 263 972 l 565 372 q 583 340 572 361 q 600 306 594 319 q 598 342 599 324 q 597 372 597 360 l 597 972 l 750 972 l 750 0 l 600 0 l 292 603 q 274 635 285 615 q 256 669 263 656 q 259 635 259 654 q 260 603 260 617 l 260 0 l 106 0 m 538 1079 q 466 1091 498 1079 q 404 1115 433 1102 q 356 1136 379 1127 q 308 1144 333 1144 q 264 1131 283 1144 q 243 1085 244 1117 l 167 1085 q 201 1216 167 1165 q 318 1267 235 1267 q 390 1256 358 1267 q 451 1231 423 1244 q 499 1210 475 1219 q 547 1201 522 1201 q 593 1215 574 1201 q 613 1261 612 1229 l 689 1261 q 655 1130 689 1181 q 538 1079 621 1079 z "},"Ŋ":{"ha":856,"x_min":106,"x_max":750,"o":"m 453 -339 l 372 -211 q 506 -176 457 -197 q 576 -122 556 -156 q 597 -36 597 -89 l 597 6 l 292 603 q 275 634 284 618 q 256 669 266 651 q 259 635 259 654 q 260 603 260 617 l 260 0 l 106 0 l 106 972 l 263 972 l 565 373 q 581 343 569 366 q 600 306 594 319 q 598 342 599 324 q 597 372 597 360 l 597 972 l 750 972 l 750 -24 q 736 -144 750 -90 q 678 -243 723 -198 q 574 -308 633 -287 q 453 -339 515 -329 z "},"O":{"ha":856,"x_min":60,"x_max":797,"o":"m 428 -17 q 260 25 330 -17 q 146 137 190 66 q 81 298 101 208 q 60 486 60 388 q 81 674 60 584 q 146 835 101 765 q 260 948 190 906 q 428 989 330 989 q 596 948 526 989 q 710 835 666 906 q 776 674 755 765 q 797 486 797 584 q 776 298 797 388 q 710 137 755 208 q 596 25 666 66 q 428 -17 526 -17 m 428 140 q 517 169 479 140 q 578 248 554 199 q 614 359 602 297 q 625 486 625 421 q 614 618 625 556 q 578 728 602 680 q 517 804 555 776 q 428 832 480 832 q 338 803 376 832 q 277 725 301 774 q 242 614 253 676 q 231 486 231 552 q 242 355 231 417 q 277 244 253 293 q 338 168 301 196 q 428 140 376 140 z "},"Ó":{"ha":856,"x_min":60,"x_max":797,"o":"m 428 -17 q 260 25 330 -17 q 146 137 190 66 q 81 298 101 208 q 60 486 60 388 q 81 674 60 584 q 146 835 101 765 q 260 948 190 906 q 428 989 330 989 q 596 948 526 989 q 710 835 666 906 q 776 674 755 765 q 797 486 797 584 q 776 298 797 388 q 710 137 755 208 q 596 25 666 66 q 428 -17 526 -17 m 428 140 q 517 169 479 140 q 578 248 554 199 q 614 359 602 297 q 625 486 625 421 q 614 618 625 556 q 578 728 602 680 q 517 804 555 776 q 428 832 480 832 q 338 803 376 832 q 277 725 301 774 q 242 614 253 676 q 231 486 231 552 q 242 355 231 417 q 277 244 253 293 q 338 168 301 196 q 428 140 376 140 m 336 1063 l 533 1279 l 740 1279 l 493 1063 l 336 1063 z "},"Ŏ":{"ha":856,"x_min":60,"x_max":797,"o":"m 428 -17 q 260 25 330 -17 q 146 137 190 66 q 81 298 101 208 q 60 486 60 388 q 81 674 60 584 q 146 835 101 765 q 260 948 190 906 q 428 989 330 989 q 596 948 526 989 q 710 835 666 906 q 776 674 755 765 q 797 486 797 584 q 776 298 797 388 q 710 137 755 208 q 596 25 666 66 q 428 -17 526 -17 m 428 140 q 517 169 479 140 q 578 248 554 199 q 614 359 602 297 q 625 486 625 421 q 614 618 625 556 q 578 728 602 680 q 517 804 555 776 q 428 832 480 832 q 338 803 376 832 q 277 725 301 774 q 242 614 253 676 q 231 486 231 552 q 242 355 231 417 q 277 244 253 293 q 338 168 301 196 q 428 140 376 140 m 428 1060 q 280 1092 338 1060 q 195 1177 223 1124 q 168 1293 168 1231 l 296 1293 q 329 1213 296 1247 q 428 1179 363 1179 q 527 1213 494 1179 q 561 1293 561 1247 l 689 1293 q 661 1177 689 1231 q 576 1092 633 1124 q 428 1060 518 1060 z "},"Ǒ":{"ha":856,"x_min":60,"x_max":797,"o":"m 428 -17 q 260 25 330 -17 q 146 137 190 66 q 81 298 101 208 q 60 486 60 388 q 81 674 60 584 q 146 835 101 765 q 260 948 190 906 q 428 989 330 989 q 596 948 526 989 q 710 835 666 906 q 776 674 755 765 q 797 486 797 584 q 776 298 797 388 q 710 137 755 208 q 596 25 666 66 q 428 -17 526 -17 m 428 140 q 517 169 479 140 q 578 248 554 199 q 614 359 602 297 q 625 486 625 421 q 614 618 625 556 q 578 728 602 680 q 517 804 555 776 q 428 832 480 832 q 338 803 376 832 q 277 725 301 774 q 242 614 253 676 q 231 486 231 552 q 242 355 231 417 q 277 244 253 293 q 338 168 301 196 q 428 140 376 140 m 349 1063 l 153 1279 l 300 1279 l 428 1172 l 556 1279 l 703 1279 l 507 1063 l 349 1063 z "},"Ô":{"ha":856,"x_min":60,"x_max":797,"o":"m 428 -17 q 260 25 330 -17 q 146 137 190 66 q 81 298 101 208 q 60 486 60 388 q 81 674 60 584 q 146 835 101 765 q 260 948 190 906 q 428 989 330 989 q 596 948 526 989 q 710 835 666 906 q 776 674 755 765 q 797 486 797 584 q 776 298 797 388 q 710 137 755 208 q 596 25 666 66 q 428 -17 526 -17 m 428 140 q 517 169 479 140 q 578 248 554 199 q 614 359 602 297 q 625 486 625 421 q 614 618 625 556 q 578 728 602 680 q 517 804 555 776 q 428 832 480 832 q 338 803 376 832 q 277 725 301 774 q 242 614 253 676 q 231 486 231 552 q 242 355 231 417 q 277 244 253 293 q 338 168 301 196 q 428 140 376 140 m 151 1063 l 349 1279 l 506 1279 l 701 1063 l 554 1063 l 426 1169 l 299 1063 l 151 1063 z "},"Ố":{"ha":856,"x_min":60,"x_max":797,"o":"m 428 -17 q 260 25 330 -17 q 146 137 190 66 q 81 298 101 208 q 60 486 60 388 q 81 674 60 584 q 146 835 101 765 q 260 948 190 906 q 428 989 330 989 q 596 948 526 989 q 710 835 666 906 q 776 674 755 765 q 797 486 797 584 q 776 298 797 388 q 710 137 755 208 q 596 25 666 66 q 428 -17 526 -17 m 428 140 q 517 169 479 140 q 578 248 554 199 q 614 359 602 297 q 625 486 625 421 q 614 618 625 556 q 578 728 602 680 q 517 804 555 776 q 428 832 480 832 q 338 803 376 832 q 277 725 301 774 q 242 614 253 676 q 231 486 231 552 q 242 355 231 417 q 277 244 253 293 q 338 168 301 196 q 428 140 376 140 m 151 1063 l 349 1279 l 506 1279 l 701 1063 l 554 1063 l 426 1169 l 299 1063 l 151 1063 m 336 1369 l 533 1586 l 740 1586 l 493 1369 l 336 1369 z "},"Ộ":{"ha":856,"x_min":60,"x_max":797,"o":"m 428 -17 q 260 25 330 -17 q 146 137 190 66 q 81 298 101 208 q 60 486 60 388 q 81 674 60 584 q 146 835 101 765 q 260 948 190 906 q 428 989 330 989 q 596 948 526 989 q 710 835 666 906 q 776 674 755 765 q 797 486 797 584 q 776 298 797 388 q 710 137 755 208 q 596 25 666 66 q 428 -17 526 -17 m 428 140 q 517 169 479 140 q 578 248 554 199 q 614 359 602 297 q 625 486 625 421 q 614 618 625 556 q 578 728 602 680 q 517 804 555 776 q 428 832 480 832 q 338 803 376 832 q 277 725 301 774 q 242 614 253 676 q 231 486 231 552 q 242 355 231 417 q 277 244 253 293 q 338 168 301 196 q 428 140 376 140 m 428 -300 q 355 -270 384 -300 q 326 -199 326 -241 q 355 -126 326 -155 q 428 -97 384 -97 q 500 -126 471 -97 q 529 -199 529 -155 q 500 -270 529 -241 q 428 -300 471 -300 m 151 1063 l 349 1279 l 506 1279 l 701 1063 l 554 1063 l 426 1169 l 299 1063 l 151 1063 z "},"Ồ":{"ha":856,"x_min":60,"x_max":819,"o":"m 428 -17 q 260 25 330 -17 q 146 137 190 66 q 81 298 101 208 q 60 486 60 388 q 81 674 60 584 q 146 835 101 765 q 260 948 190 906 q 428 989 330 989 q 596 948 526 989 q 710 835 666 906 q 776 674 755 765 q 797 486 797 584 q 776 298 797 388 q 710 137 755 208 q 596 25 666 66 q 428 -17 526 -17 m 428 140 q 517 169 479 140 q 578 248 554 199 q 614 359 602 297 q 625 486 625 421 q 614 618 625 556 q 578 728 602 680 q 517 804 555 776 q 428 832 480 832 q 338 803 376 832 q 277 725 301 774 q 242 614 253 676 q 231 486 231 552 q 242 355 231 417 q 277 244 253 293 q 338 168 301 196 q 428 140 376 140 m 151 1063 l 349 1279 l 506 1279 l 701 1063 l 554 1063 l 426 1169 l 299 1063 l 151 1063 m 664 1257 l 417 1474 l 622 1474 l 819 1257 l 664 1257 z "},"Ổ":{"ha":856,"x_min":60,"x_max":797,"o":"m 428 -17 q 260 25 330 -17 q 146 137 190 66 q 81 298 101 208 q 60 486 60 388 q 81 674 60 584 q 146 835 101 765 q 260 948 190 906 q 428 989 330 989 q 596 948 526 989 q 710 835 666 906 q 776 674 755 765 q 797 486 797 584 q 776 298 797 388 q 710 137 755 208 q 596 25 666 66 q 428 -17 526 -17 m 428 140 q 517 169 479 140 q 578 248 554 199 q 614 359 602 297 q 625 486 625 421 q 614 618 625 556 q 578 728 602 680 q 517 804 555 776 q 428 832 480 832 q 338 803 376 832 q 277 725 301 774 q 242 614 253 676 q 231 486 231 552 q 242 355 231 417 q 277 244 253 293 q 338 168 301 196 q 428 140 376 140 m 151 1063 l 349 1279 l 506 1279 l 701 1063 l 554 1063 l 426 1169 l 299 1063 l 151 1063 m 368 1333 q 379 1395 368 1368 q 418 1444 390 1422 q 438 1464 433 1456 q 443 1478 443 1471 q 439 1489 443 1484 q 426 1493 434 1493 q 376 1454 401 1493 l 297 1504 q 347 1573 310 1545 q 432 1600 384 1600 q 522 1568 486 1600 q 557 1485 557 1536 q 543 1425 557 1445 q 514 1389 530 1405 q 492 1364 501 1376 q 482 1333 482 1351 l 368 1333 z "},"Ỗ":{"ha":856,"x_min":60,"x_max":797,"o":"m 428 -17 q 260 25 330 -17 q 146 137 190 66 q 81 298 101 208 q 60 486 60 388 q 81 674 60 584 q 146 835 101 765 q 260 948 190 906 q 428 989 330 989 q 596 948 526 989 q 710 835 666 906 q 776 674 755 765 q 797 486 797 584 q 776 298 797 388 q 710 137 755 208 q 596 25 666 66 q 428 -17 526 -17 m 428 140 q 517 169 479 140 q 578 248 554 199 q 614 359 602 297 q 625 486 625 421 q 614 618 625 556 q 578 728 602 680 q 517 804 555 776 q 428 832 480 832 q 338 803 376 832 q 277 725 301 774 q 242 614 253 676 q 231 486 231 552 q 242 355 231 417 q 277 244 253 293 q 338 168 301 196 q 428 140 376 140 m 151 1063 l 349 1279 l 506 1279 l 701 1063 l 554 1063 l 426 1169 l 299 1063 l 151 1063 m 538 1358 q 466 1370 498 1358 q 404 1394 433 1381 q 356 1415 379 1406 q 308 1424 333 1424 q 264 1410 283 1424 q 243 1364 244 1397 l 167 1364 q 201 1495 167 1444 q 318 1546 235 1546 q 390 1535 358 1546 q 451 1510 423 1524 q 499 1490 475 1499 q 547 1481 522 1481 q 593 1494 574 1481 q 613 1540 612 1508 l 689 1540 q 655 1409 689 1460 q 538 1358 621 1358 z "},"Ȍ":{"ha":856,"x_min":-46,"x_max":797,"o":"m 428 -17 q 260 25 330 -17 q 146 137 190 66 q 81 298 101 208 q 60 486 60 388 q 81 674 60 584 q 146 835 101 765 q 260 948 190 906 q 428 989 330 989 q 596 948 526 989 q 710 835 666 906 q 776 674 755 765 q 797 486 797 584 q 776 298 797 388 q 710 137 755 208 q 596 25 666 66 q 428 -17 526 -17 m 428 140 q 517 169 479 140 q 578 248 554 199 q 614 359 602 297 q 625 486 625 421 q 614 618 625 556 q 578 728 602 680 q 517 804 555 776 q 428 832 480 832 q 338 803 376 832 q 277 725 301 774 q 242 614 253 676 q 231 486 231 552 q 242 355 231 417 q 277 244 253 293 q 338 168 301 196 q 428 140 376 140 m 507 1063 l 260 1279 l 485 1279 l 682 1063 l 507 1063 m 201 1063 l -46 1279 l 179 1279 l 376 1063 l 201 1063 z "},"Ö":{"ha":856,"x_min":60,"x_max":797,"o":"m 428 -17 q 260 25 330 -17 q 146 137 190 66 q 81 298 101 208 q 60 486 60 388 q 81 674 60 584 q 146 835 101 765 q 260 948 190 906 q 428 989 330 989 q 596 948 526 989 q 710 835 666 906 q 776 674 755 765 q 797 486 797 584 q 776 298 797 388 q 710 137 755 208 q 596 25 666 66 q 428 -17 526 -17 m 428 140 q 517 169 479 140 q 578 248 554 199 q 614 359 602 297 q 625 486 625 421 q 614 618 625 556 q 578 728 602 680 q 517 804 555 776 q 428 832 480 832 q 338 803 376 832 q 277 725 301 774 q 242 614 253 676 q 231 486 231 552 q 242 355 231 417 q 277 244 253 293 q 338 168 301 196 q 428 140 376 140 m 300 1079 q 234 1106 260 1079 q 208 1172 208 1133 q 234 1238 208 1211 q 300 1264 260 1264 q 366 1238 340 1264 q 393 1172 393 1211 q 366 1106 393 1133 q 300 1079 340 1079 m 556 1079 q 490 1106 516 1079 q 464 1172 464 1133 q 490 1238 464 1211 q 556 1264 516 1264 q 622 1238 595 1264 q 649 1172 649 1211 q 622 1106 649 1133 q 556 1079 595 1079 z "},"Ȫ":{"ha":856,"x_min":60,"x_max":797,"o":"m 428 -17 q 260 25 330 -17 q 146 137 190 66 q 81 298 101 208 q 60 486 60 388 q 81 674 60 584 q 146 835 101 765 q 260 948 190 906 q 428 989 330 989 q 596 948 526 989 q 710 835 666 906 q 776 674 755 765 q 797 486 797 584 q 776 298 797 388 q 710 137 755 208 q 596 25 666 66 q 428 -17 526 -17 m 428 140 q 517 169 479 140 q 578 248 554 199 q 614 359 602 297 q 625 486 625 421 q 614 618 625 556 q 578 728 602 680 q 517 804 555 776 q 428 832 480 832 q 338 803 376 832 q 277 725 301 774 q 242 614 253 676 q 231 486 231 552 q 242 355 231 417 q 277 244 253 293 q 338 168 301 196 q 428 140 376 140 m 300 1079 q 234 1106 260 1079 q 208 1172 208 1133 q 234 1238 208 1211 q 300 1264 260 1264 q 366 1238 340 1264 q 393 1172 393 1211 q 366 1106 393 1133 q 300 1079 340 1079 m 556 1079 q 490 1106 516 1079 q 464 1172 464 1133 q 490 1238 464 1211 q 556 1264 516 1264 q 622 1238 595 1264 q 649 1172 649 1211 q 622 1106 649 1133 q 556 1079 595 1079 m 199 1378 l 199 1508 l 657 1508 l 657 1378 l 199 1378 z "},"Ȯ":{"ha":856,"x_min":60,"x_max":797,"o":"m 428 -17 q 260 25 330 -17 q 146 137 190 66 q 81 298 101 208 q 60 486 60 388 q 81 674 60 584 q 146 835 101 765 q 260 948 190 906 q 428 989 330 989 q 596 948 526 989 q 710 835 666 906 q 776 674 755 765 q 797 486 797 584 q 776 298 797 388 q 710 137 755 208 q 596 25 666 66 q 428 -17 526 -17 m 428 140 q 517 169 479 140 q 578 248 554 199 q 614 359 602 297 q 625 486 625 421 q 614 618 625 556 q 578 728 602 680 q 517 804 555 776 q 428 832 480 832 q 338 803 376 832 q 277 725 301 774 q 242 614 253 676 q 231 486 231 552 q 242 355 231 417 q 277 244 253 293 q 338 168 301 196 q 428 140 376 140 m 428 1078 q 362 1105 388 1078 q 336 1171 336 1131 q 362 1236 336 1210 q 428 1263 388 1263 q 494 1236 467 1263 q 521 1171 521 1210 q 494 1105 521 1131 q 428 1078 467 1078 z "},"Ȱ":{"ha":856,"x_min":60,"x_max":797,"o":"m 428 -17 q 260 25 330 -17 q 146 137 190 66 q 81 298 101 208 q 60 486 60 388 q 81 674 60 584 q 146 835 101 765 q 260 948 190 906 q 428 989 330 989 q 596 948 526 989 q 710 835 666 906 q 776 674 755 765 q 797 486 797 584 q 776 298 797 388 q 710 137 755 208 q 596 25 666 66 q 428 -17 526 -17 m 428 140 q 517 169 479 140 q 578 248 554 199 q 614 359 602 297 q 625 486 625 421 q 614 618 625 556 q 578 728 602 680 q 517 804 555 776 q 428 832 480 832 q 338 803 376 832 q 277 725 301 774 q 242 614 253 676 q 231 486 231 552 q 242 355 231 417 q 277 244 253 293 q 338 168 301 196 q 428 140 376 140 m 428 1078 q 362 1105 388 1078 q 336 1171 336 1131 q 362 1236 336 1210 q 428 1263 388 1263 q 494 1236 467 1263 q 521 1171 521 1210 q 494 1105 521 1131 q 428 1078 467 1078 m 199 1376 l 199 1507 l 657 1507 l 657 1376 l 199 1376 z "},"Ọ":{"ha":856,"x_min":60,"x_max":797,"o":"m 428 -17 q 260 25 330 -17 q 146 137 190 66 q 81 298 101 208 q 60 486 60 388 q 81 674 60 584 q 146 835 101 765 q 260 948 190 906 q 428 989 330 989 q 596 948 526 989 q 710 835 666 906 q 776 674 755 765 q 797 486 797 584 q 776 298 797 388 q 710 137 755 208 q 596 25 666 66 q 428 -17 526 -17 m 428 140 q 517 169 479 140 q 578 248 554 199 q 614 359 602 297 q 625 486 625 421 q 614 618 625 556 q 578 728 602 680 q 517 804 555 776 q 428 832 480 832 q 338 803 376 832 q 277 725 301 774 q 242 614 253 676 q 231 486 231 552 q 242 355 231 417 q 277 244 253 293 q 338 168 301 196 q 428 140 376 140 m 428 -300 q 355 -270 384 -300 q 326 -199 326 -241 q 355 -126 326 -155 q 428 -97 384 -97 q 500 -126 471 -97 q 529 -199 529 -155 q 500 -270 529 -241 q 428 -300 471 -300 z "},"Ò":{"ha":856,"x_min":60,"x_max":797,"o":"m 428 -17 q 260 25 330 -17 q 146 137 190 66 q 81 298 101 208 q 60 486 60 388 q 81 674 60 584 q 146 835 101 765 q 260 948 190 906 q 428 989 330 989 q 596 948 526 989 q 710 835 666 906 q 776 674 755 765 q 797 486 797 584 q 776 298 797 388 q 710 137 755 208 q 596 25 666 66 q 428 -17 526 -17 m 428 140 q 517 169 479 140 q 578 248 554 199 q 614 359 602 297 q 625 486 625 421 q 614 618 625 556 q 578 728 602 680 q 517 804 555 776 q 428 832 480 832 q 338 803 376 832 q 277 725 301 774 q 242 614 253 676 q 231 486 231 552 q 242 355 231 417 q 277 244 253 293 q 338 168 301 196 q 428 140 376 140 m 376 1063 l 129 1279 l 335 1279 l 532 1063 l 376 1063 z "},"Ỏ":{"ha":856,"x_min":60,"x_max":797,"o":"m 428 -17 q 260 25 330 -17 q 146 137 190 66 q 81 298 101 208 q 60 486 60 388 q 81 674 60 584 q 146 835 101 765 q 260 948 190 906 q 428 989 330 989 q 596 948 526 989 q 710 835 666 906 q 776 674 755 765 q 797 486 797 584 q 776 298 797 388 q 710 137 755 208 q 596 25 666 66 q 428 -17 526 -17 m 428 140 q 517 169 479 140 q 578 248 554 199 q 614 359 602 297 q 625 486 625 421 q 614 618 625 556 q 578 728 602 680 q 517 804 555 776 q 428 832 480 832 q 338 803 376 832 q 277 725 301 774 q 242 614 253 676 q 231 486 231 552 q 242 355 231 417 q 277 244 253 293 q 338 168 301 196 q 428 140 376 140 m 368 1026 q 379 1088 368 1061 q 418 1138 390 1115 q 438 1157 433 1149 q 443 1171 443 1164 q 439 1182 443 1177 q 426 1186 434 1186 q 376 1147 401 1186 l 297 1197 q 347 1266 310 1238 q 432 1293 384 1293 q 522 1261 486 1293 q 557 1178 557 1229 q 543 1118 557 1138 q 514 1082 530 1098 q 492 1057 501 1069 q 482 1026 482 1044 l 368 1026 z "},"Ơ":{"ha":856,"x_min":21,"x_max":856,"o":"m 339 -17 q 192 24 253 -17 q 94 134 132 64 q 39 295 56 204 q 21 486 21 385 q 39 677 21 587 q 94 838 56 768 q 192 949 132 908 q 339 989 253 989 q 485 949 425 989 q 584 838 546 908 q 639 677 622 768 q 657 486 657 587 q 639 295 657 385 q 584 134 622 204 q 485 24 546 64 q 339 -17 425 -17 m 339 140 q 407 168 378 140 q 452 245 435 197 q 478 357 469 294 q 486 486 486 419 q 478 619 486 557 q 454 730 471 682 q 408 805 437 778 q 339 832 380 832 q 269 804 298 832 q 224 727 241 776 q 199 616 207 678 q 192 486 192 554 q 199 353 192 416 q 224 243 207 291 q 269 168 241 195 q 339 140 298 140 m 533 510 l 533 639 q 654 685 618 653 q 690 781 690 717 l 690 972 l 856 972 l 856 825 q 843 706 856 764 q 789 603 831 649 q 680 531 741 550 q 533 510 618 512 z "},"Ớ":{"ha":856,"x_min":21,"x_max":856,"o":"m 339 -17 q 192 24 253 -17 q 94 134 132 64 q 39 295 56 204 q 21 486 21 385 q 39 677 21 587 q 94 838 56 768 q 192 949 132 908 q 339 989 253 989 q 485 949 425 989 q 584 838 546 908 q 639 677 622 768 q 657 486 657 587 q 639 295 657 385 q 584 134 622 204 q 485 24 546 64 q 339 -17 425 -17 m 339 140 q 407 168 378 140 q 452 245 435 197 q 478 357 469 294 q 486 486 486 419 q 478 619 486 557 q 454 730 471 682 q 408 805 437 778 q 339 832 380 832 q 269 804 298 832 q 224 727 241 776 q 199 616 207 678 q 192 486 192 554 q 199 353 192 416 q 224 243 207 291 q 269 168 241 195 q 339 140 298 140 m 533 510 l 533 639 q 654 685 618 653 q 690 781 690 717 l 690 972 l 856 972 l 856 825 q 843 706 856 764 q 789 603 831 649 q 680 531 741 550 q 533 510 618 512 m 247 1063 l 444 1279 l 651 1279 l 404 1063 l 247 1063 z "},"Ợ":{"ha":856,"x_min":21,"x_max":856,"o":"m 339 -17 q 192 24 253 -17 q 94 134 132 64 q 39 295 56 204 q 21 486 21 385 q 39 677 21 587 q 94 838 56 768 q 192 949 132 908 q 339 989 253 989 q 485 949 425 989 q 584 838 546 908 q 639 677 622 768 q 657 486 657 587 q 639 295 657 385 q 584 134 622 204 q 485 24 546 64 q 339 -17 425 -17 m 339 140 q 407 168 378 140 q 452 245 435 197 q 478 357 469 294 q 486 486 486 419 q 478 619 486 557 q 454 730 471 682 q 408 805 437 778 q 339 832 380 832 q 269 804 298 832 q 224 727 241 776 q 199 616 207 678 q 192 486 192 554 q 199 353 192 416 q 224 243 207 291 q 269 168 241 195 q 339 140 298 140 m 533 510 l 533 639 q 654 685 618 653 q 690 781 690 717 l 690 972 l 856 972 l 856 825 q 843 706 856 764 q 789 603 831 649 q 680 531 741 550 q 533 510 618 512 m 339 -300 q 266 -270 295 -300 q 238 -199 238 -241 q 266 -126 238 -155 q 339 -97 295 -97 q 411 -126 382 -97 q 440 -199 440 -155 q 411 -270 440 -241 q 339 -300 382 -300 z "},"Ờ":{"ha":856,"x_min":21,"x_max":856,"o":"m 339 -17 q 192 24 253 -17 q 94 134 132 64 q 39 295 56 204 q 21 486 21 385 q 39 677 21 587 q 94 838 56 768 q 192 949 132 908 q 339 989 253 989 q 485 949 425 989 q 584 838 546 908 q 639 677 622 768 q 657 486 657 587 q 639 295 657 385 q 584 134 622 204 q 485 24 546 64 q 339 -17 425 -17 m 339 140 q 407 168 378 140 q 452 245 435 197 q 478 357 469 294 q 486 486 486 419 q 478 619 486 557 q 454 730 471 682 q 408 805 437 778 q 339 832 380 832 q 269 804 298 832 q 224 727 241 776 q 199 616 207 678 q 192 486 192 554 q 199 353 192 416 q 224 243 207 291 q 269 168 241 195 q 339 140 298 140 m 533 510 l 533 639 q 654 685 618 653 q 690 781 690 717 l 690 972 l 856 972 l 856 825 q 843 706 856 764 q 789 603 831 649 q 680 531 741 550 q 533 510 618 512 m 288 1063 l 40 1279 l 246 1279 l 443 1063 l 288 1063 z "},"Ở":{"ha":856,"x_min":21,"x_max":856,"o":"m 339 -17 q 192 24 253 -17 q 94 134 132 64 q 39 295 56 204 q 21 486 21 385 q 39 677 21 587 q 94 838 56 768 q 192 949 132 908 q 339 989 253 989 q 485 949 425 989 q 584 838 546 908 q 639 677 622 768 q 657 486 657 587 q 639 295 657 385 q 584 134 622 204 q 485 24 546 64 q 339 -17 425 -17 m 339 140 q 407 168 378 140 q 452 245 435 197 q 478 357 469 294 q 486 486 486 419 q 478 619 486 557 q 454 730 471 682 q 408 805 437 778 q 339 832 380 832 q 269 804 298 832 q 224 727 241 776 q 199 616 207 678 q 192 486 192 554 q 199 353 192 416 q 224 243 207 291 q 269 168 241 195 q 339 140 298 140 m 533 510 l 533 639 q 654 685 618 653 q 690 781 690 717 l 690 972 l 856 972 l 856 825 q 843 706 856 764 q 789 603 831 649 q 680 531 741 550 q 533 510 618 512 m 279 1026 q 290 1088 279 1061 q 329 1138 301 1115 q 349 1157 344 1149 q 354 1171 354 1164 q 350 1182 354 1177 q 338 1186 345 1186 q 288 1147 313 1186 l 208 1197 q 258 1266 221 1238 q 343 1293 295 1293 q 433 1261 397 1293 q 468 1178 468 1229 q 455 1118 468 1138 q 425 1082 441 1098 q 403 1057 413 1069 q 393 1026 393 1044 l 279 1026 z "},"Ỡ":{"ha":856,"x_min":21,"x_max":856,"o":"m 339 -17 q 192 24 253 -17 q 94 134 132 64 q 39 295 56 204 q 21 486 21 385 q 39 677 21 587 q 94 838 56 768 q 192 949 132 908 q 339 989 253 989 q 485 949 425 989 q 584 838 546 908 q 639 677 622 768 q 657 486 657 587 q 639 295 657 385 q 584 134 622 204 q 485 24 546 64 q 339 -17 425 -17 m 339 140 q 407 168 378 140 q 452 245 435 197 q 478 357 469 294 q 486 486 486 419 q 478 619 486 557 q 454 730 471 682 q 408 805 437 778 q 339 832 380 832 q 269 804 298 832 q 224 727 241 776 q 199 616 207 678 q 192 486 192 554 q 199 353 192 416 q 224 243 207 291 q 269 168 241 195 q 339 140 298 140 m 533 510 l 533 639 q 654 685 618 653 q 690 781 690 717 l 690 972 l 856 972 l 856 825 q 843 706 856 764 q 789 603 831 649 q 680 531 741 550 q 533 510 618 512 m 449 1079 q 377 1091 409 1079 q 315 1115 344 1102 q 267 1136 290 1127 q 219 1144 244 1144 q 175 1131 194 1144 q 154 1085 156 1117 l 78 1085 q 112 1216 78 1165 q 229 1267 146 1267 q 301 1256 269 1267 q 363 1231 334 1244 q 410 1210 386 1219 q 458 1201 433 1201 q 504 1215 485 1201 q 524 1261 523 1229 l 600 1261 q 566 1130 600 1181 q 449 1079 532 1079 z "},"Ő":{"ha":856,"x_min":60,"x_max":863,"o":"m 428 -17 q 260 25 330 -17 q 146 137 190 66 q 81 298 101 208 q 60 486 60 388 q 81 674 60 584 q 146 835 101 765 q 260 948 190 906 q 428 989 330 989 q 596 948 526 989 q 710 835 666 906 q 776 674 755 765 q 797 486 797 584 q 776 298 797 388 q 710 137 755 208 q 596 25 666 66 q 428 -17 526 -17 m 428 140 q 517 169 479 140 q 578 248 554 199 q 614 359 602 297 q 625 486 625 421 q 614 618 625 556 q 578 728 602 680 q 517 804 555 776 q 428 832 480 832 q 338 803 376 832 q 277 725 301 774 q 242 614 253 676 q 231 486 231 552 q 242 355 231 417 q 277 244 253 293 q 338 168 301 196 q 428 140 376 140 m 460 1063 l 657 1279 l 863 1279 l 615 1063 l 460 1063 m 163 1063 l 360 1279 l 565 1279 l 318 1063 l 163 1063 z "},"Ȏ":{"ha":856,"x_min":60,"x_max":797,"o":"m 428 -17 q 260 25 330 -17 q 146 137 190 66 q 81 298 101 208 q 60 486 60 388 q 81 674 60 584 q 146 835 101 765 q 260 948 190 906 q 428 989 330 989 q 596 948 526 989 q 710 835 666 906 q 776 674 755 765 q 797 486 797 584 q 776 298 797 388 q 710 137 755 208 q 596 25 666 66 q 428 -17 526 -17 m 428 140 q 517 169 479 140 q 578 248 554 199 q 614 359 602 297 q 625 486 625 421 q 614 618 625 556 q 578 728 602 680 q 517 804 555 776 q 428 832 480 832 q 338 803 376 832 q 277 725 301 774 q 242 614 253 676 q 231 486 231 552 q 242 355 231 417 q 277 244 253 293 q 338 168 301 196 q 428 140 376 140 m 164 1057 q 192 1174 164 1120 q 280 1260 221 1228 q 429 1293 338 1293 q 579 1260 521 1293 q 665 1173 638 1227 q 693 1057 693 1119 l 554 1057 q 525 1129 554 1096 q 429 1163 496 1163 q 333 1129 364 1163 q 303 1057 303 1096 l 164 1057 z "},"Ō":{"ha":856,"x_min":60,"x_max":797,"o":"m 428 -17 q 260 25 330 -17 q 146 137 190 66 q 81 298 101 208 q 60 486 60 388 q 81 674 60 584 q 146 835 101 765 q 260 948 190 906 q 428 989 330 989 q 596 948 526 989 q 710 835 666 906 q 776 674 755 765 q 797 486 797 584 q 776 298 797 388 q 710 137 755 208 q 596 25 666 66 q 428 -17 526 -17 m 428 140 q 517 169 479 140 q 578 248 554 199 q 614 359 602 297 q 625 486 625 421 q 614 618 625 556 q 578 728 602 680 q 517 804 555 776 q 428 832 480 832 q 338 803 376 832 q 277 725 301 774 q 242 614 253 676 q 231 486 231 552 q 242 355 231 417 q 277 244 253 293 q 338 168 301 196 q 428 140 376 140 m 199 1086 l 199 1217 l 657 1217 l 657 1086 l 199 1086 z "},"Ṓ":{"ha":856,"x_min":60,"x_max":797,"o":"m 428 -17 q 260 25 330 -17 q 146 137 190 66 q 81 298 101 208 q 60 486 60 388 q 81 674 60 584 q 146 835 101 765 q 260 948 190 906 q 428 989 330 989 q 596 948 526 989 q 710 835 666 906 q 776 674 755 765 q 797 486 797 584 q 776 298 797 388 q 710 137 755 208 q 596 25 666 66 q 428 -17 526 -17 m 428 140 q 517 169 479 140 q 578 248 554 199 q 614 359 602 297 q 625 486 625 421 q 614 618 625 556 q 578 728 602 680 q 517 804 555 776 q 428 832 480 832 q 338 803 376 832 q 277 725 301 774 q 242 614 253 676 q 231 486 231 552 q 242 355 231 417 q 277 244 253 293 q 338 168 301 196 q 428 140 376 140 m 199 1086 l 199 1217 l 657 1217 l 657 1086 l 199 1086 m 336 1307 l 533 1524 l 740 1524 l 493 1307 l 336 1307 z "},"Ṑ":{"ha":856,"x_min":60,"x_max":797,"o":"m 428 -17 q 260 25 330 -17 q 146 137 190 66 q 81 298 101 208 q 60 486 60 388 q 81 674 60 584 q 146 835 101 765 q 260 948 190 906 q 428 989 330 989 q 596 948 526 989 q 710 835 666 906 q 776 674 755 765 q 797 486 797 584 q 776 298 797 388 q 710 137 755 208 q 596 25 666 66 q 428 -17 526 -17 m 428 140 q 517 169 479 140 q 578 248 554 199 q 614 359 602 297 q 625 486 625 421 q 614 618 625 556 q 578 728 602 680 q 517 804 555 776 q 428 832 480 832 q 338 803 376 832 q 277 725 301 774 q 242 614 253 676 q 231 486 231 552 q 242 355 231 417 q 277 244 253 293 q 338 168 301 196 q 428 140 376 140 m 199 1086 l 199 1217 l 657 1217 l 657 1086 l 199 1086 m 376 1307 l 129 1524 l 335 1524 l 532 1307 l 376 1307 z "},"Ǫ":{"ha":856,"x_min":60,"x_max":797,"o":"m 428 -17 q 260 25 330 -17 q 146 137 190 66 q 81 298 101 208 q 60 486 60 388 q 81 674 60 584 q 146 835 101 765 q 260 948 190 906 q 428 989 330 989 q 596 948 526 989 q 710 835 666 906 q 776 674 755 765 q 797 486 797 584 q 776 298 797 388 q 710 137 755 208 q 596 25 666 66 q 428 -17 526 -17 m 428 140 q 517 169 479 140 q 578 248 554 199 q 614 359 602 297 q 625 486 625 421 q 614 618 625 556 q 578 728 602 680 q 517 804 555 776 q 428 832 480 832 q 338 803 376 832 q 277 725 301 774 q 242 614 253 676 q 231 486 231 552 q 242 355 231 417 q 277 244 253 293 q 338 168 301 196 q 428 140 376 140 m 407 -350 q 286 -310 333 -350 q 239 -203 239 -270 q 290 -81 239 -133 q 429 0 341 -29 l 543 0 q 410 -91 449 -38 q 371 -189 371 -143 q 389 -239 371 -223 q 429 -254 406 -254 q 465 -246 450 -254 q 489 -226 480 -237 l 565 -281 q 508 -327 546 -303 q 407 -350 469 -350 z "},"Ǭ":{"ha":856,"x_min":60,"x_max":797,"o":"m 428 -17 q 260 25 330 -17 q 146 137 190 66 q 81 298 101 208 q 60 486 60 388 q 81 674 60 584 q 146 835 101 765 q 260 948 190 906 q 428 989 330 989 q 596 948 526 989 q 710 835 666 906 q 776 674 755 765 q 797 486 797 584 q 776 298 797 388 q 710 137 755 208 q 596 25 666 66 q 428 -17 526 -17 m 428 140 q 517 169 479 140 q 578 248 554 199 q 614 359 602 297 q 625 486 625 421 q 614 618 625 556 q 578 728 602 680 q 517 804 555 776 q 428 832 480 832 q 338 803 376 832 q 277 725 301 774 q 242 614 253 676 q 231 486 231 552 q 242 355 231 417 q 277 244 253 293 q 338 168 301 196 q 428 140 376 140 m 407 -350 q 286 -310 333 -350 q 239 -203 239 -270 q 290 -81 239 -133 q 429 0 341 -29 l 543 0 q 410 -91 449 -38 q 371 -189 371 -143 q 389 -239 371 -223 q 429 -254 406 -254 q 465 -246 450 -254 q 489 -226 480 -237 l 565 -281 q 508 -327 546 -303 q 407 -350 469 -350 m 199 1086 l 199 1217 l 657 1217 l 657 1086 l 199 1086 z "},"Ɔ":{"ha":856,"x_min":106,"x_max":796,"o":"m 411 -15 q 274 14 333 -15 q 174 94 215 43 q 106 210 132 145 l 256 267 q 318 177 282 212 q 411 142 355 142 q 507 172 467 142 q 573 252 547 202 q 612 363 599 302 q 625 486 625 424 q 614 605 625 544 q 577 717 603 665 q 511 799 552 768 q 411 831 471 831 q 320 799 355 831 q 257 714 285 768 l 110 785 q 169 882 130 835 q 269 958 209 928 q 411 988 329 988 q 589 943 515 988 q 708 824 662 898 q 775 662 753 751 q 796 486 796 574 q 775 306 796 395 q 709 144 754 217 q 590 28 664 72 q 411 -15 517 -15 z "},"Ø":{"ha":856,"x_min":10,"x_max":846,"o":"m 169 -17 l 10 -17 l 686 989 l 846 989 l 169 -17 m 428 -17 q 260 25 330 -17 q 146 137 190 66 q 81 298 101 208 q 60 486 60 388 q 81 674 60 584 q 146 835 101 765 q 260 948 190 906 q 428 989 330 989 q 596 948 526 989 q 710 835 666 906 q 776 674 755 765 q 797 486 797 584 q 776 298 797 388 q 710 137 755 208 q 596 25 666 66 q 428 -17 526 -17 m 428 140 q 517 169 479 140 q 578 248 554 199 q 614 359 602 297 q 625 486 625 421 q 614 618 625 556 q 578 728 602 680 q 517 804 555 776 q 428 832 480 832 q 338 803 376 832 q 277 725 301 774 q 242 614 253 676 q 231 486 231 552 q 242 355 231 417 q 277 244 253 293 q 338 168 301 196 q 428 140 376 140 z "},"Ǿ":{"ha":856,"x_min":10,"x_max":846,"o":"m 169 -17 l 10 -17 l 686 989 l 846 989 l 169 -17 m 428 -17 q 260 25 330 -17 q 146 137 190 66 q 81 298 101 208 q 60 486 60 388 q 81 674 60 584 q 146 835 101 765 q 260 948 190 906 q 428 989 330 989 q 596 948 526 989 q 710 835 666 906 q 776 674 755 765 q 797 486 797 584 q 776 298 797 388 q 710 137 755 208 q 596 25 666 66 q 428 -17 526 -17 m 428 140 q 517 169 479 140 q 578 248 554 199 q 614 359 602 297 q 625 486 625 421 q 614 618 625 556 q 578 728 602 680 q 517 804 555 776 q 428 832 480 832 q 338 803 376 832 q 277 725 301 774 q 242 614 253 676 q 231 486 231 552 q 242 355 231 417 q 277 244 253 293 q 338 168 301 196 q 428 140 376 140 m 336 1063 l 533 1279 l 740 1279 l 493 1063 l 336 1063 z "},"Õ":{"ha":856,"x_min":60,"x_max":797,"o":"m 428 -17 q 260 25 330 -17 q 146 137 190 66 q 81 298 101 208 q 60 486 60 388 q 81 674 60 584 q 146 835 101 765 q 260 948 190 906 q 428 989 330 989 q 596 948 526 989 q 710 835 666 906 q 776 674 755 765 q 797 486 797 584 q 776 298 797 388 q 710 137 755 208 q 596 25 666 66 q 428 -17 526 -17 m 428 140 q 517 169 479 140 q 578 248 554 199 q 614 359 602 297 q 625 486 625 421 q 614 618 625 556 q 578 728 602 680 q 517 804 555 776 q 428 832 480 832 q 338 803 376 832 q 277 725 301 774 q 242 614 253 676 q 231 486 231 552 q 242 355 231 417 q 277 244 253 293 q 338 168 301 196 q 428 140 376 140 m 538 1079 q 466 1091 498 1079 q 404 1115 433 1102 q 356 1136 379 1127 q 308 1144 333 1144 q 264 1131 283 1144 q 243 1085 244 1117 l 167 1085 q 201 1216 167 1165 q 318 1267 235 1267 q 390 1256 358 1267 q 451 1231 423 1244 q 499 1210 475 1219 q 547 1201 522 1201 q 593 1215 574 1201 q 613 1261 612 1229 l 689 1261 q 655 1130 689 1181 q 538 1079 621 1079 z "},"Ṍ":{"ha":856,"x_min":60,"x_max":797,"o":"m 428 -17 q 260 25 330 -17 q 146 137 190 66 q 81 298 101 208 q 60 486 60 388 q 81 674 60 584 q 146 835 101 765 q 260 948 190 906 q 428 989 330 989 q 596 948 526 989 q 710 835 666 906 q 776 674 755 765 q 797 486 797 584 q 776 298 797 388 q 710 137 755 208 q 596 25 666 66 q 428 -17 526 -17 m 428 140 q 517 169 479 140 q 578 248 554 199 q 614 359 602 297 q 625 486 625 421 q 614 618 625 556 q 578 728 602 680 q 517 804 555 776 q 428 832 480 832 q 338 803 376 832 q 277 725 301 774 q 242 614 253 676 q 231 486 231 552 q 242 355 231 417 q 277 244 253 293 q 338 168 301 196 q 428 140 376 140 m 538 1079 q 466 1091 498 1079 q 404 1115 433 1102 q 356 1136 379 1127 q 308 1144 333 1144 q 264 1131 283 1144 q 243 1085 244 1117 l 167 1085 q 201 1216 167 1165 q 318 1267 235 1267 q 390 1256 358 1267 q 451 1231 423 1244 q 499 1210 475 1219 q 547 1201 522 1201 q 593 1215 574 1201 q 613 1261 612 1229 l 689 1261 q 655 1130 689 1181 q 538 1079 621 1079 m 336 1357 l 533 1574 l 740 1574 l 493 1357 l 336 1357 z "},"Ȭ":{"ha":856,"x_min":60,"x_max":797,"o":"m 428 -17 q 260 25 330 -17 q 146 137 190 66 q 81 298 101 208 q 60 486 60 388 q 81 674 60 584 q 146 835 101 765 q 260 948 190 906 q 428 989 330 989 q 596 948 526 989 q 710 835 666 906 q 776 674 755 765 q 797 486 797 584 q 776 298 797 388 q 710 137 755 208 q 596 25 666 66 q 428 -17 526 -17 m 428 140 q 517 169 479 140 q 578 248 554 199 q 614 359 602 297 q 625 486 625 421 q 614 618 625 556 q 578 728 602 680 q 517 804 555 776 q 428 832 480 832 q 338 803 376 832 q 277 725 301 774 q 242 614 253 676 q 231 486 231 552 q 242 355 231 417 q 277 244 253 293 q 338 168 301 196 q 428 140 376 140 m 538 1079 q 466 1091 498 1079 q 404 1115 433 1102 q 356 1136 379 1127 q 308 1144 333 1144 q 264 1131 283 1144 q 243 1085 244 1117 l 167 1085 q 201 1216 167 1165 q 318 1267 235 1267 q 390 1256 358 1267 q 451 1231 423 1244 q 499 1210 475 1219 q 547 1201 522 1201 q 593 1215 574 1201 q 613 1261 612 1229 l 689 1261 q 655 1130 689 1181 q 538 1079 621 1079 m 199 1381 l 199 1511 l 657 1511 l 657 1381 l 199 1381 z "},"Œ":{"ha":856,"x_min":28,"x_max":821,"o":"m 357 -17 q 207 25 269 -17 q 105 137 144 66 q 47 299 65 208 q 28 488 28 389 q 47 676 28 585 q 105 837 65 766 q 207 949 144 908 q 357 990 269 990 q 415 984 388 990 q 464 964 442 978 l 456 760 q 413 813 437 793 q 357 833 388 833 q 285 805 315 833 q 236 726 255 776 q 208 615 217 677 q 199 488 199 553 q 208 355 199 418 q 236 244 217 292 q 285 168 255 196 q 357 140 315 140 q 413 161 388 140 q 456 217 437 181 l 464 10 q 414 -10 440 -3 q 357 -17 388 -17 m 435 0 l 435 972 l 807 972 l 807 815 l 600 815 l 600 581 l 726 581 l 726 424 l 600 424 l 600 157 l 821 157 l 821 0 l 435 0 z "},"P":{"ha":856,"x_min":106,"x_max":774,"o":"m 106 0 l 106 972 l 449 972 q 641 928 569 972 q 743 814 712 883 q 774 671 774 745 q 756 566 774 619 q 699 468 738 513 q 598 397 660 424 q 449 369 536 369 l 271 369 l 271 0 l 106 0 m 271 525 l 457 525 q 544 547 511 525 q 591 602 576 569 q 606 671 606 636 q 592 736 606 702 q 547 793 579 769 q 457 817 515 817 l 271 817 l 271 525 z "},"Ƥ":{"ha":856,"x_min":7,"x_max":801,"o":"m 269 0 l 269 819 l 260 819 q 182 775 201 819 q 157 618 163 730 l 7 694 q 42 847 15 785 q 122 940 68 908 q 266 972 176 972 l 504 972 q 676 929 611 972 q 772 817 742 886 q 801 671 801 749 q 770 529 801 598 q 673 415 738 460 q 504 369 607 369 l 435 369 l 435 0 l 269 0 m 435 525 l 513 525 q 580 544 553 525 q 620 596 606 563 q 633 671 633 629 q 622 742 633 709 q 583 796 610 776 q 513 817 556 817 l 435 817 l 435 525 z "},"Þ":{"ha":856,"x_min":106,"x_max":774,"o":"m 106 0 l 106 972 l 271 972 l 271 796 l 450 796 q 642 751 571 796 q 743 638 713 707 q 774 494 774 569 q 756 389 774 442 q 699 292 738 336 q 599 220 661 247 q 450 193 538 193 l 271 193 l 271 0 l 106 0 m 271 349 l 457 349 q 544 370 511 349 q 591 426 576 392 q 606 494 606 460 q 592 560 606 526 q 547 617 579 594 q 457 640 515 640 l 271 640 l 271 349 z "},"Q":{"ha":856,"x_min":60,"x_max":797,"o":"m 610 -110 l 374 242 l 497 322 l 731 -29 l 610 -110 m 428 -17 q 260 25 330 -17 q 146 137 190 66 q 81 298 101 208 q 60 486 60 388 q 81 674 60 584 q 146 835 101 765 q 260 948 190 906 q 428 989 330 989 q 596 948 526 989 q 710 835 666 906 q 776 674 755 765 q 797 486 797 584 q 776 298 797 388 q 710 137 755 208 q 596 25 666 66 q 428 -17 526 -17 m 428 140 q 517 169 479 140 q 578 248 554 199 q 614 359 602 297 q 625 486 625 421 q 614 618 625 556 q 578 728 602 680 q 517 804 555 776 q 428 832 480 832 q 338 803 376 832 q 277 725 301 774 q 242 614 253 676 q 231 486 231 552 q 242 355 231 417 q 277 244 253 293 q 338 168 301 196 q 428 140 376 140 z "},"R":{"ha":856,"x_min":106,"x_max":760,"o":"m 106 0 l 106 972 l 442 972 q 631 931 562 972 q 730 822 701 889 q 760 678 760 754 q 742 573 760 624 q 688 480 724 522 q 597 413 651 439 q 469 381 542 386 l 271 381 l 271 0 l 106 0 m 575 0 l 376 400 l 553 418 l 758 0 l 575 0 m 271 536 l 444 536 q 532 556 500 536 q 577 608 564 576 q 590 676 590 640 q 578 741 590 709 q 534 795 565 774 q 444 817 502 817 l 271 817 l 271 536 z "},"Ŕ":{"ha":856,"x_min":106,"x_max":760,"o":"m 106 0 l 106 972 l 442 972 q 631 931 562 972 q 730 822 701 889 q 760 678 760 754 q 742 573 760 624 q 688 480 724 522 q 597 413 651 439 q 469 381 542 386 l 271 381 l 271 0 l 106 0 m 575 0 l 376 400 l 553 418 l 758 0 l 575 0 m 271 536 l 444 536 q 532 556 500 536 q 577 608 564 576 q 590 676 590 640 q 578 741 590 709 q 534 795 565 774 q 444 817 502 817 l 271 817 l 271 536 m 321 1063 l 518 1279 l 725 1279 l 478 1063 l 321 1063 z "},"Ř":{"ha":856,"x_min":106,"x_max":760,"o":"m 106 0 l 106 972 l 442 972 q 631 931 562 972 q 730 822 701 889 q 760 678 760 754 q 742 573 760 624 q 688 480 724 522 q 597 413 651 439 q 469 381 542 386 l 271 381 l 271 0 l 106 0 m 575 0 l 376 400 l 553 418 l 758 0 l 575 0 m 271 536 l 444 536 q 532 556 500 536 q 577 608 564 576 q 590 676 590 640 q 578 741 590 709 q 534 795 565 774 q 444 817 502 817 l 271 817 l 271 536 m 333 1063 l 138 1279 l 285 1279 l 413 1172 l 540 1279 l 688 1279 l 492 1063 l 333 1063 z "},"Ŗ":{"ha":856,"x_min":106,"x_max":760,"o":"m 106 0 l 106 972 l 442 972 q 631 931 562 972 q 730 822 701 889 q 760 678 760 754 q 742 573 760 624 q 688 480 724 522 q 597 413 651 439 q 469 381 542 386 l 271 381 l 271 0 l 106 0 m 575 0 l 376 400 l 553 418 l 758 0 l 575 0 m 271 536 l 444 536 q 532 556 500 536 q 577 608 564 576 q 590 676 590 640 q 578 741 590 709 q 534 795 565 774 q 444 817 502 817 l 271 817 l 271 536 m 386 -418 l 333 -382 q 370 -339 348 -369 q 401 -279 393 -309 q 354 -251 372 -273 q 336 -196 336 -229 q 363 -132 336 -156 q 424 -108 390 -108 q 486 -134 459 -108 q 513 -208 513 -160 q 475 -328 513 -271 q 386 -418 438 -385 z "},"Ȑ":{"ha":856,"x_min":-61,"x_max":760,"o":"m 106 0 l 106 972 l 442 972 q 631 931 562 972 q 730 822 701 889 q 760 678 760 754 q 742 573 760 624 q 688 480 724 522 q 597 413 651 439 q 469 381 542 386 l 271 381 l 271 0 l 106 0 m 575 0 l 376 400 l 553 418 l 758 0 l 575 0 m 271 536 l 444 536 q 532 556 500 536 q 577 608 564 576 q 590 676 590 640 q 578 741 590 709 q 534 795 565 774 q 444 817 502 817 l 271 817 l 271 536 m 492 1063 l 244 1279 l 469 1279 l 667 1063 l 492 1063 m 186 1063 l -61 1279 l 164 1279 l 361 1063 l 186 1063 z "},"Ȓ":{"ha":856,"x_min":106,"x_max":760,"o":"m 106 0 l 106 972 l 442 972 q 631 931 562 972 q 730 822 701 889 q 760 678 760 754 q 742 573 760 624 q 688 480 724 522 q 597 413 651 439 q 469 381 542 386 l 271 381 l 271 0 l 106 0 m 575 0 l 376 400 l 553 418 l 758 0 l 575 0 m 271 536 l 444 536 q 532 556 500 536 q 577 608 564 576 q 590 676 590 640 q 578 741 590 709 q 534 795 565 774 q 444 817 502 817 l 271 817 l 271 536 m 149 1057 q 177 1174 149 1120 q 264 1260 206 1228 q 414 1293 323 1293 q 564 1260 506 1293 q 650 1173 622 1227 q 678 1057 678 1119 l 539 1057 q 510 1129 539 1096 q 414 1163 481 1163 q 318 1129 349 1163 q 288 1057 288 1096 l 149 1057 z "},"Ɍ":{"ha":856,"x_min":7,"x_max":760,"o":"m 133 0 l 133 972 l 442 972 q 631 931 562 972 q 730 822 701 889 q 760 678 760 754 q 742 573 760 624 q 688 480 724 522 q 597 413 651 439 q 469 381 542 386 l 7 381 l 7 536 l 444 536 q 532 556 500 536 q 577 608 564 576 q 590 676 590 640 q 578 741 590 709 q 534 795 565 774 q 444 817 502 817 l 299 817 l 299 0 l 133 0 m 575 0 l 376 400 l 553 418 l 758 0 l 575 0 z "},"Ɽ":{"ha":856,"x_min":106,"x_max":760,"o":"m 318 -297 q 155 -199 203 -272 q 106 14 106 -126 l 106 972 l 442 972 q 631 931 562 972 q 730 822 701 889 q 760 678 760 754 q 738 563 760 618 q 672 464 716 507 q 563 399 628 421 l 758 0 l 575 0 l 386 381 l 271 381 l 271 9 q 294 -114 271 -71 q 393 -179 317 -156 l 318 -297 m 271 536 l 444 536 q 532 556 500 536 q 577 608 564 576 q 590 676 590 640 q 578 741 590 709 q 534 795 565 774 q 444 817 502 817 l 271 817 l 271 536 z "},"S":{"ha":856,"x_min":93,"x_max":761,"o":"m 439 -17 q 291 14 360 -17 q 170 101 222 45 q 93 233 119 158 l 243 289 q 331 181 274 222 q 453 139 388 139 q 555 171 515 139 q 594 264 594 203 q 567 334 594 303 q 493 391 539 365 q 394 440 448 417 q 301 485 348 460 q 215 544 254 510 q 152 624 176 578 q 128 732 128 670 q 165 860 128 802 q 269 954 201 919 q 428 989 336 989 q 616 930 538 989 q 721 782 695 871 l 572 732 q 513 804 551 775 q 418 833 474 833 q 330 807 366 833 q 294 735 294 781 q 315 679 294 703 q 375 633 335 656 q 474 583 415 611 q 571 534 521 561 q 664 470 621 506 q 734 385 708 434 q 761 272 761 337 q 716 115 761 180 q 598 17 672 51 q 439 -17 525 -17 z "},"Ś":{"ha":856,"x_min":93,"x_max":761,"o":"m 439 -17 q 291 14 360 -17 q 170 101 222 45 q 93 233 119 158 l 243 289 q 331 181 274 222 q 453 139 388 139 q 555 171 515 139 q 594 264 594 203 q 567 334 594 303 q 493 391 539 365 q 394 440 448 417 q 301 485 348 460 q 215 544 254 510 q 152 624 176 578 q 128 732 128 670 q 165 860 128 802 q 269 954 201 919 q 428 989 336 989 q 616 930 538 989 q 721 782 695 871 l 572 732 q 513 804 551 775 q 418 833 474 833 q 330 807 366 833 q 294 735 294 781 q 315 679 294 703 q 375 633 335 656 q 474 583 415 611 q 571 534 521 561 q 664 470 621 506 q 734 385 708 434 q 761 272 761 337 q 716 115 761 180 q 598 17 672 51 q 439 -17 525 -17 m 343 1063 l 540 1279 l 747 1279 l 500 1063 l 343 1063 z "},"Ꞌ":{"ha":856,"x_min":347,"x_max":508,"o":"m 382 251 l 347 661 l 347 972 l 508 972 l 508 661 l 474 251 l 382 251 z "},"Š":{"ha":856,"x_min":93,"x_max":761,"o":"m 439 -17 q 291 14 360 -17 q 170 101 222 45 q 93 233 119 158 l 243 289 q 331 181 274 222 q 453 139 388 139 q 555 171 515 139 q 594 264 594 203 q 567 334 594 303 q 493 391 539 365 q 394 440 448 417 q 301 485 348 460 q 215 544 254 510 q 152 624 176 578 q 128 732 128 670 q 165 860 128 802 q 269 954 201 919 q 428 989 336 989 q 616 930 538 989 q 721 782 695 871 l 572 732 q 513 804 551 775 q 418 833 474 833 q 330 807 366 833 q 294 735 294 781 q 315 679 294 703 q 375 633 335 656 q 474 583 415 611 q 571 534 521 561 q 664 470 621 506 q 734 385 708 434 q 761 272 761 337 q 716 115 761 180 q 598 17 672 51 q 439 -17 525 -17 m 356 1063 l 160 1279 l 307 1279 l 435 1172 l 563 1279 l 710 1279 l 514 1063 l 356 1063 z "},"Ş":{"ha":856,"x_min":93,"x_max":761,"o":"m 439 -17 q 291 14 360 -17 q 170 101 222 45 q 93 233 119 158 l 243 289 q 331 181 274 222 q 453 139 388 139 q 555 171 515 139 q 594 264 594 203 q 567 334 594 303 q 493 391 539 365 q 394 440 448 417 q 301 485 348 460 q 215 544 254 510 q 152 624 176 578 q 128 732 128 670 q 165 860 128 802 q 269 954 201 919 q 428 989 336 989 q 616 930 538 989 q 721 782 695 871 l 572 732 q 513 804 551 775 q 418 833 474 833 q 330 807 366 833 q 294 735 294 781 q 315 679 294 703 q 375 633 335 656 q 474 583 415 611 q 571 534 521 561 q 664 470 621 506 q 734 385 708 434 q 761 272 761 337 q 716 115 761 180 q 598 17 672 51 q 439 -17 525 -17 m 417 -336 q 328 -319 364 -336 q 272 -276 293 -302 l 346 -222 q 368 -240 354 -233 q 401 -246 382 -246 q 451 -230 433 -246 q 469 -187 469 -213 q 450 -147 469 -162 q 397 -131 430 -131 q 340 -147 365 -131 l 308 -107 l 407 14 l 493 14 l 443 -67 q 561 -103 524 -67 q 597 -189 597 -139 q 549 -295 597 -253 q 417 -336 501 -336 z "},"Ŝ":{"ha":856,"x_min":93,"x_max":761,"o":"m 439 -17 q 291 14 360 -17 q 170 101 222 45 q 93 233 119 158 l 243 289 q 331 181 274 222 q 453 139 388 139 q 555 171 515 139 q 594 264 594 203 q 567 334 594 303 q 493 391 539 365 q 394 440 448 417 q 301 485 348 460 q 215 544 254 510 q 152 624 176 578 q 128 732 128 670 q 165 860 128 802 q 269 954 201 919 q 428 989 336 989 q 616 930 538 989 q 721 782 695 871 l 572 732 q 513 804 551 775 q 418 833 474 833 q 330 807 366 833 q 294 735 294 781 q 315 679 294 703 q 375 633 335 656 q 474 583 415 611 q 571 534 521 561 q 664 470 621 506 q 734 385 708 434 q 761 272 761 337 q 716 115 761 180 q 598 17 672 51 q 439 -17 525 -17 m 158 1063 l 356 1279 l 513 1279 l 708 1063 l 561 1063 l 433 1169 l 306 1063 l 158 1063 z "},"Ș":{"ha":856,"x_min":93,"x_max":761,"o":"m 439 -17 q 291 14 360 -17 q 170 101 222 45 q 93 233 119 158 l 243 289 q 331 181 274 222 q 453 139 388 139 q 555 171 515 139 q 594 264 594 203 q 567 334 594 303 q 493 391 539 365 q 394 440 448 417 q 301 485 348 460 q 215 544 254 510 q 152 624 176 578 q 128 732 128 670 q 165 860 128 802 q 269 954 201 919 q 428 989 336 989 q 616 930 538 989 q 721 782 695 871 l 572 732 q 513 804 551 775 q 418 833 474 833 q 330 807 366 833 q 294 735 294 781 q 315 679 294 703 q 375 633 335 656 q 474 583 415 611 q 571 534 521 561 q 664 470 621 506 q 734 385 708 434 q 761 272 761 337 q 716 115 761 180 q 598 17 672 51 q 439 -17 525 -17 m 397 -418 l 344 -382 q 382 -339 359 -369 q 413 -279 404 -309 q 365 -251 383 -273 q 347 -196 347 -229 q 374 -132 347 -156 q 435 -108 401 -108 q 497 -134 470 -108 q 524 -208 524 -160 q 486 -328 524 -271 q 397 -418 449 -385 z "},"Ṣ":{"ha":856,"x_min":93,"x_max":761,"o":"m 439 -17 q 291 14 360 -17 q 170 101 222 45 q 93 233 119 158 l 243 289 q 331 181 274 222 q 453 139 388 139 q 555 171 515 139 q 594 264 594 203 q 567 334 594 303 q 493 391 539 365 q 394 440 448 417 q 301 485 348 460 q 215 544 254 510 q 152 624 176 578 q 128 732 128 670 q 165 860 128 802 q 269 954 201 919 q 428 989 336 989 q 616 930 538 989 q 721 782 695 871 l 572 732 q 513 804 551 775 q 418 833 474 833 q 330 807 366 833 q 294 735 294 781 q 315 679 294 703 q 375 633 335 656 q 474 583 415 611 q 571 534 521 561 q 664 470 621 506 q 734 385 708 434 q 761 272 761 337 q 716 115 761 180 q 598 17 672 51 q 439 -17 525 -17 m 435 -300 q 362 -270 391 -300 q 333 -199 333 -241 q 362 -126 333 -155 q 435 -97 391 -97 q 507 -126 478 -97 q 536 -199 536 -155 q 507 -270 536 -241 q 435 -300 478 -300 z "},"ẞ":{"ha":856,"x_min":92,"x_max":792,"o":"m 92 0 l 92 972 l 690 972 l 690 826 l 531 813 l 258 813 l 258 0 l 92 0 m 525 -17 q 403 7 456 -17 q 310 75 351 31 l 404 192 q 463 151 435 163 q 528 139 492 139 q 598 168 571 139 q 625 249 625 198 q 598 344 625 303 q 526 429 572 385 q 467 491 494 460 q 423 557 440 522 q 406 638 406 592 q 433 742 406 696 q 504 820 460 788 q 597 872 548 852 q 690 896 647 891 l 690 819 q 607 774 642 810 q 572 683 572 737 q 593 610 572 646 q 654 536 614 575 q 718 467 687 505 q 771 379 750 430 q 792 257 792 328 q 758 114 792 176 q 664 18 724 53 q 525 -17 603 -17 z "},"Ə":{"ha":856,"x_min":58,"x_max":797,"o":"m 421 -17 q 235 39 317 -17 q 106 197 153 94 q 58 446 58 301 q 59 499 58 471 q 64 564 60 528 l 647 564 l 647 408 l 239 408 q 289 213 239 285 q 421 142 339 142 q 546 188 501 142 q 608 313 590 235 q 625 486 625 391 q 604 655 625 576 q 538 782 583 733 q 422 831 493 831 q 313 801 357 831 q 232 724 269 771 l 121 843 q 250 946 174 903 q 424 989 325 989 q 622 929 538 989 q 751 756 706 869 q 797 485 797 643 q 750 217 797 329 q 618 44 703 104 q 421 -17 533 -17 z "},"T":{"ha":856,"x_min":63,"x_max":793,"o":"m 344 0 l 344 814 l 63 814 l 63 972 l 793 972 l 793 814 l 510 814 l 510 0 l 344 0 z "},"Ŧ":{"ha":856,"x_min":63,"x_max":793,"o":"m 181 365 l 181 521 l 675 521 l 675 365 l 181 365 m 344 0 l 344 814 l 63 814 l 63 972 l 793 972 l 793 814 l 510 814 l 510 0 l 344 0 z "},"Ť":{"ha":856,"x_min":63,"x_max":793,"o":"m 344 0 l 344 814 l 63 814 l 63 972 l 793 972 l 793 814 l 510 814 l 510 0 l 344 0 m 349 1063 l 153 1279 l 300 1279 l 428 1172 l 556 1279 l 703 1279 l 507 1063 l 349 1063 z "},"Ţ":{"ha":856,"x_min":63,"x_max":793,"o":"m 344 0 l 344 814 l 63 814 l 63 972 l 793 972 l 793 814 l 510 814 l 510 0 l 344 0 m 410 -336 q 322 -319 357 -336 q 265 -276 286 -302 l 339 -222 q 361 -240 347 -233 q 394 -246 375 -246 q 444 -230 426 -246 q 463 -187 463 -213 q 443 -147 463 -162 q 390 -131 423 -131 q 333 -147 358 -131 l 301 -107 l 400 14 l 486 14 l 436 -67 q 554 -103 517 -67 q 590 -189 590 -139 q 542 -295 590 -253 q 410 -336 494 -336 z "},"Ṱ":{"ha":856,"x_min":63,"x_max":793,"o":"m 344 0 l 344 814 l 63 814 l 63 972 l 793 972 l 793 814 l 510 814 l 510 0 l 344 0 m 153 -318 l 350 -101 l 507 -101 l 703 -318 l 556 -318 l 428 -211 l 300 -318 l 153 -318 z "},"Ț":{"ha":856,"x_min":63,"x_max":793,"o":"m 344 0 l 344 814 l 63 814 l 63 972 l 793 972 l 793 814 l 510 814 l 510 0 l 344 0 m 390 -418 l 338 -382 q 375 -339 352 -369 q 406 -279 397 -309 q 358 -251 376 -273 q 340 -196 340 -229 q 367 -132 340 -156 q 428 -108 394 -108 q 490 -134 463 -108 q 517 -208 517 -160 q 480 -328 517 -271 q 390 -418 442 -385 z "},"Ṭ":{"ha":856,"x_min":63,"x_max":793,"o":"m 344 0 l 344 814 l 63 814 l 63 972 l 793 972 l 793 814 l 510 814 l 510 0 l 344 0 m 428 -300 q 355 -270 384 -300 q 326 -199 326 -241 q 355 -126 326 -155 q 428 -97 384 -97 q 500 -126 471 -97 q 529 -199 529 -155 q 500 -270 529 -241 q 428 -300 471 -300 z "},"Ƭ":{"ha":856,"x_min":7,"x_max":807,"o":"m 415 0 l 415 814 l 260 814 q 182 772 201 814 q 157 618 163 730 l 7 694 q 42 847 15 785 q 122 940 68 908 q 266 972 176 972 l 807 972 l 807 814 l 580 814 l 580 0 l 415 0 z "},"Ṯ":{"ha":856,"x_min":63,"x_max":793,"o":"m 344 0 l 344 814 l 63 814 l 63 972 l 793 972 l 793 814 l 510 814 l 510 0 l 344 0 m 199 -249 l 199 -101 l 657 -101 l 657 -249 l 199 -249 z "},"Ʈ":{"ha":856,"x_min":63,"x_max":793,"o":"m 557 -297 q 393 -199 442 -272 q 344 14 344 -126 l 344 814 l 63 814 l 63 972 l 793 972 l 793 814 l 510 814 l 510 9 q 533 -114 510 -71 q 632 -179 556 -156 l 557 -297 z "},"U":{"ha":856,"x_min":100,"x_max":757,"o":"m 428 -17 q 266 20 340 -17 q 145 142 191 57 q 100 371 100 226 l 100 972 l 264 972 l 264 371 q 285 231 264 281 q 343 161 306 181 q 428 140 381 140 q 511 161 474 140 q 570 231 549 181 q 592 371 592 281 l 592 972 l 757 972 l 757 371 q 712 143 757 228 q 592 21 667 58 q 428 -17 517 -17 z "},"Ú":{"ha":856,"x_min":100,"x_max":757,"o":"m 428 -17 q 266 20 340 -17 q 145 142 191 57 q 100 371 100 226 l 100 972 l 264 972 l 264 371 q 285 231 264 281 q 343 161 306 181 q 428 140 381 140 q 511 161 474 140 q 570 231 549 181 q 592 371 592 281 l 592 972 l 757 972 l 757 371 q 712 143 757 228 q 592 21 667 58 q 428 -17 517 -17 m 336 1063 l 533 1279 l 740 1279 l 493 1063 l 336 1063 z "},"Ʉ":{"ha":856,"x_min":7,"x_max":849,"o":"m 427 -17 q 280 17 347 -17 q 174 130 213 51 q 134 343 134 209 l 134 972 l 298 972 l 298 343 q 314 220 298 264 q 358 158 329 176 q 427 140 387 140 q 496 158 467 140 q 541 220 525 176 q 556 343 556 264 l 556 972 l 722 972 l 722 343 q 682 132 722 211 q 576 18 642 53 q 427 -17 509 -17 m 7 425 l 7 600 l 849 600 l 849 425 l 7 425 z "},"Ŭ":{"ha":856,"x_min":100,"x_max":757,"o":"m 428 -17 q 266 20 340 -17 q 145 142 191 57 q 100 371 100 226 l 100 972 l 264 972 l 264 371 q 285 231 264 281 q 343 161 306 181 q 428 140 381 140 q 511 161 474 140 q 570 231 549 181 q 592 371 592 281 l 592 972 l 757 972 l 757 371 q 712 143 757 228 q 592 21 667 58 q 428 -17 517 -17 m 428 1060 q 280 1092 338 1060 q 195 1177 223 1124 q 168 1293 168 1231 l 296 1293 q 329 1213 296 1247 q 428 1179 363 1179 q 527 1213 494 1179 q 561 1293 561 1247 l 689 1293 q 661 1177 689 1231 q 576 1092 633 1124 q 428 1060 518 1060 z "},"Ǔ":{"ha":856,"x_min":100,"x_max":757,"o":"m 428 -17 q 266 20 340 -17 q 145 142 191 57 q 100 371 100 226 l 100 972 l 264 972 l 264 371 q 285 231 264 281 q 343 161 306 181 q 428 140 381 140 q 511 161 474 140 q 570 231 549 181 q 592 371 592 281 l 592 972 l 757 972 l 757 371 q 712 143 757 228 q 592 21 667 58 q 428 -17 517 -17 m 349 1063 l 153 1279 l 300 1279 l 428 1172 l 556 1279 l 703 1279 l 507 1063 l 349 1063 z "},"Û":{"ha":856,"x_min":100,"x_max":757,"o":"m 428 -17 q 266 20 340 -17 q 145 142 191 57 q 100 371 100 226 l 100 972 l 264 972 l 264 371 q 285 231 264 281 q 343 161 306 181 q 428 140 381 140 q 511 161 474 140 q 570 231 549 181 q 592 371 592 281 l 592 972 l 757 972 l 757 371 q 712 143 757 228 q 592 21 667 58 q 428 -17 517 -17 m 151 1063 l 349 1279 l 506 1279 l 701 1063 l 554 1063 l 426 1169 l 299 1063 l 151 1063 z "},"Ȕ":{"ha":856,"x_min":-46,"x_max":757,"o":"m 428 -17 q 266 20 340 -17 q 145 142 191 57 q 100 371 100 226 l 100 972 l 264 972 l 264 371 q 285 231 264 281 q 343 161 306 181 q 428 140 381 140 q 511 161 474 140 q 570 231 549 181 q 592 371 592 281 l 592 972 l 757 972 l 757 371 q 712 143 757 228 q 592 21 667 58 q 428 -17 517 -17 m 507 1063 l 260 1279 l 485 1279 l 682 1063 l 507 1063 m 201 1063 l -46 1279 l 179 1279 l 376 1063 l 201 1063 z "},"Ü":{"ha":856,"x_min":100,"x_max":757,"o":"m 428 -17 q 266 20 340 -17 q 145 142 191 57 q 100 371 100 226 l 100 972 l 264 972 l 264 371 q 285 231 264 281 q 343 161 306 181 q 428 140 381 140 q 511 161 474 140 q 570 231 549 181 q 592 371 592 281 l 592 972 l 757 972 l 757 371 q 712 143 757 228 q 592 21 667 58 q 428 -17 517 -17 m 300 1079 q 234 1106 260 1079 q 208 1172 208 1133 q 234 1238 208 1211 q 300 1264 260 1264 q 366 1238 340 1264 q 393 1172 393 1211 q 366 1106 393 1133 q 300 1079 340 1079 m 556 1079 q 490 1106 516 1079 q 464 1172 464 1133 q 490 1238 464 1211 q 556 1264 516 1264 q 622 1238 595 1264 q 649 1172 649 1211 q 622 1106 649 1133 q 556 1079 595 1079 z "},"Ǘ":{"ha":856,"x_min":100,"x_max":757,"o":"m 428 -17 q 266 20 340 -17 q 145 142 191 57 q 100 371 100 226 l 100 972 l 264 972 l 264 371 q 285 231 264 281 q 343 161 306 181 q 428 140 381 140 q 511 161 474 140 q 570 231 549 181 q 592 371 592 281 l 592 972 l 757 972 l 757 371 q 712 143 757 228 q 592 21 667 58 q 428 -17 517 -17 m 300 1079 q 234 1106 260 1079 q 208 1172 208 1133 q 234 1238 208 1211 q 300 1264 260 1264 q 366 1238 340 1264 q 393 1172 393 1211 q 366 1106 393 1133 q 300 1079 340 1079 m 556 1079 q 490 1106 516 1079 q 464 1172 464 1133 q 490 1238 464 1211 q 556 1264 516 1264 q 622 1238 595 1264 q 649 1172 649 1211 q 622 1106 649 1133 q 556 1079 595 1079 m 336 1354 l 533 1571 l 740 1571 l 493 1354 l 336 1354 z "},"Ǚ":{"ha":856,"x_min":100,"x_max":757,"o":"m 428 -17 q 266 20 340 -17 q 145 142 191 57 q 100 371 100 226 l 100 972 l 264 972 l 264 371 q 285 231 264 281 q 343 161 306 181 q 428 140 381 140 q 511 161 474 140 q 570 231 549 181 q 592 371 592 281 l 592 972 l 757 972 l 757 371 q 712 143 757 228 q 592 21 667 58 q 428 -17 517 -17 m 300 1079 q 234 1106 260 1079 q 208 1172 208 1133 q 234 1238 208 1211 q 300 1264 260 1264 q 366 1238 340 1264 q 393 1172 393 1211 q 366 1106 393 1133 q 300 1079 340 1079 m 556 1079 q 490 1106 516 1079 q 464 1172 464 1133 q 490 1238 464 1211 q 556 1264 516 1264 q 622 1238 595 1264 q 649 1172 649 1211 q 622 1106 649 1133 q 556 1079 595 1079 m 349 1354 l 153 1571 l 300 1571 l 428 1464 l 556 1571 l 703 1571 l 507 1354 l 349 1354 z "},"Ǜ":{"ha":856,"x_min":100,"x_max":757,"o":"m 428 -17 q 266 20 340 -17 q 145 142 191 57 q 100 371 100 226 l 100 972 l 264 972 l 264 371 q 285 231 264 281 q 343 161 306 181 q 428 140 381 140 q 511 161 474 140 q 570 231 549 181 q 592 371 592 281 l 592 972 l 757 972 l 757 371 q 712 143 757 228 q 592 21 667 58 q 428 -17 517 -17 m 300 1079 q 234 1106 260 1079 q 208 1172 208 1133 q 234 1238 208 1211 q 300 1264 260 1264 q 366 1238 340 1264 q 393 1172 393 1211 q 366 1106 393 1133 q 300 1079 340 1079 m 556 1079 q 490 1106 516 1079 q 464 1172 464 1133 q 490 1238 464 1211 q 556 1264 516 1264 q 622 1238 595 1264 q 649 1172 649 1211 q 622 1106 649 1133 q 556 1079 595 1079 m 376 1354 l 129 1571 l 335 1571 l 532 1354 l 376 1354 z "},"Ǖ":{"ha":856,"x_min":100,"x_max":757,"o":"m 428 -17 q 266 20 340 -17 q 145 142 191 57 q 100 371 100 226 l 100 972 l 264 972 l 264 371 q 285 231 264 281 q 343 161 306 181 q 428 140 381 140 q 511 161 474 140 q 570 231 549 181 q 592 371 592 281 l 592 972 l 757 972 l 757 371 q 712 143 757 228 q 592 21 667 58 q 428 -17 517 -17 m 300 1079 q 234 1106 260 1079 q 208 1172 208 1133 q 234 1238 208 1211 q 300 1264 260 1264 q 366 1238 340 1264 q 393 1172 393 1211 q 366 1106 393 1133 q 300 1079 340 1079 m 556 1079 q 490 1106 516 1079 q 464 1172 464 1133 q 490 1238 464 1211 q 556 1264 516 1264 q 622 1238 595 1264 q 649 1172 649 1211 q 622 1106 649 1133 q 556 1079 595 1079 m 199 1378 l 199 1508 l 657 1508 l 657 1378 l 199 1378 z "},"Ụ":{"ha":856,"x_min":100,"x_max":757,"o":"m 428 -17 q 266 20 340 -17 q 145 142 191 57 q 100 371 100 226 l 100 972 l 264 972 l 264 371 q 285 231 264 281 q 343 161 306 181 q 428 140 381 140 q 511 161 474 140 q 570 231 549 181 q 592 371 592 281 l 592 972 l 757 972 l 757 371 q 712 143 757 228 q 592 21 667 58 q 428 -17 517 -17 m 428 -300 q 355 -270 384 -300 q 326 -199 326 -241 q 355 -126 326 -155 q 428 -97 384 -97 q 500 -126 471 -97 q 529 -199 529 -155 q 500 -270 529 -241 q 428 -300 471 -300 z "},"Ù":{"ha":856,"x_min":100,"x_max":757,"o":"m 428 -17 q 266 20 340 -17 q 145 142 191 57 q 100 371 100 226 l 100 972 l 264 972 l 264 371 q 285 231 264 281 q 343 161 306 181 q 428 140 381 140 q 511 161 474 140 q 570 231 549 181 q 592 371 592 281 l 592 972 l 757 972 l 757 371 q 712 143 757 228 q 592 21 667 58 q 428 -17 517 -17 m 376 1063 l 129 1279 l 335 1279 l 532 1063 l 376 1063 z "},"Ủ":{"ha":856,"x_min":100,"x_max":757,"o":"m 428 -17 q 266 20 340 -17 q 145 142 191 57 q 100 371 100 226 l 100 972 l 264 972 l 264 371 q 285 231 264 281 q 343 161 306 181 q 428 140 381 140 q 511 161 474 140 q 570 231 549 181 q 592 371 592 281 l 592 972 l 757 972 l 757 371 q 712 143 757 228 q 592 21 667 58 q 428 -17 517 -17 m 368 1026 q 379 1088 368 1061 q 418 1138 390 1115 q 438 1157 433 1149 q 443 1171 443 1164 q 439 1182 443 1177 q 426 1186 434 1186 q 376 1147 401 1186 l 297 1197 q 347 1266 310 1238 q 432 1293 384 1293 q 522 1261 486 1293 q 557 1178 557 1229 q 543 1118 557 1138 q 514 1082 530 1098 q 492 1057 501 1069 q 482 1026 482 1044 l 368 1026 z "},"Ư":{"ha":856,"x_min":28,"x_max":856,"o":"m 303 -17 q 163 18 225 -17 q 64 128 101 52 q 28 331 28 205 l 28 972 l 192 972 l 192 303 q 218 182 192 223 q 303 140 244 140 q 386 182 359 140 q 414 303 414 223 l 414 972 l 578 972 l 578 331 q 542 131 578 207 q 445 19 507 54 q 303 -17 383 -17 m 533 510 l 533 639 q 654 685 618 653 q 690 781 690 717 l 690 972 l 856 972 l 856 825 q 843 706 856 764 q 789 603 831 649 q 680 531 741 550 q 533 510 618 512 z "},"Ứ":{"ha":856,"x_min":28,"x_max":856,"o":"m 303 -17 q 163 18 225 -17 q 64 128 101 52 q 28 331 28 205 l 28 972 l 192 972 l 192 303 q 218 182 192 223 q 303 140 244 140 q 386 182 359 140 q 414 303 414 223 l 414 972 l 578 972 l 578 331 q 542 131 578 207 q 445 19 507 54 q 303 -17 383 -17 m 533 510 l 533 639 q 654 685 618 653 q 690 781 690 717 l 690 972 l 856 972 l 856 825 q 843 706 856 764 q 789 603 831 649 q 680 531 741 550 q 533 510 618 512 m 211 1063 l 408 1279 l 615 1279 l 368 1063 l 211 1063 z "},"Ự":{"ha":856,"x_min":28,"x_max":856,"o":"m 303 -17 q 163 18 225 -17 q 64 128 101 52 q 28 331 28 205 l 28 972 l 192 972 l 192 303 q 218 182 192 223 q 303 140 244 140 q 386 182 359 140 q 414 303 414 223 l 414 972 l 578 972 l 578 331 q 542 131 578 207 q 445 19 507 54 q 303 -17 383 -17 m 533 510 l 533 639 q 654 685 618 653 q 690 781 690 717 l 690 972 l 856 972 l 856 825 q 843 706 856 764 q 789 603 831 649 q 680 531 741 550 q 533 510 618 512 m 303 -300 q 230 -270 259 -300 q 201 -199 201 -241 q 230 -126 201 -155 q 303 -97 259 -97 q 375 -126 346 -97 q 404 -199 404 -155 q 375 -270 404 -241 q 303 -300 346 -300 z "},"Ừ":{"ha":856,"x_min":4,"x_max":856,"o":"m 303 -17 q 163 18 225 -17 q 64 128 101 52 q 28 331 28 205 l 28 972 l 192 972 l 192 303 q 218 182 192 223 q 303 140 244 140 q 386 182 359 140 q 414 303 414 223 l 414 972 l 578 972 l 578 331 q 542 131 578 207 q 445 19 507 54 q 303 -17 383 -17 m 533 510 l 533 639 q 654 685 618 653 q 690 781 690 717 l 690 972 l 856 972 l 856 825 q 843 706 856 764 q 789 603 831 649 q 680 531 741 550 q 533 510 618 512 m 251 1063 l 4 1279 l 210 1279 l 407 1063 l 251 1063 z "},"Ử":{"ha":856,"x_min":28,"x_max":856,"o":"m 303 -17 q 163 18 225 -17 q 64 128 101 52 q 28 331 28 205 l 28 972 l 192 972 l 192 303 q 218 182 192 223 q 303 140 244 140 q 386 182 359 140 q 414 303 414 223 l 414 972 l 578 972 l 578 331 q 542 131 578 207 q 445 19 507 54 q 303 -17 383 -17 m 533 510 l 533 639 q 654 685 618 653 q 690 781 690 717 l 690 972 l 856 972 l 856 825 q 843 706 856 764 q 789 603 831 649 q 680 531 741 550 q 533 510 618 512 m 243 1026 q 254 1088 243 1061 q 293 1138 265 1115 q 313 1157 308 1149 q 318 1171 318 1164 q 314 1182 318 1177 q 301 1186 309 1186 q 251 1147 276 1186 l 172 1197 q 222 1266 185 1238 q 307 1293 259 1293 q 397 1261 361 1293 q 432 1178 432 1229 q 418 1118 432 1138 q 389 1082 405 1098 q 367 1057 376 1069 q 357 1026 357 1044 l 243 1026 z "},"Ữ":{"ha":856,"x_min":28,"x_max":856,"o":"m 303 -17 q 163 18 225 -17 q 64 128 101 52 q 28 331 28 205 l 28 972 l 192 972 l 192 303 q 218 182 192 223 q 303 140 244 140 q 386 182 359 140 q 414 303 414 223 l 414 972 l 578 972 l 578 331 q 542 131 578 207 q 445 19 507 54 q 303 -17 383 -17 m 533 510 l 533 639 q 654 685 618 653 q 690 781 690 717 l 690 972 l 856 972 l 856 825 q 843 706 856 764 q 789 603 831 649 q 680 531 741 550 q 533 510 618 512 m 413 1079 q 341 1091 373 1079 q 279 1115 308 1102 q 231 1136 254 1127 q 183 1144 208 1144 q 139 1131 158 1144 q 118 1085 119 1117 l 42 1085 q 76 1216 42 1165 q 193 1267 110 1267 q 265 1256 233 1267 q 326 1231 298 1244 q 374 1210 350 1219 q 422 1201 397 1201 q 468 1215 449 1201 q 488 1261 487 1229 l 564 1261 q 530 1130 564 1181 q 413 1079 496 1079 z "},"Ű":{"ha":856,"x_min":100,"x_max":863,"o":"m 428 -17 q 266 20 340 -17 q 145 142 191 57 q 100 371 100 226 l 100 972 l 264 972 l 264 371 q 285 231 264 281 q 343 161 306 181 q 428 140 381 140 q 511 161 474 140 q 570 231 549 181 q 592 371 592 281 l 592 972 l 757 972 l 757 371 q 712 143 757 228 q 592 21 667 58 q 428 -17 517 -17 m 460 1063 l 657 1279 l 863 1279 l 615 1063 l 460 1063 m 163 1063 l 360 1279 l 565 1279 l 318 1063 l 163 1063 z "},"Ȗ":{"ha":856,"x_min":100,"x_max":757,"o":"m 428 -17 q 266 20 340 -17 q 145 142 191 57 q 100 371 100 226 l 100 972 l 264 972 l 264 371 q 285 231 264 281 q 343 161 306 181 q 428 140 381 140 q 511 161 474 140 q 570 231 549 181 q 592 371 592 281 l 592 972 l 757 972 l 757 371 q 712 143 757 228 q 592 21 667 58 q 428 -17 517 -17 m 164 1057 q 192 1174 164 1120 q 280 1260 221 1228 q 429 1293 338 1293 q 579 1260 521 1293 q 665 1173 638 1227 q 693 1057 693 1119 l 554 1057 q 525 1129 554 1096 q 429 1163 496 1163 q 333 1129 364 1163 q 303 1057 303 1096 l 164 1057 z "},"Ū":{"ha":856,"x_min":100,"x_max":757,"o":"m 428 -17 q 266 20 340 -17 q 145 142 191 57 q 100 371 100 226 l 100 972 l 264 972 l 264 371 q 285 231 264 281 q 343 161 306 181 q 428 140 381 140 q 511 161 474 140 q 570 231 549 181 q 592 371 592 281 l 592 972 l 757 972 l 757 371 q 712 143 757 228 q 592 21 667 58 q 428 -17 517 -17 m 199 1086 l 199 1217 l 657 1217 l 657 1086 l 199 1086 z "},"Ų":{"ha":856,"x_min":100,"x_max":757,"o":"m 428 -17 q 266 20 340 -17 q 145 142 191 57 q 100 371 100 226 l 100 972 l 264 972 l 264 371 q 285 231 264 281 q 343 161 306 181 q 428 140 381 140 q 511 161 474 140 q 570 231 549 181 q 592 371 592 281 l 592 972 l 757 972 l 757 371 q 712 143 757 228 q 592 21 667 58 q 428 -17 517 -17 m 404 -350 q 283 -310 331 -350 q 236 -203 236 -270 q 287 -81 236 -133 q 426 0 338 -29 l 540 0 q 407 -91 446 -38 q 368 -189 368 -143 q 386 -239 368 -223 q 426 -254 403 -254 q 462 -246 447 -254 q 486 -226 477 -237 l 563 -281 q 505 -327 543 -303 q 404 -350 467 -350 z "},"Ʊ":{"ha":856,"x_min":56,"x_max":800,"o":"m 428 -17 q 258 23 328 -17 q 144 129 188 63 q 80 274 101 194 q 60 431 60 353 q 104 653 60 556 q 222 815 149 750 l 56 815 l 56 972 l 393 972 l 393 836 q 301 713 338 773 q 248 586 265 653 q 231 433 231 519 q 241 328 231 380 q 275 233 252 276 q 336 166 299 191 q 428 140 374 140 q 519 166 481 140 q 580 233 557 191 q 614 327 603 276 q 625 432 625 379 q 608 586 625 518 q 554 713 590 653 q 463 836 518 773 l 463 972 l 800 972 l 800 815 l 632 815 q 750 653 705 750 q 796 431 796 556 q 775 274 796 353 q 711 129 755 194 q 597 23 667 63 q 428 -17 527 -17 z "},"Ů":{"ha":856,"x_min":100,"x_max":757,"o":"m 428 -17 q 266 20 340 -17 q 145 142 191 57 q 100 371 100 226 l 100 972 l 264 972 l 264 371 q 285 231 264 281 q 343 161 306 181 q 428 140 381 140 q 511 161 474 140 q 570 231 549 181 q 592 371 592 281 l 592 972 l 757 972 l 757 371 q 712 143 757 228 q 592 21 667 58 q 428 -17 517 -17 m 428 1026 q 340 1050 380 1026 q 277 1113 301 1074 q 253 1201 253 1152 q 277 1288 253 1249 q 340 1349 301 1326 q 428 1372 380 1372 q 516 1349 476 1372 q 579 1288 556 1326 q 603 1201 603 1249 q 579 1113 603 1152 q 516 1050 556 1074 q 428 1026 476 1026 m 428 1138 q 470 1155 452 1138 q 488 1200 488 1173 q 470 1245 488 1227 q 428 1263 452 1263 q 385 1245 402 1263 q 368 1200 368 1227 q 385 1155 368 1173 q 428 1138 402 1138 z "},"Ũ":{"ha":856,"x_min":100,"x_max":757,"o":"m 428 -17 q 266 20 340 -17 q 145 142 191 57 q 100 371 100 226 l 100 972 l 264 972 l 264 371 q 285 231 264 281 q 343 161 306 181 q 428 140 381 140 q 511 161 474 140 q 570 231 549 181 q 592 371 592 281 l 592 972 l 757 972 l 757 371 q 712 143 757 228 q 592 21 667 58 q 428 -17 517 -17 m 538 1079 q 466 1091 498 1079 q 404 1115 433 1102 q 356 1136 379 1127 q 308 1144 333 1144 q 264 1131 283 1144 q 243 1085 244 1117 l 167 1085 q 201 1216 167 1165 q 318 1267 235 1267 q 390 1256 358 1267 q 451 1231 423 1244 q 499 1210 475 1219 q 547 1201 522 1201 q 593 1215 574 1201 q 613 1261 612 1229 l 689 1261 q 655 1130 689 1181 q 538 1079 621 1079 z "},"V":{"ha":856,"x_min":32,"x_max":824,"o":"m 349 0 l 32 972 l 215 972 l 408 310 q 419 266 414 292 q 428 219 425 240 q 436 265 431 240 q 446 308 441 291 l 642 972 l 824 972 l 507 0 l 349 0 z "},"Ɣ":{"ha":856,"x_min":10,"x_max":847,"o":"m 428 -351 q 281 -299 332 -351 q 230 -167 230 -247 q 257 -25 230 -102 q 331 160 285 51 l 10 972 l 201 972 l 429 394 l 660 972 l 847 972 l 526 160 q 600 -26 574 51 q 627 -167 627 -103 q 576 -299 627 -247 q 428 -351 524 -351 m 428 -199 q 454 -189 442 -199 q 465 -160 465 -180 q 428 -31 465 -125 q 401 -110 410 -79 q 392 -160 392 -142 q 403 -189 392 -180 q 428 -199 415 -199 z "},"Ʋ":{"ha":856,"x_min":94,"x_max":824,"o":"m 358 -17 q 161 62 228 -17 q 94 306 94 141 l 94 972 l 258 972 l 258 306 q 285 176 258 212 q 369 140 313 140 q 478 182 426 140 q 571 292 531 224 q 635 445 612 361 q 658 612 658 528 q 615 778 658 719 q 487 837 572 837 q 410 829 449 837 l 481 983 q 512 988 497 986 q 546 989 528 989 q 697 942 635 989 q 792 813 759 896 q 824 619 824 730 q 789 390 824 503 q 690 185 753 276 q 542 38 626 93 q 358 -17 457 -17 z "},"Ʌ":{"ha":856,"x_min":32,"x_max":824,"o":"m 32 0 l 349 972 l 507 972 l 824 0 l 640 0 l 447 663 q 437 707 442 681 q 428 753 431 733 q 420 708 425 733 q 410 664 415 682 l 214 0 l 32 0 z "},"W":{"ha":856,"x_min":18,"x_max":838,"o":"m 161 0 l 18 972 l 167 972 l 243 393 q 248 360 244 383 q 253 325 251 338 q 259 359 255 338 q 267 394 264 380 l 383 972 l 472 972 l 590 397 q 598 361 594 378 q 604 329 601 345 q 610 364 608 349 q 614 396 612 379 l 678 972 l 838 972 l 693 0 l 563 0 l 439 594 q 432 632 435 615 q 426 665 428 649 q 421 632 424 649 q 414 596 418 616 l 292 0 l 161 0 z "},"Ẃ":{"ha":856,"x_min":18,"x_max":838,"o":"m 161 0 l 18 972 l 167 972 l 243 393 q 248 360 244 383 q 253 325 251 338 q 259 359 255 338 q 267 394 264 380 l 383 972 l 472 972 l 590 397 q 598 361 594 378 q 604 329 601 345 q 610 364 608 349 q 614 396 612 379 l 678 972 l 838 972 l 693 0 l 563 0 l 439 594 q 432 632 435 615 q 426 665 428 649 q 421 632 424 649 q 414 596 418 616 l 292 0 l 161 0 m 336 1064 l 533 1281 l 740 1281 l 493 1064 l 336 1064 z "},"Ŵ":{"ha":856,"x_min":18,"x_max":838,"o":"m 161 0 l 18 972 l 167 972 l 243 393 q 248 360 244 383 q 253 325 251 338 q 259 359 255 338 q 267 394 264 380 l 383 972 l 472 972 l 590 397 q 598 361 594 378 q 604 329 601 345 q 610 364 608 349 q 614 396 612 379 l 678 972 l 838 972 l 693 0 l 563 0 l 439 594 q 432 632 435 615 q 426 665 428 649 q 421 632 424 649 q 414 596 418 616 l 292 0 l 161 0 m 151 1064 l 349 1281 l 506 1281 l 701 1064 l 554 1064 l 426 1171 l 299 1064 l 151 1064 z "},"Ẅ":{"ha":856,"x_min":18,"x_max":838,"o":"m 161 0 l 18 972 l 167 972 l 243 393 q 248 360 244 383 q 253 325 251 338 q 259 359 255 338 q 267 394 264 380 l 383 972 l 472 972 l 590 397 q 598 361 594 378 q 604 329 601 345 q 610 364 608 349 q 614 396 612 379 l 678 972 l 838 972 l 693 0 l 563 0 l 439 594 q 432 632 435 615 q 426 665 428 649 q 421 632 424 649 q 414 596 418 616 l 292 0 l 161 0 m 300 1081 q 234 1107 260 1081 q 208 1174 208 1134 q 234 1239 208 1213 q 300 1265 260 1265 q 366 1239 340 1265 q 393 1174 393 1213 q 366 1107 393 1134 q 300 1081 340 1081 m 556 1081 q 490 1107 516 1081 q 464 1174 464 1134 q 490 1239 464 1213 q 556 1265 516 1265 q 622 1239 595 1265 q 649 1174 649 1213 q 622 1107 649 1134 q 556 1081 595 1081 z "},"Ẁ":{"ha":856,"x_min":18,"x_max":838,"o":"m 161 0 l 18 972 l 167 972 l 243 393 q 248 360 244 383 q 253 325 251 338 q 259 359 255 338 q 267 394 264 380 l 383 972 l 472 972 l 590 397 q 598 361 594 378 q 604 329 601 345 q 610 364 608 349 q 614 396 612 379 l 678 972 l 838 972 l 693 0 l 563 0 l 439 594 q 432 632 435 615 q 426 665 428 649 q 421 632 424 649 q 414 596 418 616 l 292 0 l 161 0 m 376 1064 l 129 1281 l 335 1281 l 532 1064 l 376 1064 z "},"Ⱳ":{"ha":856,"x_min":18,"x_max":890,"o":"m 126 0 l 18 972 l 167 972 l 219 431 q 222 403 220 415 q 225 378 224 390 q 230 404 228 391 q 235 432 233 417 l 331 972 l 420 972 l 518 432 q 523 407 521 419 q 528 378 525 394 q 532 406 531 394 q 534 431 533 417 l 559 760 q 631 928 568 876 q 800 989 694 980 l 890 844 q 760 818 809 844 q 703 718 711 792 l 624 0 l 493 0 l 386 560 q 380 595 383 576 q 374 631 376 614 q 369 595 372 614 q 363 561 366 577 l 257 0 l 126 0 z "},"X":{"ha":856,"x_min":50,"x_max":806,"o":"m 615 0 l 386 421 l 69 972 l 260 972 l 471 582 l 806 0 l 615 0 m 50 0 l 383 579 l 594 972 l 785 972 l 468 424 l 240 0 l 50 0 z "},"Y":{"ha":856,"x_min":60,"x_max":796,"o":"m 346 0 l 346 381 l 60 972 l 243 972 l 461 483 l 394 483 l 614 972 l 796 972 l 510 381 l 510 0 l 346 0 z "},"Ý":{"ha":856,"x_min":60,"x_max":796,"o":"m 346 0 l 346 381 l 60 972 l 243 972 l 461 483 l 394 483 l 614 972 l 796 972 l 510 381 l 510 0 l 346 0 m 336 1063 l 533 1279 l 740 1279 l 493 1063 l 336 1063 z "},"Ŷ":{"ha":856,"x_min":60,"x_max":796,"o":"m 346 0 l 346 381 l 60 972 l 243 972 l 461 483 l 394 483 l 614 972 l 796 972 l 510 381 l 510 0 l 346 0 m 151 1063 l 349 1279 l 506 1279 l 701 1063 l 554 1063 l 426 1169 l 299 1063 l 151 1063 z "},"Ÿ":{"ha":856,"x_min":60,"x_max":796,"o":"m 346 0 l 346 381 l 60 972 l 243 972 l 461 483 l 394 483 l 614 972 l 796 972 l 510 381 l 510 0 l 346 0 m 300 1079 q 234 1106 260 1079 q 208 1172 208 1133 q 234 1238 208 1211 q 300 1264 260 1264 q 366 1238 340 1264 q 393 1172 393 1211 q 366 1106 393 1133 q 300 1079 340 1079 m 556 1079 q 490 1106 516 1079 q 464 1172 464 1133 q 490 1238 464 1211 q 556 1264 516 1264 q 622 1238 595 1264 q 649 1172 649 1211 q 622 1106 649 1133 q 556 1079 595 1079 z "},"Ỵ":{"ha":856,"x_min":60,"x_max":796,"o":"m 346 0 l 346 381 l 60 972 l 243 972 l 461 483 l 394 483 l 614 972 l 796 972 l 510 381 l 510 0 l 346 0 m 428 -300 q 355 -270 384 -300 q 326 -199 326 -241 q 355 -126 326 -155 q 428 -97 384 -97 q 500 -126 471 -97 q 529 -199 529 -155 q 500 -270 529 -241 q 428 -300 471 -300 z "},"Ỳ":{"ha":856,"x_min":60,"x_max":796,"o":"m 346 0 l 346 381 l 60 972 l 243 972 l 461 483 l 394 483 l 614 972 l 796 972 l 510 381 l 510 0 l 346 0 m 376 1063 l 129 1279 l 335 1279 l 532 1063 l 376 1063 z "},"Ƴ":{"ha":856,"x_min":56,"x_max":897,"o":"m 341 0 l 341 381 l 56 972 l 239 972 l 423 558 l 542 822 q 616 927 574 892 q 706 975 658 963 q 803 989 754 988 l 897 838 q 802 832 843 837 q 731 807 761 826 q 681 745 701 788 l 505 381 l 505 0 l 341 0 z "},"Ỷ":{"ha":856,"x_min":60,"x_max":796,"o":"m 346 0 l 346 381 l 60 972 l 243 972 l 461 483 l 394 483 l 614 972 l 796 972 l 510 381 l 510 0 l 346 0 m 368 1026 q 379 1088 368 1061 q 418 1138 390 1115 q 438 1157 433 1149 q 443 1171 443 1164 q 439 1182 443 1177 q 426 1186 434 1186 q 376 1147 401 1186 l 297 1197 q 347 1266 310 1238 q 432 1293 384 1293 q 522 1261 486 1293 q 557 1178 557 1229 q 543 1118 557 1138 q 514 1082 530 1098 q 492 1057 501 1069 q 482 1026 482 1044 l 368 1026 z "},"Ȳ":{"ha":856,"x_min":60,"x_max":796,"o":"m 346 0 l 346 381 l 60 972 l 243 972 l 461 483 l 394 483 l 614 972 l 796 972 l 510 381 l 510 0 l 346 0 m 199 1086 l 199 1217 l 657 1217 l 657 1086 l 199 1086 z "},"Ỹ":{"ha":856,"x_min":60,"x_max":796,"o":"m 346 0 l 346 381 l 60 972 l 243 972 l 461 483 l 394 483 l 614 972 l 796 972 l 510 381 l 510 0 l 346 0 m 538 1079 q 466 1091 498 1079 q 404 1115 433 1102 q 356 1136 379 1127 q 308 1144 333 1144 q 264 1131 283 1144 q 243 1085 244 1117 l 167 1085 q 201 1216 167 1165 q 318 1267 235 1267 q 390 1256 358 1267 q 451 1231 423 1244 q 499 1210 475 1219 q 547 1201 522 1201 q 593 1215 574 1201 q 613 1261 612 1229 l 689 1261 q 655 1130 689 1181 q 538 1079 621 1079 z "},"Z":{"ha":856,"x_min":100,"x_max":757,"o":"m 100 0 l 100 125 l 583 885 l 621 817 l 131 817 l 131 972 l 757 972 l 757 847 l 269 89 l 233 157 l 756 157 l 756 0 l 100 0 z "},"Ź":{"ha":856,"x_min":100,"x_max":757,"o":"m 100 0 l 100 125 l 583 885 l 621 817 l 131 817 l 131 972 l 757 972 l 757 847 l 269 89 l 233 157 l 756 157 l 756 0 l 100 0 m 351 1063 l 549 1279 l 756 1279 l 508 1063 l 351 1063 z "},"Ž":{"ha":856,"x_min":100,"x_max":757,"o":"m 100 0 l 100 125 l 583 885 l 621 817 l 131 817 l 131 972 l 757 972 l 757 847 l 269 89 l 233 157 l 756 157 l 756 0 l 100 0 m 364 1063 l 168 1279 l 315 1279 l 443 1172 l 571 1279 l 718 1279 l 522 1063 l 364 1063 z "},"Ż":{"ha":856,"x_min":100,"x_max":757,"o":"m 100 0 l 100 125 l 583 885 l 621 817 l 131 817 l 131 972 l 757 972 l 757 847 l 269 89 l 233 157 l 756 157 l 756 0 l 100 0 m 443 1078 q 377 1105 403 1078 q 351 1171 351 1131 q 377 1236 351 1210 q 443 1263 403 1263 q 509 1236 483 1263 q 536 1171 536 1210 q 509 1105 536 1131 q 443 1078 483 1078 z "},"Ẓ":{"ha":856,"x_min":100,"x_max":757,"o":"m 100 0 l 100 125 l 583 885 l 621 817 l 131 817 l 131 972 l 757 972 l 757 847 l 269 89 l 233 157 l 756 157 l 756 0 l 100 0 m 428 -300 q 355 -270 384 -300 q 326 -199 326 -241 q 355 -126 326 -155 q 428 -97 384 -97 q 500 -126 471 -97 q 529 -199 529 -155 q 500 -270 529 -241 q 428 -300 471 -300 z "},"a":{"ha":856,"x_min":111,"x_max":726,"o":"m 374 -17 q 240 10 299 -17 q 146 89 181 36 q 111 219 111 141 q 153 353 111 301 q 259 430 194 405 q 394 454 324 454 q 491 445 449 454 q 571 417 533 435 l 571 458 q 554 534 571 506 q 506 574 538 562 q 431 586 474 586 q 314 567 372 586 q 206 514 256 547 l 157 644 q 283 702 208 677 q 444 726 358 726 q 541 717 492 726 q 633 680 591 708 q 701 600 675 653 q 726 460 726 547 l 726 0 l 571 0 l 571 56 q 494 6 542 28 q 374 -17 447 -17 m 403 124 q 502 145 461 124 q 571 194 544 167 l 571 286 q 502 309 542 301 q 419 318 463 318 q 312 295 358 318 q 265 219 265 272 q 301 150 265 177 q 403 124 338 124 z "},"á":{"ha":856,"x_min":111,"x_max":750,"o":"m 374 -17 q 240 10 299 -17 q 146 89 181 36 q 111 219 111 141 q 153 353 111 301 q 259 430 194 405 q 394 454 324 454 q 491 445 449 454 q 571 417 533 435 l 571 458 q 554 534 571 506 q 506 574 538 562 q 431 586 474 586 q 314 567 372 586 q 206 514 256 547 l 157 644 q 283 702 208 677 q 444 726 358 726 q 541 717 492 726 q 633 680 591 708 q 701 600 675 653 q 726 460 726 547 l 726 0 l 571 0 l 571 56 q 494 6 542 28 q 374 -17 447 -17 m 403 124 q 502 145 461 124 q 571 194 544 167 l 571 286 q 502 309 542 301 q 419 318 463 318 q 312 295 358 318 q 265 219 265 272 q 301 150 265 177 q 403 124 338 124 m 328 800 l 525 1017 l 750 1017 l 503 800 l 328 800 z "},"ă":{"ha":856,"x_min":111,"x_max":726,"o":"m 374 -17 q 240 10 299 -17 q 146 89 181 36 q 111 219 111 141 q 153 353 111 301 q 259 430 194 405 q 394 454 324 454 q 491 445 449 454 q 571 417 533 435 l 571 458 q 554 534 571 506 q 506 574 538 562 q 431 586 474 586 q 314 567 372 586 q 206 514 256 547 l 157 644 q 283 702 208 677 q 444 726 358 726 q 541 717 492 726 q 633 680 591 708 q 701 600 675 653 q 726 460 726 547 l 726 0 l 571 0 l 571 56 q 494 6 542 28 q 374 -17 447 -17 m 403 124 q 502 145 461 124 q 571 194 544 167 l 571 286 q 502 309 542 301 q 419 318 463 318 q 312 295 358 318 q 265 219 265 272 q 301 150 265 177 q 403 124 338 124 m 428 797 q 280 830 338 797 q 195 915 223 862 q 168 1031 168 968 l 296 1031 q 329 951 296 985 q 428 917 363 917 q 527 951 494 917 q 561 1031 561 985 l 689 1031 q 661 915 689 968 q 576 830 633 862 q 428 797 518 797 z "},"ắ":{"ha":856,"x_min":111,"x_max":765,"o":"m 374 -17 q 240 10 299 -17 q 146 89 181 36 q 111 219 111 141 q 153 353 111 301 q 259 430 194 405 q 394 454 324 454 q 491 445 449 454 q 571 417 533 435 l 571 458 q 554 534 571 506 q 506 574 538 562 q 431 586 474 586 q 314 567 372 586 q 206 514 256 547 l 157 644 q 283 702 208 677 q 444 726 358 726 q 541 717 492 726 q 633 680 591 708 q 701 600 675 653 q 726 460 726 547 l 726 0 l 571 0 l 571 56 q 494 6 542 28 q 374 -17 447 -17 m 403 124 q 502 145 461 124 q 571 194 544 167 l 571 286 q 502 309 542 301 q 419 318 463 318 q 312 295 358 318 q 265 219 265 272 q 301 150 265 177 q 403 124 338 124 m 428 797 q 280 830 338 797 q 195 915 223 862 q 168 1031 168 968 l 296 1031 q 329 951 296 985 q 428 917 363 917 q 527 951 494 917 q 561 1031 561 985 l 689 1031 q 661 915 689 968 q 576 830 633 862 q 428 797 518 797 m 343 1057 l 540 1274 l 765 1274 l 518 1057 l 343 1057 z "},"ặ":{"ha":856,"x_min":111,"x_max":726,"o":"m 374 -17 q 240 10 299 -17 q 146 89 181 36 q 111 219 111 141 q 153 353 111 301 q 259 430 194 405 q 394 454 324 454 q 491 445 449 454 q 571 417 533 435 l 571 458 q 554 534 571 506 q 506 574 538 562 q 431 586 474 586 q 314 567 372 586 q 206 514 256 547 l 157 644 q 283 702 208 677 q 444 726 358 726 q 541 717 492 726 q 633 680 591 708 q 701 600 675 653 q 726 460 726 547 l 726 0 l 571 0 l 571 56 q 494 6 542 28 q 374 -17 447 -17 m 403 124 q 502 145 461 124 q 571 194 544 167 l 571 286 q 502 309 542 301 q 419 318 463 318 q 312 295 358 318 q 265 219 265 272 q 301 150 265 177 q 403 124 338 124 m 428 -300 q 355 -270 384 -300 q 326 -199 326 -241 q 355 -126 326 -155 q 428 -97 384 -97 q 500 -126 471 -97 q 529 -199 529 -155 q 500 -270 529 -241 q 428 -300 471 -300 m 428 797 q 280 830 338 797 q 195 915 223 862 q 168 1031 168 968 l 296 1031 q 329 951 296 985 q 428 917 363 917 q 527 951 494 917 q 561 1031 561 985 l 689 1031 q 661 915 689 968 q 576 830 633 862 q 428 797 518 797 z "},"ằ":{"ha":856,"x_min":111,"x_max":726,"o":"m 374 -17 q 240 10 299 -17 q 146 89 181 36 q 111 219 111 141 q 153 353 111 301 q 259 430 194 405 q 394 454 324 454 q 491 445 449 454 q 571 417 533 435 l 571 458 q 554 534 571 506 q 506 574 538 562 q 431 586 474 586 q 314 567 372 586 q 206 514 256 547 l 157 644 q 283 702 208 677 q 444 726 358 726 q 541 717 492 726 q 633 680 591 708 q 701 600 675 653 q 726 460 726 547 l 726 0 l 571 0 l 571 56 q 494 6 542 28 q 374 -17 447 -17 m 403 124 q 502 145 461 124 q 571 194 544 167 l 571 286 q 502 309 542 301 q 419 318 463 318 q 312 295 358 318 q 265 219 265 272 q 301 150 265 177 q 403 124 338 124 m 428 797 q 280 830 338 797 q 195 915 223 862 q 168 1031 168 968 l 296 1031 q 329 951 296 985 q 428 917 363 917 q 527 951 494 917 q 561 1031 561 985 l 689 1031 q 661 915 689 968 q 576 830 633 862 q 428 797 518 797 m 364 1057 l 117 1274 l 322 1274 l 519 1057 l 364 1057 z "},"ẳ":{"ha":856,"x_min":111,"x_max":726,"o":"m 374 -17 q 240 10 299 -17 q 146 89 181 36 q 111 219 111 141 q 153 353 111 301 q 259 430 194 405 q 394 454 324 454 q 491 445 449 454 q 571 417 533 435 l 571 458 q 554 534 571 506 q 506 574 538 562 q 431 586 474 586 q 314 567 372 586 q 206 514 256 547 l 157 644 q 283 702 208 677 q 444 726 358 726 q 541 717 492 726 q 633 680 591 708 q 701 600 675 653 q 726 460 726 547 l 726 0 l 571 0 l 571 56 q 494 6 542 28 q 374 -17 447 -17 m 403 124 q 502 145 461 124 q 571 194 544 167 l 571 286 q 502 309 542 301 q 419 318 463 318 q 312 295 358 318 q 265 219 265 272 q 301 150 265 177 q 403 124 338 124 m 428 797 q 280 830 338 797 q 195 915 223 862 q 168 1031 168 968 l 296 1031 q 329 951 296 985 q 428 917 363 917 q 527 951 494 917 q 561 1031 561 985 l 689 1031 q 661 915 689 968 q 576 830 633 862 q 428 797 518 797 m 368 1029 q 379 1091 368 1064 q 418 1140 390 1117 q 438 1159 433 1152 q 443 1174 443 1167 q 439 1184 443 1180 q 426 1189 434 1189 q 376 1150 401 1189 l 297 1200 q 347 1268 310 1241 q 432 1296 384 1296 q 522 1264 486 1296 q 557 1181 557 1232 q 543 1121 557 1141 q 514 1085 530 1101 q 492 1060 501 1072 q 482 1029 482 1047 l 368 1029 z "},"ẵ":{"ha":856,"x_min":111,"x_max":726,"o":"m 374 -17 q 240 10 299 -17 q 146 89 181 36 q 111 219 111 141 q 153 353 111 301 q 259 430 194 405 q 394 454 324 454 q 491 445 449 454 q 571 417 533 435 l 571 458 q 554 534 571 506 q 506 574 538 562 q 431 586 474 586 q 314 567 372 586 q 206 514 256 547 l 157 644 q 283 702 208 677 q 444 726 358 726 q 541 717 492 726 q 633 680 591 708 q 701 600 675 653 q 726 460 726 547 l 726 0 l 571 0 l 571 56 q 494 6 542 28 q 374 -17 447 -17 m 403 124 q 502 145 461 124 q 571 194 544 167 l 571 286 q 502 309 542 301 q 419 318 463 318 q 312 295 358 318 q 265 219 265 272 q 301 150 265 177 q 403 124 338 124 m 428 797 q 280 830 338 797 q 195 915 223 862 q 168 1031 168 968 l 296 1031 q 329 951 296 985 q 428 917 363 917 q 527 951 494 917 q 561 1031 561 985 l 689 1031 q 661 915 689 968 q 576 830 633 862 q 428 797 518 797 m 539 1138 q 467 1149 499 1138 q 406 1174 435 1160 q 357 1194 381 1185 q 310 1203 334 1203 q 265 1189 284 1203 q 244 1143 246 1176 l 168 1143 q 202 1274 168 1224 q 319 1325 236 1325 q 392 1314 359 1325 q 453 1289 424 1303 q 500 1269 476 1278 q 549 1260 524 1260 q 594 1274 575 1260 q 614 1319 613 1288 l 690 1319 q 656 1189 690 1240 q 539 1138 622 1138 z "},"ǎ":{"ha":856,"x_min":111,"x_max":726,"o":"m 374 -17 q 240 10 299 -17 q 146 89 181 36 q 111 219 111 141 q 153 353 111 301 q 259 430 194 405 q 394 454 324 454 q 491 445 449 454 q 571 417 533 435 l 571 458 q 554 534 571 506 q 506 574 538 562 q 431 586 474 586 q 314 567 372 586 q 206 514 256 547 l 157 644 q 283 702 208 677 q 444 726 358 726 q 541 717 492 726 q 633 680 591 708 q 701 600 675 653 q 726 460 726 547 l 726 0 l 571 0 l 571 56 q 494 6 542 28 q 374 -17 447 -17 m 403 124 q 502 145 461 124 q 571 194 544 167 l 571 286 q 502 309 542 301 q 419 318 463 318 q 312 295 358 318 q 265 219 265 272 q 301 150 265 177 q 403 124 338 124 m 349 800 l 153 1017 l 300 1017 l 428 910 l 556 1017 l 703 1017 l 507 800 l 349 800 z "},"â":{"ha":856,"x_min":111,"x_max":726,"o":"m 374 -17 q 240 10 299 -17 q 146 89 181 36 q 111 219 111 141 q 153 353 111 301 q 259 430 194 405 q 394 454 324 454 q 491 445 449 454 q 571 417 533 435 l 571 458 q 554 534 571 506 q 506 574 538 562 q 431 586 474 586 q 314 567 372 586 q 206 514 256 547 l 157 644 q 283 702 208 677 q 444 726 358 726 q 541 717 492 726 q 633 680 591 708 q 701 600 675 653 q 726 460 726 547 l 726 0 l 571 0 l 571 56 q 494 6 542 28 q 374 -17 447 -17 m 403 124 q 502 145 461 124 q 571 194 544 167 l 571 286 q 502 309 542 301 q 419 318 463 318 q 312 295 358 318 q 265 219 265 272 q 301 150 265 177 q 403 124 338 124 m 151 800 l 349 1017 l 506 1017 l 701 800 l 554 800 l 426 907 l 299 800 l 151 800 z "},"ấ":{"ha":856,"x_min":111,"x_max":1010,"o":"m 374 -17 q 240 10 299 -17 q 146 89 181 36 q 111 219 111 141 q 153 353 111 301 q 259 430 194 405 q 394 454 324 454 q 491 445 449 454 q 571 417 533 435 l 571 458 q 554 534 571 506 q 506 574 538 562 q 431 586 474 586 q 314 567 372 586 q 206 514 256 547 l 157 644 q 283 702 208 677 q 444 726 358 726 q 541 717 492 726 q 633 680 591 708 q 701 600 675 653 q 726 460 726 547 l 726 0 l 571 0 l 571 56 q 494 6 542 28 q 374 -17 447 -17 m 403 124 q 502 145 461 124 q 571 194 544 167 l 571 286 q 502 309 542 301 q 419 318 463 318 q 312 295 358 318 q 265 219 265 272 q 301 150 265 177 q 403 124 338 124 m 151 800 l 349 1017 l 506 1017 l 701 800 l 554 800 l 426 907 l 299 800 l 151 800 m 588 994 l 785 1211 l 1010 1211 l 763 994 l 588 994 z "},"ậ":{"ha":856,"x_min":111,"x_max":726,"o":"m 374 -17 q 240 10 299 -17 q 146 89 181 36 q 111 219 111 141 q 153 353 111 301 q 259 430 194 405 q 394 454 324 454 q 491 445 449 454 q 571 417 533 435 l 571 458 q 554 534 571 506 q 506 574 538 562 q 431 586 474 586 q 314 567 372 586 q 206 514 256 547 l 157 644 q 283 702 208 677 q 444 726 358 726 q 541 717 492 726 q 633 680 591 708 q 701 600 675 653 q 726 460 726 547 l 726 0 l 571 0 l 571 56 q 494 6 542 28 q 374 -17 447 -17 m 403 124 q 502 145 461 124 q 571 194 544 167 l 571 286 q 502 309 542 301 q 419 318 463 318 q 312 295 358 318 q 265 219 265 272 q 301 150 265 177 q 403 124 338 124 m 428 -300 q 355 -270 384 -300 q 326 -199 326 -241 q 355 -126 326 -155 q 428 -97 384 -97 q 500 -126 471 -97 q 529 -199 529 -155 q 500 -270 529 -241 q 428 -300 471 -300 m 151 800 l 349 1017 l 506 1017 l 701 800 l 554 800 l 426 907 l 299 800 l 151 800 z "},"ầ":{"ha":856,"x_min":111,"x_max":819,"o":"m 374 -17 q 240 10 299 -17 q 146 89 181 36 q 111 219 111 141 q 153 353 111 301 q 259 430 194 405 q 394 454 324 454 q 491 445 449 454 q 571 417 533 435 l 571 458 q 554 534 571 506 q 506 574 538 562 q 431 586 474 586 q 314 567 372 586 q 206 514 256 547 l 157 644 q 283 702 208 677 q 444 726 358 726 q 541 717 492 726 q 633 680 591 708 q 701 600 675 653 q 726 460 726 547 l 726 0 l 571 0 l 571 56 q 494 6 542 28 q 374 -17 447 -17 m 403 124 q 502 145 461 124 q 571 194 544 167 l 571 286 q 502 309 542 301 q 419 318 463 318 q 312 295 358 318 q 265 219 265 272 q 301 150 265 177 q 403 124 338 124 m 151 800 l 349 1017 l 506 1017 l 701 800 l 554 800 l 426 907 l 299 800 l 151 800 m 664 994 l 417 1211 l 622 1211 l 819 994 l 664 994 z "},"ẩ":{"ha":856,"x_min":111,"x_max":726,"o":"m 374 -17 q 240 10 299 -17 q 146 89 181 36 q 111 219 111 141 q 153 353 111 301 q 259 430 194 405 q 394 454 324 454 q 491 445 449 454 q 571 417 533 435 l 571 458 q 554 534 571 506 q 506 574 538 562 q 431 586 474 586 q 314 567 372 586 q 206 514 256 547 l 157 644 q 283 702 208 677 q 444 726 358 726 q 541 717 492 726 q 633 680 591 708 q 701 600 675 653 q 726 460 726 547 l 726 0 l 571 0 l 571 56 q 494 6 542 28 q 374 -17 447 -17 m 403 124 q 502 145 461 124 q 571 194 544 167 l 571 286 q 502 309 542 301 q 419 318 463 318 q 312 295 358 318 q 265 219 265 272 q 301 150 265 177 q 403 124 338 124 m 151 800 l 349 1017 l 506 1017 l 701 800 l 554 800 l 426 907 l 299 800 l 151 800 m 368 1071 q 379 1132 368 1106 q 418 1182 390 1159 q 438 1201 433 1194 q 443 1215 443 1208 q 439 1226 443 1222 q 426 1231 434 1231 q 376 1192 401 1231 l 297 1242 q 347 1310 310 1283 q 432 1338 384 1338 q 522 1306 486 1338 q 557 1222 557 1274 q 543 1163 557 1183 q 514 1126 530 1142 q 492 1101 501 1114 q 482 1071 482 1089 l 368 1071 z "},"ẫ":{"ha":856,"x_min":111,"x_max":726,"o":"m 374 -17 q 240 10 299 -17 q 146 89 181 36 q 111 219 111 141 q 153 353 111 301 q 259 430 194 405 q 394 454 324 454 q 491 445 449 454 q 571 417 533 435 l 571 458 q 554 534 571 506 q 506 574 538 562 q 431 586 474 586 q 314 567 372 586 q 206 514 256 547 l 157 644 q 283 702 208 677 q 444 726 358 726 q 541 717 492 726 q 633 680 591 708 q 701 600 675 653 q 726 460 726 547 l 726 0 l 571 0 l 571 56 q 494 6 542 28 q 374 -17 447 -17 m 403 124 q 502 145 461 124 q 571 194 544 167 l 571 286 q 502 309 542 301 q 419 318 463 318 q 312 295 358 318 q 265 219 265 272 q 301 150 265 177 q 403 124 338 124 m 151 800 l 349 1017 l 506 1017 l 701 800 l 554 800 l 426 907 l 299 800 l 151 800 m 538 1096 q 466 1107 498 1096 q 404 1132 433 1119 q 356 1152 379 1144 q 308 1161 333 1161 q 264 1148 283 1161 q 243 1101 244 1134 l 167 1101 q 201 1233 167 1182 q 318 1283 235 1283 q 390 1272 358 1283 q 451 1247 423 1261 q 499 1227 475 1236 q 547 1218 522 1218 q 593 1232 574 1218 q 613 1278 612 1246 l 689 1278 q 655 1147 689 1198 q 538 1096 621 1096 z "},"ȁ":{"ha":856,"x_min":-46,"x_max":726,"o":"m 374 -17 q 240 10 299 -17 q 146 89 181 36 q 111 219 111 141 q 153 353 111 301 q 259 430 194 405 q 394 454 324 454 q 491 445 449 454 q 571 417 533 435 l 571 458 q 554 534 571 506 q 506 574 538 562 q 431 586 474 586 q 314 567 372 586 q 206 514 256 547 l 157 644 q 283 702 208 677 q 444 726 358 726 q 541 717 492 726 q 633 680 591 708 q 701 600 675 653 q 726 460 726 547 l 726 0 l 571 0 l 571 56 q 494 6 542 28 q 374 -17 447 -17 m 403 124 q 502 145 461 124 q 571 194 544 167 l 571 286 q 502 309 542 301 q 419 318 463 318 q 312 295 358 318 q 265 219 265 272 q 301 150 265 177 q 403 124 338 124 m 507 800 l 260 1017 l 485 1017 l 682 800 l 507 800 m 201 800 l -46 1017 l 179 1017 l 376 800 l 201 800 z "},"ä":{"ha":856,"x_min":111,"x_max":726,"o":"m 374 -17 q 240 10 299 -17 q 146 89 181 36 q 111 219 111 141 q 153 353 111 301 q 259 430 194 405 q 394 454 324 454 q 491 445 449 454 q 571 417 533 435 l 571 458 q 554 534 571 506 q 506 574 538 562 q 431 586 474 586 q 314 567 372 586 q 206 514 256 547 l 157 644 q 283 702 208 677 q 444 726 358 726 q 541 717 492 726 q 633 680 591 708 q 701 600 675 653 q 726 460 726 547 l 726 0 l 571 0 l 571 56 q 494 6 542 28 q 374 -17 447 -17 m 403 124 q 502 145 461 124 q 571 194 544 167 l 571 286 q 502 309 542 301 q 419 318 463 318 q 312 295 358 318 q 265 219 265 272 q 301 150 265 177 q 403 124 338 124 m 300 815 q 234 842 260 815 q 208 908 208 869 q 234 974 208 947 q 300 1000 260 1000 q 366 974 340 1000 q 393 908 393 947 q 366 842 393 869 q 300 815 340 815 m 556 815 q 490 842 516 815 q 464 908 464 869 q 490 974 464 947 q 556 1000 516 1000 q 622 974 595 1000 q 649 908 649 947 q 622 842 649 869 q 556 815 595 815 z "},"ǟ":{"ha":856,"x_min":111,"x_max":726,"o":"m 374 -17 q 240 10 299 -17 q 146 89 181 36 q 111 219 111 141 q 153 353 111 301 q 259 430 194 405 q 394 454 324 454 q 491 445 449 454 q 571 417 533 435 l 571 458 q 554 534 571 506 q 506 574 538 562 q 431 586 474 586 q 314 567 372 586 q 206 514 256 547 l 157 644 q 283 702 208 677 q 444 726 358 726 q 541 717 492 726 q 633 680 591 708 q 701 600 675 653 q 726 460 726 547 l 726 0 l 571 0 l 571 56 q 494 6 542 28 q 374 -17 447 -17 m 403 124 q 502 145 461 124 q 571 194 544 167 l 571 286 q 502 309 542 301 q 419 318 463 318 q 312 295 358 318 q 265 219 265 272 q 301 150 265 177 q 403 124 338 124 m 300 815 q 234 842 260 815 q 208 908 208 869 q 234 974 208 947 q 300 1000 260 1000 q 366 974 340 1000 q 393 908 393 947 q 366 842 393 869 q 300 815 340 815 m 556 815 q 490 842 516 815 q 464 908 464 869 q 490 974 464 947 q 556 1000 516 1000 q 622 974 595 1000 q 649 908 649 947 q 622 842 649 869 q 556 815 595 815 m 199 1086 l 199 1217 l 657 1217 l 657 1086 l 199 1086 z "},"ȧ":{"ha":856,"x_min":111,"x_max":726,"o":"m 374 -17 q 240 10 299 -17 q 146 89 181 36 q 111 219 111 141 q 153 353 111 301 q 259 430 194 405 q 394 454 324 454 q 491 445 449 454 q 571 417 533 435 l 571 458 q 554 534 571 506 q 506 574 538 562 q 431 586 474 586 q 314 567 372 586 q 206 514 256 547 l 157 644 q 283 702 208 677 q 444 726 358 726 q 541 717 492 726 q 633 680 591 708 q 701 600 675 653 q 726 460 726 547 l 726 0 l 571 0 l 571 56 q 494 6 542 28 q 374 -17 447 -17 m 403 124 q 502 145 461 124 q 571 194 544 167 l 571 286 q 502 309 542 301 q 419 318 463 318 q 312 295 358 318 q 265 219 265 272 q 301 150 265 177 q 403 124 338 124 m 428 815 q 362 842 388 815 q 336 908 336 869 q 362 974 336 947 q 428 1000 388 1000 q 494 974 467 1000 q 521 908 521 947 q 494 842 521 869 q 428 815 467 815 z "},"ạ":{"ha":856,"x_min":111,"x_max":726,"o":"m 374 -17 q 240 10 299 -17 q 146 89 181 36 q 111 219 111 141 q 153 353 111 301 q 259 430 194 405 q 394 454 324 454 q 491 445 449 454 q 571 417 533 435 l 571 458 q 554 534 571 506 q 506 574 538 562 q 431 586 474 586 q 314 567 372 586 q 206 514 256 547 l 157 644 q 283 702 208 677 q 444 726 358 726 q 541 717 492 726 q 633 680 591 708 q 701 600 675 653 q 726 460 726 547 l 726 0 l 571 0 l 571 56 q 494 6 542 28 q 374 -17 447 -17 m 403 124 q 502 145 461 124 q 571 194 544 167 l 571 286 q 502 309 542 301 q 419 318 463 318 q 312 295 358 318 q 265 219 265 272 q 301 150 265 177 q 403 124 338 124 m 428 -300 q 355 -270 384 -300 q 326 -199 326 -241 q 355 -126 326 -155 q 428 -97 384 -97 q 500 -126 471 -97 q 529 -199 529 -155 q 500 -270 529 -241 q 428 -300 471 -300 z "},"ǡ":{"ha":856,"x_min":111,"x_max":726,"o":"m 374 -17 q 240 10 299 -17 q 146 89 181 36 q 111 219 111 141 q 153 353 111 301 q 259 430 194 405 q 394 454 324 454 q 491 445 449 454 q 571 417 533 435 l 571 458 q 554 534 571 506 q 506 574 538 562 q 431 586 474 586 q 314 567 372 586 q 206 514 256 547 l 157 644 q 283 702 208 677 q 444 726 358 726 q 541 717 492 726 q 633 680 591 708 q 701 600 675 653 q 726 460 726 547 l 726 0 l 571 0 l 571 56 q 494 6 542 28 q 374 -17 447 -17 m 403 124 q 502 145 461 124 q 571 194 544 167 l 571 286 q 502 309 542 301 q 419 318 463 318 q 312 295 358 318 q 265 219 265 272 q 301 150 265 177 q 403 124 338 124 m 428 815 q 362 842 388 815 q 336 908 336 869 q 362 974 336 947 q 428 1000 388 1000 q 494 974 467 1000 q 521 908 521 947 q 494 842 521 869 q 428 815 467 815 m 199 1114 l 199 1244 l 657 1244 l 657 1114 l 199 1114 z "},"à":{"ha":856,"x_min":111,"x_max":726,"o":"m 374 -17 q 240 10 299 -17 q 146 89 181 36 q 111 219 111 141 q 153 353 111 301 q 259 430 194 405 q 394 454 324 454 q 491 445 449 454 q 571 417 533 435 l 571 458 q 554 534 571 506 q 506 574 538 562 q 431 586 474 586 q 314 567 372 586 q 206 514 256 547 l 157 644 q 283 702 208 677 q 444 726 358 726 q 541 717 492 726 q 633 680 591 708 q 701 600 675 653 q 726 460 726 547 l 726 0 l 571 0 l 571 56 q 494 6 542 28 q 374 -17 447 -17 m 403 124 q 502 145 461 124 q 571 194 544 167 l 571 286 q 502 309 542 301 q 419 318 463 318 q 312 295 358 318 q 265 219 265 272 q 301 150 265 177 q 403 124 338 124 m 376 800 l 129 1017 l 335 1017 l 532 800 l 376 800 z "},"ả":{"ha":856,"x_min":111,"x_max":726,"o":"m 374 -17 q 240 10 299 -17 q 146 89 181 36 q 111 219 111 141 q 153 353 111 301 q 259 430 194 405 q 394 454 324 454 q 491 445 449 454 q 571 417 533 435 l 571 458 q 554 534 571 506 q 506 574 538 562 q 431 586 474 586 q 314 567 372 586 q 206 514 256 547 l 157 644 q 283 702 208 677 q 444 726 358 726 q 541 717 492 726 q 633 680 591 708 q 701 600 675 653 q 726 460 726 547 l 726 0 l 571 0 l 571 56 q 494 6 542 28 q 374 -17 447 -17 m 403 124 q 502 145 461 124 q 571 194 544 167 l 571 286 q 502 309 542 301 q 419 318 463 318 q 312 295 358 318 q 265 219 265 272 q 301 150 265 177 q 403 124 338 124 m 368 764 q 379 825 368 799 q 418 875 390 852 q 438 894 433 887 q 443 908 443 901 q 439 919 443 915 q 426 924 434 924 q 376 885 401 924 l 297 935 q 347 1003 310 976 q 432 1031 384 1031 q 522 999 486 1031 q 557 915 557 967 q 543 856 557 876 q 514 819 530 835 q 492 794 501 807 q 482 764 482 782 l 368 764 z "},"ȃ":{"ha":856,"x_min":111,"x_max":726,"o":"m 374 -17 q 240 10 299 -17 q 146 89 181 36 q 111 219 111 141 q 153 353 111 301 q 259 430 194 405 q 394 454 324 454 q 491 445 449 454 q 571 417 533 435 l 571 458 q 554 534 571 506 q 506 574 538 562 q 431 586 474 586 q 314 567 372 586 q 206 514 256 547 l 157 644 q 283 702 208 677 q 444 726 358 726 q 541 717 492 726 q 633 680 591 708 q 701 600 675 653 q 726 460 726 547 l 726 0 l 571 0 l 571 56 q 494 6 542 28 q 374 -17 447 -17 m 403 124 q 502 145 461 124 q 571 194 544 167 l 571 286 q 502 309 542 301 q 419 318 463 318 q 312 295 358 318 q 265 219 265 272 q 301 150 265 177 q 403 124 338 124 m 164 794 q 192 911 164 858 q 280 998 221 965 q 429 1031 338 1031 q 579 998 521 1031 q 665 911 638 965 q 693 794 693 857 l 554 794 q 525 867 554 833 q 429 900 496 900 q 333 867 364 900 q 303 794 303 833 l 164 794 z "},"ɑ":{"ha":856,"x_min":90,"x_max":735,"o":"m 403 -17 q 236 27 306 -17 q 128 154 166 71 q 90 356 90 238 q 130 554 90 471 q 239 682 169 637 q 399 726 308 726 q 504 707 458 726 q 575 658 549 687 l 575 710 l 735 710 l 735 0 l 575 0 l 575 54 q 510 6 556 28 q 403 -17 465 -17 m 425 136 q 517 154 481 136 q 575 206 552 172 l 575 506 q 522 552 558 528 q 422 575 486 575 q 296 518 340 575 q 251 356 251 462 q 272 241 251 290 q 330 164 292 192 q 425 136 369 136 z "},"ɒ":{"ha":856,"x_min":121,"x_max":765,"o":"m 457 -17 q 352 3 398 -17 q 281 51 307 24 l 281 0 l 121 0 l 121 710 l 281 710 l 281 656 q 346 704 301 682 q 453 726 392 726 q 619 683 549 726 q 727 556 690 639 q 765 354 765 472 q 726 156 765 239 q 617 28 686 73 q 457 -17 547 -17 m 433 135 q 560 191 516 135 q 604 354 604 248 q 584 469 604 419 q 526 546 565 518 q 431 574 487 574 q 339 556 374 574 q 281 504 303 539 l 281 204 q 334 158 297 181 q 433 135 370 135 z "},"ā":{"ha":856,"x_min":111,"x_max":726,"o":"m 374 -17 q 240 10 299 -17 q 146 89 181 36 q 111 219 111 141 q 153 353 111 301 q 259 430 194 405 q 394 454 324 454 q 491 445 449 454 q 571 417 533 435 l 571 458 q 554 534 571 506 q 506 574 538 562 q 431 586 474 586 q 314 567 372 586 q 206 514 256 547 l 157 644 q 283 702 208 677 q 444 726 358 726 q 541 717 492 726 q 633 680 591 708 q 701 600 675 653 q 726 460 726 547 l 726 0 l 571 0 l 571 56 q 494 6 542 28 q 374 -17 447 -17 m 403 124 q 502 145 461 124 q 571 194 544 167 l 571 286 q 502 309 542 301 q 419 318 463 318 q 312 295 358 318 q 265 219 265 272 q 301 150 265 177 q 403 124 338 124 m 199 824 l 199 954 l 657 954 l 657 824 l 199 824 z "},"ą":{"ha":856,"x_min":111,"x_max":749,"o":"m 590 -350 q 469 -310 517 -350 q 422 -203 422 -270 q 462 -81 422 -133 q 571 0 501 -30 l 571 56 q 494 6 542 28 q 374 -17 447 -17 q 240 10 299 -17 q 146 89 181 36 q 111 219 111 141 q 153 353 111 301 q 259 430 194 405 q 394 454 324 454 q 491 445 449 454 q 571 417 533 435 l 571 458 q 554 534 571 506 q 506 574 538 562 q 431 586 474 586 q 314 567 372 586 q 206 514 256 547 l 157 644 q 283 702 208 677 q 444 726 358 726 q 541 717 492 726 q 633 680 591 708 q 701 600 675 653 q 726 460 726 547 l 726 0 q 593 -91 632 -38 q 554 -189 554 -143 q 572 -239 554 -223 q 613 -254 590 -254 q 648 -246 633 -254 q 672 -226 663 -237 l 749 -281 q 691 -327 729 -303 q 590 -350 653 -350 m 403 124 q 502 145 461 124 q 571 194 544 167 l 571 286 q 502 309 542 301 q 419 318 463 318 q 312 295 358 318 q 265 219 265 272 q 301 150 265 177 q 403 124 338 124 z "},"å":{"ha":856,"x_min":111,"x_max":726,"o":"m 374 -17 q 240 10 299 -17 q 146 89 181 36 q 111 219 111 141 q 153 353 111 301 q 259 430 194 405 q 394 454 324 454 q 491 445 449 454 q 571 417 533 435 l 571 458 q 554 534 571 506 q 506 574 538 562 q 431 586 474 586 q 314 567 372 586 q 206 514 256 547 l 157 644 q 283 702 208 677 q 444 726 358 726 q 541 717 492 726 q 633 680 591 708 q 701 600 675 653 q 726 460 726 547 l 726 0 l 571 0 l 571 56 q 494 6 542 28 q 374 -17 447 -17 m 403 124 q 502 145 461 124 q 571 194 544 167 l 571 286 q 502 309 542 301 q 419 318 463 318 q 312 295 358 318 q 265 219 265 272 q 301 150 265 177 q 403 124 338 124 m 428 764 q 340 788 380 764 q 277 850 301 811 q 253 938 253 890 q 277 1025 253 986 q 340 1087 301 1064 q 428 1110 380 1110 q 516 1087 476 1110 q 579 1025 556 1064 q 603 938 603 986 q 579 850 603 890 q 516 788 556 811 q 428 764 476 764 m 428 875 q 470 893 452 875 q 488 938 488 910 q 470 982 488 965 q 428 1000 452 1000 q 385 982 402 1000 q 368 938 368 965 q 385 893 368 910 q 428 875 402 875 z "},"ǻ":{"ha":856,"x_min":111,"x_max":750,"o":"m 374 -17 q 240 10 299 -17 q 146 89 181 36 q 111 219 111 141 q 153 353 111 301 q 259 430 194 405 q 394 454 324 454 q 491 445 449 454 q 571 417 533 435 l 571 458 q 554 534 571 506 q 506 574 538 562 q 431 586 474 586 q 314 567 372 586 q 206 514 256 547 l 157 644 q 283 702 208 677 q 444 726 358 726 q 541 717 492 726 q 633 680 591 708 q 701 600 675 653 q 726 460 726 547 l 726 0 l 571 0 l 571 56 q 494 6 542 28 q 374 -17 447 -17 m 403 124 q 502 145 461 124 q 571 194 544 167 l 571 286 q 502 309 542 301 q 419 318 463 318 q 312 295 358 318 q 265 219 265 272 q 301 150 265 177 q 403 124 338 124 m 428 764 q 340 788 380 764 q 277 850 301 811 q 253 938 253 890 q 277 1025 253 986 q 340 1087 301 1064 q 428 1110 380 1110 q 516 1087 476 1110 q 579 1025 556 1064 q 603 938 603 986 q 579 850 603 890 q 516 788 556 811 q 428 764 476 764 m 428 875 q 470 893 452 875 q 488 938 488 910 q 470 982 488 965 q 428 1000 452 1000 q 385 982 402 1000 q 368 938 368 965 q 385 893 368 910 q 428 875 402 875 m 328 1157 l 525 1374 l 750 1374 l 503 1157 l 328 1157 z "},"ã":{"ha":856,"x_min":111,"x_max":726,"o":"m 374 -17 q 240 10 299 -17 q 146 89 181 36 q 111 219 111 141 q 153 353 111 301 q 259 430 194 405 q 394 454 324 454 q 491 445 449 454 q 571 417 533 435 l 571 458 q 554 534 571 506 q 506 574 538 562 q 431 586 474 586 q 314 567 372 586 q 206 514 256 547 l 157 644 q 283 702 208 677 q 444 726 358 726 q 541 717 492 726 q 633 680 591 708 q 701 600 675 653 q 726 460 726 547 l 726 0 l 571 0 l 571 56 q 494 6 542 28 q 374 -17 447 -17 m 403 124 q 502 145 461 124 q 571 194 544 167 l 571 286 q 502 309 542 301 q 419 318 463 318 q 312 295 358 318 q 265 219 265 272 q 301 150 265 177 q 403 124 338 124 m 538 817 q 466 828 498 817 q 404 853 433 840 q 356 873 379 865 q 308 882 333 882 q 264 868 283 882 q 243 822 244 855 l 167 822 q 201 953 167 903 q 318 1004 235 1004 q 390 993 358 1004 q 451 968 423 982 q 499 948 475 957 q 547 939 522 939 q 593 953 574 939 q 613 999 612 967 l 689 999 q 655 868 689 919 q 538 817 621 817 z "},"ɐ":{"ha":856,"x_min":129,"x_max":744,"o":"m 411 -17 q 314 -7 364 -17 q 223 30 265 2 q 155 110 181 57 q 129 250 129 163 l 129 710 l 285 710 l 285 654 q 361 705 314 683 q 482 726 409 726 q 616 700 556 726 q 710 621 675 674 q 744 490 744 569 q 703 357 744 408 q 596 280 661 305 q 461 256 531 256 q 365 265 407 256 q 285 293 322 274 l 285 251 q 302 176 285 204 q 350 136 319 148 q 425 124 381 124 q 542 143 485 124 q 650 196 600 163 l 699 65 q 573 8 648 33 q 411 -17 498 -17 m 436 392 q 544 415 498 392 q 590 490 590 438 q 555 560 590 533 q 453 586 519 586 q 353 565 394 586 q 285 515 312 544 l 285 424 q 353 400 314 409 q 436 392 392 392 z "},"æ":{"ha":856,"x_min":25,"x_max":829,"o":"m 221 -17 q 82 43 139 -17 q 25 219 25 102 q 56 355 25 303 q 134 432 86 408 q 236 457 183 457 q 298 448 269 457 q 351 422 326 439 l 351 447 q 331 555 351 512 q 253 599 311 599 q 175 577 215 599 q 99 521 134 556 l 61 644 q 155 702 101 677 q 272 726 210 726 q 371 699 333 726 q 432 619 409 671 q 505 698 459 669 q 611 726 551 726 q 718 690 669 726 q 799 578 768 653 q 829 390 829 503 q 827 340 829 363 q 821 293 825 316 l 479 293 q 498 203 482 245 q 542 136 515 162 q 606 111 569 111 q 665 131 638 111 q 718 190 692 151 l 786 93 q 705 14 753 45 q 600 -17 656 -17 q 494 16 541 -17 q 417 104 448 48 q 327 11 379 40 q 221 -17 274 -17 m 243 110 q 291 125 268 110 q 333 162 315 140 q 361 208 351 185 q 355 247 358 224 q 351 289 351 269 q 307 320 333 308 q 253 332 281 332 q 184 305 215 332 q 153 218 153 278 q 176 140 153 170 q 243 110 199 110 m 479 417 l 701 417 q 688 516 701 476 q 652 578 675 557 q 600 599 629 599 q 520 556 556 599 q 479 417 485 513 z "},"ǽ":{"ha":856,"x_min":25,"x_max":829,"o":"m 221 -17 q 82 43 139 -17 q 25 219 25 102 q 56 355 25 303 q 134 432 86 408 q 236 457 183 457 q 298 448 269 457 q 351 422 326 439 l 351 447 q 331 555 351 512 q 253 599 311 599 q 175 577 215 599 q 99 521 134 556 l 61 644 q 155 702 101 677 q 272 726 210 726 q 371 699 333 726 q 432 619 409 671 q 505 698 459 669 q 611 726 551 726 q 718 690 669 726 q 799 578 768 653 q 829 390 829 503 q 827 340 829 363 q 821 293 825 316 l 479 293 q 498 203 482 245 q 542 136 515 162 q 606 111 569 111 q 665 131 638 111 q 718 190 692 151 l 786 93 q 705 14 753 45 q 600 -17 656 -17 q 494 16 541 -17 q 417 104 448 48 q 327 11 379 40 q 221 -17 274 -17 m 243 110 q 291 125 268 110 q 333 162 315 140 q 361 208 351 185 q 355 247 358 224 q 351 289 351 269 q 307 320 333 308 q 253 332 281 332 q 184 305 215 332 q 153 218 153 278 q 176 140 153 170 q 243 110 199 110 m 479 417 l 701 417 q 688 516 701 476 q 652 578 675 557 q 600 599 629 599 q 520 556 556 599 q 479 417 485 513 m 328 800 l 525 1017 l 750 1017 l 503 800 l 328 800 z "},"ǣ":{"ha":856,"x_min":25,"x_max":829,"o":"m 221 -17 q 82 43 139 -17 q 25 219 25 102 q 56 355 25 303 q 134 432 86 408 q 236 457 183 457 q 298 448 269 457 q 351 422 326 439 l 351 447 q 331 555 351 512 q 253 599 311 599 q 175 577 215 599 q 99 521 134 556 l 61 644 q 155 702 101 677 q 272 726 210 726 q 371 699 333 726 q 432 619 409 671 q 505 698 459 669 q 611 726 551 726 q 718 690 669 726 q 799 578 768 653 q 829 390 829 503 q 827 340 829 363 q 821 293 825 316 l 479 293 q 498 203 482 245 q 542 136 515 162 q 606 111 569 111 q 665 131 638 111 q 718 190 692 151 l 786 93 q 705 14 753 45 q 600 -17 656 -17 q 494 16 541 -17 q 417 104 448 48 q 327 11 379 40 q 221 -17 274 -17 m 243 110 q 291 125 268 110 q 333 162 315 140 q 361 208 351 185 q 355 247 358 224 q 351 289 351 269 q 307 320 333 308 q 253 332 281 332 q 184 305 215 332 q 153 218 153 278 q 176 140 153 170 q 243 110 199 110 m 479 417 l 701 417 q 688 516 701 476 q 652 578 675 557 q 600 599 629 599 q 520 556 556 599 q 479 417 485 513 m 199 824 l 199 954 l 657 954 l 657 824 l 199 824 z "},"b":{"ha":856,"x_min":122,"x_max":765,"o":"m 463 -17 q 355 3 399 -17 q 282 54 311 22 l 282 0 l 122 0 l 122 929 l 282 1003 l 282 654 q 362 707 311 687 q 465 726 413 726 q 620 682 553 726 q 727 554 688 637 q 765 356 765 471 q 684 80 765 176 q 463 -17 602 -17 m 438 136 q 563 195 522 136 q 604 356 604 255 q 562 518 604 462 q 438 575 520 575 q 368 564 399 575 q 316 536 338 553 q 282 504 294 520 l 282 206 q 346 154 307 172 q 438 136 385 136 z "},"ḅ":{"ha":856,"x_min":122,"x_max":765,"o":"m 463 -17 q 355 3 399 -17 q 282 54 311 22 l 282 0 l 122 0 l 122 929 l 282 1003 l 282 654 q 362 707 311 687 q 465 726 413 726 q 620 682 553 726 q 727 554 688 637 q 765 356 765 471 q 684 80 765 176 q 463 -17 602 -17 m 438 136 q 563 195 522 136 q 604 356 604 255 q 562 518 604 462 q 438 575 520 575 q 368 564 399 575 q 316 536 338 553 q 282 504 294 520 l 282 206 q 346 154 307 172 q 438 136 385 136 m 424 -300 q 351 -270 380 -300 q 322 -199 322 -241 q 351 -126 322 -155 q 424 -97 380 -97 q 496 -126 467 -97 q 525 -199 525 -155 q 496 -270 525 -241 q 424 -300 467 -300 z "},"ɓ":{"ha":856,"x_min":122,"x_max":765,"o":"m 463 -17 q 355 3 399 -17 q 282 54 311 22 l 282 0 l 122 0 l 122 731 q 171 944 122 872 q 335 1042 220 1016 l 410 924 q 306 858 330 900 q 282 735 282 815 l 282 654 q 362 707 311 687 q 465 726 413 726 q 620 682 553 726 q 727 554 688 637 q 765 356 765 471 q 684 80 765 176 q 463 -17 602 -17 m 438 136 q 563 195 522 136 q 604 356 604 255 q 562 518 604 462 q 438 575 520 575 q 368 564 399 575 q 316 536 338 553 q 282 504 294 520 l 282 206 q 346 154 307 172 q 438 136 385 136 z "},"ʬ":{"ha":856,"x_min":141,"x_max":715,"o":"m 251 549 l 141 972 l 252 972 l 304 757 q 309 738 306 749 q 312 717 311 728 q 315 739 313 728 q 319 758 317 749 l 369 972 l 487 972 l 536 758 q 541 737 539 748 q 544 716 543 726 q 548 737 546 726 q 552 758 549 748 l 604 972 l 715 972 l 604 549 l 488 549 l 439 761 q 433 789 436 772 q 428 819 431 806 q 422 789 426 806 q 415 761 418 772 l 368 549 l 251 549 m 251 0 l 141 423 l 252 423 l 304 208 q 309 190 306 200 q 312 169 311 179 q 315 190 313 179 q 319 210 317 201 l 369 423 l 487 423 l 536 210 q 541 188 539 199 q 544 167 543 177 q 548 188 546 177 q 552 210 549 199 l 604 423 l 715 423 l 604 0 l 488 0 l 439 213 q 433 240 436 224 q 428 271 431 257 q 422 240 426 257 q 415 213 418 224 l 368 0 l 251 0 z "},"c":{"ha":856,"x_min":117,"x_max":740,"o":"m 442 -17 q 205 81 293 -17 q 117 354 117 179 q 158 553 117 470 q 272 682 199 637 q 444 726 346 726 q 629 680 555 726 q 736 533 703 633 l 585 482 q 536 549 569 523 q 446 575 502 575 q 323 515 366 575 q 279 354 279 454 q 323 195 279 253 q 443 136 366 136 q 536 163 501 136 q 589 240 572 190 l 740 193 q 635 37 709 90 q 442 -17 560 -17 z "},"ć":{"ha":856,"x_min":117,"x_max":761,"o":"m 442 -17 q 205 81 293 -17 q 117 354 117 179 q 158 553 117 470 q 272 682 199 637 q 444 726 346 726 q 629 680 555 726 q 736 533 703 633 l 585 482 q 536 549 569 523 q 446 575 502 575 q 323 515 366 575 q 279 354 279 454 q 323 195 279 253 q 443 136 366 136 q 536 163 501 136 q 589 240 572 190 l 740 193 q 635 37 709 90 q 442 -17 560 -17 m 339 800 l 536 1017 l 761 1017 l 514 800 l 339 800 z "},"č":{"ha":856,"x_min":117,"x_max":740,"o":"m 442 -17 q 205 81 293 -17 q 117 354 117 179 q 158 553 117 470 q 272 682 199 637 q 444 726 346 726 q 629 680 555 726 q 736 533 703 633 l 585 482 q 536 549 569 523 q 446 575 502 575 q 323 515 366 575 q 279 354 279 454 q 323 195 279 253 q 443 136 366 136 q 536 163 501 136 q 589 240 572 190 l 740 193 q 635 37 709 90 q 442 -17 560 -17 m 360 800 l 164 1017 l 311 1017 l 439 910 l 567 1017 l 714 1017 l 518 800 l 360 800 z "},"ç":{"ha":856,"x_min":117,"x_max":740,"o":"m 442 -17 q 205 81 293 -17 q 117 354 117 179 q 158 553 117 470 q 272 682 199 637 q 444 726 346 726 q 629 680 555 726 q 736 533 703 633 l 585 482 q 536 549 569 523 q 446 575 502 575 q 323 515 366 575 q 279 354 279 454 q 323 195 279 253 q 443 136 366 136 q 536 163 501 136 q 589 240 572 190 l 740 193 q 635 37 709 90 q 442 -17 560 -17 m 421 -336 q 333 -319 368 -336 q 276 -276 297 -302 l 350 -222 q 372 -240 358 -233 q 406 -246 386 -246 q 455 -230 437 -246 q 474 -187 474 -213 q 454 -147 474 -162 q 401 -131 434 -131 q 344 -147 369 -131 l 313 -107 l 411 14 l 497 14 l 447 -67 q 565 -103 528 -67 q 601 -189 601 -139 q 553 -295 601 -253 q 421 -336 506 -336 z "},"ĉ":{"ha":856,"x_min":117,"x_max":740,"o":"m 442 -17 q 205 81 293 -17 q 117 354 117 179 q 158 553 117 470 q 272 682 199 637 q 444 726 346 726 q 629 680 555 726 q 736 533 703 633 l 585 482 q 536 549 569 523 q 446 575 502 575 q 323 515 366 575 q 279 354 279 454 q 323 195 279 253 q 443 136 366 136 q 536 163 501 136 q 589 240 572 190 l 740 193 q 635 37 709 90 q 442 -17 560 -17 m 163 800 l 360 1017 l 517 1017 l 713 800 l 565 800 l 438 907 l 310 800 l 163 800 z "},"ċ":{"ha":856,"x_min":117,"x_max":740,"o":"m 442 -17 q 205 81 293 -17 q 117 354 117 179 q 158 553 117 470 q 272 682 199 637 q 444 726 346 726 q 629 680 555 726 q 736 533 703 633 l 585 482 q 536 549 569 523 q 446 575 502 575 q 323 515 366 575 q 279 354 279 454 q 323 195 279 253 q 443 136 366 136 q 536 163 501 136 q 589 240 572 190 l 740 193 q 635 37 709 90 q 442 -17 560 -17 m 439 815 q 373 842 399 815 q 347 908 347 869 q 373 974 347 947 q 439 1000 399 1000 q 505 974 478 1000 q 532 908 532 947 q 505 842 532 869 q 439 815 478 815 z "},"ƈ":{"ha":856,"x_min":82,"x_max":845,"o":"m 401 -17 q 168 83 253 -17 q 82 354 82 183 q 121 552 82 469 q 233 681 160 635 q 403 726 305 726 q 519 708 467 726 l 519 726 q 582 941 519 865 q 758 1042 644 1017 l 845 903 q 753 869 786 889 q 706 817 719 849 q 692 732 692 785 l 692 531 l 549 482 q 500 549 534 523 q 410 575 467 575 q 287 515 331 575 q 244 354 244 454 q 287 195 244 253 q 408 136 331 136 q 501 163 465 136 q 553 240 537 190 l 705 193 q 594 34 674 84 q 401 -17 514 -17 z "},"d":{"ha":856,"x_min":90,"x_max":735,"o":"m 403 -17 q 236 27 306 -17 q 128 154 166 71 q 90 356 90 238 q 130 554 90 471 q 239 682 169 637 q 399 726 308 726 q 504 707 458 726 q 575 658 549 687 l 575 929 l 735 1003 l 735 0 l 575 0 l 575 54 q 510 6 556 28 q 403 -17 465 -17 m 425 136 q 517 154 481 136 q 575 206 552 172 l 575 506 q 522 552 558 528 q 422 575 486 575 q 296 518 340 575 q 251 356 251 462 q 272 241 251 290 q 330 164 292 192 q 425 136 369 136 z "},"ð":{"ha":856,"x_min":107,"x_max":749,"o":"m 428 -17 q 262 25 334 -17 q 148 141 190 67 q 107 307 107 214 q 147 472 107 398 q 257 590 187 546 q 418 633 327 633 q 506 616 468 633 q 568 572 543 599 q 529 678 559 626 q 458 764 499 730 l 375 678 l 289 760 l 351 824 q 288 842 322 835 q 217 850 253 849 l 217 989 q 348 974 288 988 q 457 936 408 959 l 536 1019 l 622 936 l 558 869 q 701 658 654 788 q 749 372 749 528 q 714 173 749 261 q 607 34 678 85 q 428 -17 536 -17 m 428 136 q 509 158 473 136 q 566 219 545 181 q 588 306 588 257 q 567 398 588 358 q 509 460 546 438 q 426 482 473 482 q 346 460 382 482 q 289 399 310 438 q 268 307 268 359 q 290 219 268 258 q 348 158 312 181 q 428 136 384 136 z "},"ď":{"ha":856,"x_min":8,"x_max":906,"o":"m 321 -17 q 154 27 224 -17 q 46 154 84 71 q 8 356 8 238 q 48 554 8 471 q 157 682 88 637 q 317 726 226 726 q 422 707 376 726 q 493 658 467 687 l 493 929 l 653 1003 l 653 0 l 493 0 l 493 54 q 428 6 474 28 q 321 -17 383 -17 m 343 136 q 435 154 399 136 q 493 206 470 172 l 493 506 q 440 552 476 528 q 340 575 404 575 q 214 518 258 575 q 169 356 169 462 q 190 241 169 290 q 248 164 210 192 q 343 136 287 136 m 763 665 l 713 703 q 734 778 725 728 q 749 890 744 828 q 754 1014 754 951 l 906 1014 l 906 1003 q 868 813 906 894 q 763 665 831 731 z "},"ḓ":{"ha":856,"x_min":90,"x_max":735,"o":"m 403 -17 q 236 27 306 -17 q 128 154 166 71 q 90 356 90 238 q 130 554 90 471 q 239 682 169 637 q 399 726 308 726 q 504 707 458 726 q 575 658 549 687 l 575 929 l 735 1003 l 735 0 l 575 0 l 575 54 q 510 6 556 28 q 403 -17 465 -17 m 425 136 q 517 154 481 136 q 575 206 552 172 l 575 506 q 522 552 558 528 q 422 575 486 575 q 296 518 340 575 q 251 356 251 462 q 272 241 251 290 q 330 164 292 192 q 425 136 369 136 m 156 -318 l 353 -101 l 510 -101 l 706 -318 l 558 -318 l 431 -211 l 303 -318 l 156 -318 z "},"đ":{"ha":856,"x_min":78,"x_max":788,"o":"m 374 -17 q 217 26 284 -17 q 114 147 151 69 q 78 333 78 226 q 116 517 78 439 q 222 639 155 596 q 375 682 289 682 q 472 663 433 682 q 538 614 512 643 l 538 751 l 368 751 l 368 878 l 538 878 l 538 929 l 697 1003 l 697 878 l 788 878 l 788 751 l 697 751 l 697 0 l 538 0 l 538 54 q 473 2 513 21 q 374 -17 433 -17 m 399 136 q 481 154 447 136 q 538 206 516 172 l 538 460 q 487 507 522 485 q 399 529 452 529 q 281 476 324 529 q 239 333 239 423 q 257 234 239 278 q 311 163 276 189 q 399 136 347 136 z "},"ḍ":{"ha":856,"x_min":90,"x_max":735,"o":"m 403 -17 q 236 27 306 -17 q 128 154 166 71 q 90 356 90 238 q 130 554 90 471 q 239 682 169 637 q 399 726 308 726 q 504 707 458 726 q 575 658 549 687 l 575 929 l 735 1003 l 735 0 l 575 0 l 575 54 q 510 6 556 28 q 403 -17 465 -17 m 425 136 q 517 154 481 136 q 575 206 552 172 l 575 506 q 522 552 558 528 q 422 575 486 575 q 296 518 340 575 q 251 356 251 462 q 272 241 251 290 q 330 164 292 192 q 425 136 369 136 m 431 -300 q 358 -270 387 -300 q 329 -199 329 -241 q 358 -126 329 -155 q 431 -97 387 -97 q 503 -126 474 -97 q 532 -199 532 -155 q 503 -270 532 -241 q 431 -300 474 -300 z "},"ʤ":{"ha":856,"x_min":0,"x_max":856,"o":"m 185 -17 q 48 78 97 -17 q 0 356 0 174 q 51 630 0 534 q 185 726 101 726 q 251 707 225 726 q 288 658 277 687 l 288 929 l 447 1003 l 447 0 l 288 0 l 288 54 q 250 4 276 24 q 185 -17 224 -17 m 228 136 q 265 155 251 136 q 288 206 280 174 l 288 506 q 268 552 283 528 q 226 575 253 575 q 176 524 190 575 q 161 356 161 472 q 176 192 161 247 q 228 136 190 136 m 632 -296 q 498 -243 552 -296 q 422 -96 444 -191 l 554 -38 q 582 -113 565 -87 q 626 -139 600 -139 q 674 -108 653 -139 q 694 -1 694 -77 q 659 127 694 86 q 574 168 624 168 l 497 255 l 659 565 l 436 565 l 436 710 l 844 710 l 844 592 l 677 281 q 802 201 749 269 q 856 -1 856 132 q 825 -168 856 -103 q 743 -265 794 -233 q 632 -296 692 -296 z "},"ɗ":{"ha":856,"x_min":90,"x_max":863,"o":"m 403 -17 q 236 27 306 -17 q 128 154 166 71 q 90 356 90 238 q 130 554 90 471 q 239 682 169 637 q 399 726 308 726 q 504 707 458 726 q 575 658 549 687 l 575 731 q 624 944 575 872 q 788 1042 673 1016 l 863 924 q 759 858 783 900 q 735 735 735 815 l 735 0 l 575 0 l 575 54 q 510 6 556 28 q 403 -17 465 -17 m 425 136 q 517 154 481 136 q 575 206 552 172 l 575 506 q 522 552 558 528 q 422 575 486 575 q 296 518 340 575 q 251 356 251 462 q 272 241 251 290 q 330 164 292 192 q 425 136 369 136 z "},"ḏ":{"ha":856,"x_min":90,"x_max":735,"o":"m 403 -17 q 236 27 306 -17 q 128 154 166 71 q 90 356 90 238 q 130 554 90 471 q 239 682 169 637 q 399 726 308 726 q 504 707 458 726 q 575 658 549 687 l 575 929 l 735 1003 l 735 0 l 575 0 l 575 54 q 510 6 556 28 q 403 -17 465 -17 m 425 136 q 517 154 481 136 q 575 206 552 172 l 575 506 q 522 552 558 528 q 422 575 486 575 q 296 518 340 575 q 251 356 251 462 q 272 241 251 290 q 330 164 292 192 q 425 136 369 136 m 201 -249 l 201 -101 l 660 -101 l 660 -249 l 201 -249 z "},"ɖ":{"ha":856,"x_min":90,"x_max":863,"o":"m 788 -336 q 624 -238 673 -310 q 575 -25 575 -165 l 575 54 q 510 6 556 28 q 403 -17 465 -17 q 236 27 306 -17 q 128 154 166 71 q 90 356 90 238 q 130 554 90 471 q 239 682 169 637 q 399 726 308 726 q 504 707 458 726 q 575 658 549 687 l 575 929 l 735 1003 l 735 -30 q 759 -152 735 -110 q 863 -218 783 -194 l 788 -336 m 425 136 q 517 154 481 136 q 575 206 552 172 l 575 506 q 522 552 558 528 q 422 575 486 575 q 296 518 340 575 q 251 356 251 462 q 272 241 251 290 q 330 164 292 192 q 425 136 369 136 z "},"ǳ":{"ha":856,"x_min":35,"x_max":797,"o":"m 492 0 l 492 121 l 646 567 l 518 567 l 518 710 l 797 710 l 797 592 l 643 143 l 796 143 l 796 0 l 492 0 m 194 -17 q 78 81 122 -17 q 35 356 35 178 q 80 627 35 528 q 197 726 126 726 q 253 707 228 726 q 290 658 277 687 l 290 942 l 424 1003 l 424 0 l 290 0 l 290 54 q 256 6 280 28 q 194 -17 231 -17 m 232 136 q 267 153 253 136 q 290 199 281 169 l 290 513 q 270 553 285 531 q 231 575 256 575 q 183 518 199 575 q 168 356 168 462 q 175 241 168 290 q 195 164 181 192 q 232 136 210 136 z "},"ʣ":{"ha":856,"x_min":0,"x_max":856,"o":"m 185 -17 q 48 78 97 -17 q 0 356 0 174 q 51 630 0 534 q 185 726 101 726 q 251 707 225 726 q 288 658 277 687 l 288 929 l 447 1003 l 447 0 l 288 0 l 288 54 q 250 4 276 24 q 185 -17 224 -17 m 228 136 q 265 155 251 136 q 288 206 280 174 l 288 506 q 268 552 283 528 q 226 575 253 575 q 176 524 190 575 q 161 356 161 472 q 176 192 161 247 q 228 136 190 136 m 491 0 l 491 121 l 659 565 l 429 565 l 429 710 l 844 710 l 844 592 l 667 143 l 856 143 l 856 0 l 491 0 z "},"ǆ":{"ha":856,"x_min":35,"x_max":856,"o":"m 492 0 l 492 121 l 646 567 l 518 567 l 518 710 l 797 710 l 797 592 l 643 143 l 796 143 l 796 0 l 492 0 m 585 800 l 458 1017 l 578 1017 l 657 900 l 736 1017 l 856 1017 l 729 800 l 585 800 m 194 -17 q 78 81 122 -17 q 35 356 35 178 q 80 627 35 528 q 197 726 126 726 q 253 707 228 726 q 290 658 277 687 l 290 942 l 424 1003 l 424 0 l 290 0 l 290 54 q 256 6 280 28 q 194 -17 231 -17 m 232 136 q 267 153 253 136 q 290 199 281 169 l 290 513 q 270 553 285 531 q 231 575 256 575 q 183 518 199 575 q 168 356 168 462 q 175 241 168 290 q 195 164 181 192 q 232 136 210 136 z "},"e":{"ha":856,"x_min":104,"x_max":751,"o":"m 443 -17 q 261 30 338 -17 q 145 159 185 76 q 104 356 104 243 q 146 554 104 471 q 264 682 188 637 q 443 726 340 726 q 599 690 528 726 q 710 580 669 654 q 751 390 751 506 q 751 346 751 372 q 746 293 750 320 l 226 293 l 226 429 l 594 429 q 567 519 590 484 q 513 570 545 553 q 443 586 480 586 q 302 525 345 586 q 258 358 258 464 q 307 189 258 253 q 444 125 356 125 q 530 142 492 125 q 601 194 568 158 l 697 93 q 589 14 653 44 q 443 -17 526 -17 z "},"é":{"ha":856,"x_min":104,"x_max":761,"o":"m 443 -17 q 261 30 338 -17 q 145 159 185 76 q 104 356 104 243 q 146 554 104 471 q 264 682 188 637 q 443 726 340 726 q 599 690 528 726 q 710 580 669 654 q 751 390 751 506 q 751 346 751 372 q 746 293 750 320 l 226 293 l 226 429 l 594 429 q 567 519 590 484 q 513 570 545 553 q 443 586 480 586 q 302 525 345 586 q 258 358 258 464 q 307 189 258 253 q 444 125 356 125 q 530 142 492 125 q 601 194 568 158 l 697 93 q 589 14 653 44 q 443 -17 526 -17 m 339 800 l 536 1017 l 761 1017 l 514 800 l 339 800 z "},"ĕ":{"ha":856,"x_min":104,"x_max":751,"o":"m 443 -17 q 261 30 338 -17 q 145 159 185 76 q 104 356 104 243 q 146 554 104 471 q 264 682 188 637 q 443 726 340 726 q 599 690 528 726 q 710 580 669 654 q 751 390 751 506 q 751 346 751 372 q 746 293 750 320 l 226 293 l 226 429 l 594 429 q 567 519 590 484 q 513 570 545 553 q 443 586 480 586 q 302 525 345 586 q 258 358 258 464 q 307 189 258 253 q 444 125 356 125 q 530 142 492 125 q 601 194 568 158 l 697 93 q 589 14 653 44 q 443 -17 526 -17 m 439 797 q 291 830 349 797 q 207 915 234 862 q 179 1031 179 968 l 307 1031 q 340 951 307 985 q 439 917 374 917 q 539 951 505 917 q 572 1031 572 985 l 700 1031 q 672 915 700 968 q 587 830 644 862 q 439 797 529 797 z "},"ě":{"ha":856,"x_min":104,"x_max":751,"o":"m 443 -17 q 261 30 338 -17 q 145 159 185 76 q 104 356 104 243 q 146 554 104 471 q 264 682 188 637 q 443 726 340 726 q 599 690 528 726 q 710 580 669 654 q 751 390 751 506 q 751 346 751 372 q 746 293 750 320 l 226 293 l 226 429 l 594 429 q 567 519 590 484 q 513 570 545 553 q 443 586 480 586 q 302 525 345 586 q 258 358 258 464 q 307 189 258 253 q 444 125 356 125 q 530 142 492 125 q 601 194 568 158 l 697 93 q 589 14 653 44 q 443 -17 526 -17 m 360 800 l 164 1017 l 311 1017 l 439 910 l 567 1017 l 714 1017 l 518 800 l 360 800 z "},"ȩ":{"ha":856,"x_min":104,"x_max":751,"o":"m 443 -17 q 261 30 338 -17 q 145 159 185 76 q 104 356 104 243 q 146 554 104 471 q 264 682 188 637 q 443 726 340 726 q 599 690 528 726 q 710 580 669 654 q 751 390 751 506 q 751 346 751 372 q 746 293 750 320 l 226 293 l 226 429 l 594 429 q 567 519 590 484 q 513 570 545 553 q 443 586 480 586 q 302 525 345 586 q 258 358 258 464 q 307 189 258 253 q 444 125 356 125 q 530 142 492 125 q 601 194 568 158 l 697 93 q 589 14 653 44 q 443 -17 526 -17 m 419 -336 q 331 -319 367 -336 q 275 -276 296 -302 l 349 -222 q 371 -240 357 -233 q 404 -246 385 -246 q 454 -230 435 -246 q 472 -187 472 -213 q 452 -147 472 -162 q 400 -131 433 -131 q 343 -147 368 -131 l 311 -107 l 410 14 l 496 14 l 446 -67 q 564 -103 527 -67 q 600 -189 600 -139 q 552 -295 600 -253 q 419 -336 504 -336 z "},"ê":{"ha":856,"x_min":104,"x_max":751,"o":"m 443 -17 q 261 30 338 -17 q 145 159 185 76 q 104 356 104 243 q 146 554 104 471 q 264 682 188 637 q 443 726 340 726 q 599 690 528 726 q 710 580 669 654 q 751 390 751 506 q 751 346 751 372 q 746 293 750 320 l 226 293 l 226 429 l 594 429 q 567 519 590 484 q 513 570 545 553 q 443 586 480 586 q 302 525 345 586 q 258 358 258 464 q 307 189 258 253 q 444 125 356 125 q 530 142 492 125 q 601 194 568 158 l 697 93 q 589 14 653 44 q 443 -17 526 -17 m 163 800 l 360 1017 l 517 1017 l 713 800 l 565 800 l 438 907 l 310 800 l 163 800 z "},"ế":{"ha":856,"x_min":104,"x_max":1021,"o":"m 443 -17 q 261 30 338 -17 q 145 159 185 76 q 104 356 104 243 q 146 554 104 471 q 264 682 188 637 q 443 726 340 726 q 599 690 528 726 q 710 580 669 654 q 751 390 751 506 q 751 346 751 372 q 746 293 750 320 l 226 293 l 226 429 l 594 429 q 567 519 590 484 q 513 570 545 553 q 443 586 480 586 q 302 525 345 586 q 258 358 258 464 q 307 189 258 253 q 444 125 356 125 q 530 142 492 125 q 601 194 568 158 l 697 93 q 589 14 653 44 q 443 -17 526 -17 m 163 800 l 360 1017 l 517 1017 l 713 800 l 565 800 l 438 907 l 310 800 l 163 800 m 599 994 l 796 1211 l 1021 1211 l 774 994 l 599 994 z "},"ệ":{"ha":856,"x_min":104,"x_max":751,"o":"m 443 -17 q 261 30 338 -17 q 145 159 185 76 q 104 356 104 243 q 146 554 104 471 q 264 682 188 637 q 443 726 340 726 q 599 690 528 726 q 710 580 669 654 q 751 390 751 506 q 751 346 751 372 q 746 293 750 320 l 226 293 l 226 429 l 594 429 q 567 519 590 484 q 513 570 545 553 q 443 586 480 586 q 302 525 345 586 q 258 358 258 464 q 307 189 258 253 q 444 125 356 125 q 530 142 492 125 q 601 194 568 158 l 697 93 q 589 14 653 44 q 443 -17 526 -17 m 438 -300 q 365 -270 394 -300 q 336 -199 336 -241 q 365 -126 336 -155 q 438 -97 394 -97 q 510 -126 481 -97 q 539 -199 539 -155 q 510 -270 539 -241 q 438 -300 481 -300 m 163 800 l 360 1017 l 517 1017 l 713 800 l 565 800 l 438 907 l 310 800 l 163 800 z "},"ề":{"ha":856,"x_min":104,"x_max":831,"o":"m 443 -17 q 261 30 338 -17 q 145 159 185 76 q 104 356 104 243 q 146 554 104 471 q 264 682 188 637 q 443 726 340 726 q 599 690 528 726 q 710 580 669 654 q 751 390 751 506 q 751 346 751 372 q 746 293 750 320 l 226 293 l 226 429 l 594 429 q 567 519 590 484 q 513 570 545 553 q 443 586 480 586 q 302 525 345 586 q 258 358 258 464 q 307 189 258 253 q 444 125 356 125 q 530 142 492 125 q 601 194 568 158 l 697 93 q 589 14 653 44 q 443 -17 526 -17 m 163 800 l 360 1017 l 517 1017 l 713 800 l 565 800 l 438 907 l 310 800 l 163 800 m 675 994 l 428 1211 l 633 1211 l 831 994 l 675 994 z "},"ể":{"ha":856,"x_min":104,"x_max":751,"o":"m 443 -17 q 261 30 338 -17 q 145 159 185 76 q 104 356 104 243 q 146 554 104 471 q 264 682 188 637 q 443 726 340 726 q 599 690 528 726 q 710 580 669 654 q 751 390 751 506 q 751 346 751 372 q 746 293 750 320 l 226 293 l 226 429 l 594 429 q 567 519 590 484 q 513 570 545 553 q 443 586 480 586 q 302 525 345 586 q 258 358 258 464 q 307 189 258 253 q 444 125 356 125 q 530 142 492 125 q 601 194 568 158 l 697 93 q 589 14 653 44 q 443 -17 526 -17 m 163 800 l 360 1017 l 517 1017 l 713 800 l 565 800 l 438 907 l 310 800 l 163 800 m 379 1071 q 390 1132 379 1106 q 429 1182 401 1159 q 449 1201 444 1194 q 454 1215 454 1208 q 450 1226 454 1222 q 438 1231 445 1231 q 388 1192 413 1231 l 308 1242 q 358 1310 321 1283 q 443 1338 395 1338 q 533 1306 497 1338 q 568 1222 568 1274 q 555 1163 568 1183 q 525 1126 541 1142 q 503 1101 513 1114 q 493 1071 493 1089 l 379 1071 z "},"ễ":{"ha":856,"x_min":104,"x_max":751,"o":"m 443 -17 q 261 30 338 -17 q 145 159 185 76 q 104 356 104 243 q 146 554 104 471 q 264 682 188 637 q 443 726 340 726 q 599 690 528 726 q 710 580 669 654 q 751 390 751 506 q 751 346 751 372 q 746 293 750 320 l 226 293 l 226 429 l 594 429 q 567 519 590 484 q 513 570 545 553 q 443 586 480 586 q 302 525 345 586 q 258 358 258 464 q 307 189 258 253 q 444 125 356 125 q 530 142 492 125 q 601 194 568 158 l 697 93 q 589 14 653 44 q 443 -17 526 -17 m 163 800 l 360 1017 l 517 1017 l 713 800 l 565 800 l 438 907 l 310 800 l 163 800 m 549 1096 q 477 1107 509 1096 q 415 1132 444 1119 q 367 1152 390 1144 q 319 1161 344 1161 q 275 1148 294 1161 q 254 1101 256 1134 l 178 1101 q 212 1233 178 1182 q 329 1283 246 1283 q 401 1272 369 1283 q 463 1247 434 1261 q 510 1227 486 1236 q 558 1218 533 1218 q 604 1232 585 1218 q 624 1278 623 1246 l 700 1278 q 666 1147 700 1198 q 549 1096 632 1096 z "},"ȅ":{"ha":856,"x_min":-35,"x_max":751,"o":"m 443 -17 q 261 30 338 -17 q 145 159 185 76 q 104 356 104 243 q 146 554 104 471 q 264 682 188 637 q 443 726 340 726 q 599 690 528 726 q 710 580 669 654 q 751 390 751 506 q 751 346 751 372 q 746 293 750 320 l 226 293 l 226 429 l 594 429 q 567 519 590 484 q 513 570 545 553 q 443 586 480 586 q 302 525 345 586 q 258 358 258 464 q 307 189 258 253 q 444 125 356 125 q 530 142 492 125 q 601 194 568 158 l 697 93 q 589 14 653 44 q 443 -17 526 -17 m 518 800 l 271 1017 l 496 1017 l 693 800 l 518 800 m 213 800 l -35 1017 l 190 1017 l 388 800 l 213 800 z "},"ë":{"ha":856,"x_min":104,"x_max":751,"o":"m 443 -17 q 261 30 338 -17 q 145 159 185 76 q 104 356 104 243 q 146 554 104 471 q 264 682 188 637 q 443 726 340 726 q 599 690 528 726 q 710 580 669 654 q 751 390 751 506 q 751 346 751 372 q 746 293 750 320 l 226 293 l 226 429 l 594 429 q 567 519 590 484 q 513 570 545 553 q 443 586 480 586 q 302 525 345 586 q 258 358 258 464 q 307 189 258 253 q 444 125 356 125 q 530 142 492 125 q 601 194 568 158 l 697 93 q 589 14 653 44 q 443 -17 526 -17 m 311 815 q 245 842 272 815 q 219 908 219 869 q 245 974 219 947 q 311 1000 272 1000 q 377 974 351 1000 q 404 908 404 947 q 377 842 404 869 q 311 815 351 815 m 567 815 q 501 842 527 815 q 475 908 475 869 q 501 974 475 947 q 567 1000 527 1000 q 633 974 606 1000 q 660 908 660 947 q 633 842 660 869 q 567 815 606 815 z "},"ė":{"ha":856,"x_min":104,"x_max":751,"o":"m 443 -17 q 261 30 338 -17 q 145 159 185 76 q 104 356 104 243 q 146 554 104 471 q 264 682 188 637 q 443 726 340 726 q 599 690 528 726 q 710 580 669 654 q 751 390 751 506 q 751 346 751 372 q 746 293 750 320 l 226 293 l 226 429 l 594 429 q 567 519 590 484 q 513 570 545 553 q 443 586 480 586 q 302 525 345 586 q 258 358 258 464 q 307 189 258 253 q 444 125 356 125 q 530 142 492 125 q 601 194 568 158 l 697 93 q 589 14 653 44 q 443 -17 526 -17 m 439 815 q 373 842 399 815 q 347 908 347 869 q 373 974 347 947 q 439 1000 399 1000 q 505 974 478 1000 q 532 908 532 947 q 505 842 532 869 q 439 815 478 815 z "},"ẹ":{"ha":856,"x_min":104,"x_max":751,"o":"m 443 -17 q 261 30 338 -17 q 145 159 185 76 q 104 356 104 243 q 146 554 104 471 q 264 682 188 637 q 443 726 340 726 q 599 690 528 726 q 710 580 669 654 q 751 390 751 506 q 751 346 751 372 q 746 293 750 320 l 226 293 l 226 429 l 594 429 q 567 519 590 484 q 513 570 545 553 q 443 586 480 586 q 302 525 345 586 q 258 358 258 464 q 307 189 258 253 q 444 125 356 125 q 530 142 492 125 q 601 194 568 158 l 697 93 q 589 14 653 44 q 443 -17 526 -17 m 438 -300 q 365 -270 394 -300 q 336 -199 336 -241 q 365 -126 336 -155 q 438 -97 394 -97 q 510 -126 481 -97 q 539 -199 539 -155 q 510 -270 539 -241 q 438 -300 481 -300 z "},"è":{"ha":856,"x_min":104,"x_max":751,"o":"m 443 -17 q 261 30 338 -17 q 145 159 185 76 q 104 356 104 243 q 146 554 104 471 q 264 682 188 637 q 443 726 340 726 q 599 690 528 726 q 710 580 669 654 q 751 390 751 506 q 751 346 751 372 q 746 293 750 320 l 226 293 l 226 429 l 594 429 q 567 519 590 484 q 513 570 545 553 q 443 586 480 586 q 302 525 345 586 q 258 358 258 464 q 307 189 258 253 q 444 125 356 125 q 530 142 492 125 q 601 194 568 158 l 697 93 q 589 14 653 44 q 443 -17 526 -17 m 388 800 l 140 1017 l 346 1017 l 543 800 l 388 800 z "},"ẻ":{"ha":856,"x_min":104,"x_max":751,"o":"m 443 -17 q 261 30 338 -17 q 145 159 185 76 q 104 356 104 243 q 146 554 104 471 q 264 682 188 637 q 443 726 340 726 q 599 690 528 726 q 710 580 669 654 q 751 390 751 506 q 751 346 751 372 q 746 293 750 320 l 226 293 l 226 429 l 594 429 q 567 519 590 484 q 513 570 545 553 q 443 586 480 586 q 302 525 345 586 q 258 358 258 464 q 307 189 258 253 q 444 125 356 125 q 530 142 492 125 q 601 194 568 158 l 697 93 q 589 14 653 44 q 443 -17 526 -17 m 379 764 q 390 825 379 799 q 429 875 401 852 q 449 894 444 887 q 454 908 454 901 q 450 919 454 915 q 438 924 445 924 q 388 885 413 924 l 308 935 q 358 1003 321 976 q 443 1031 395 1031 q 533 999 497 1031 q 568 915 568 967 q 555 856 568 876 q 525 819 541 835 q 503 794 513 807 q 493 764 493 782 l 379 764 z "},"ȇ":{"ha":856,"x_min":104,"x_max":751,"o":"m 443 -17 q 261 30 338 -17 q 145 159 185 76 q 104 356 104 243 q 146 554 104 471 q 264 682 188 637 q 443 726 340 726 q 599 690 528 726 q 710 580 669 654 q 751 390 751 506 q 751 346 751 372 q 746 293 750 320 l 226 293 l 226 429 l 594 429 q 567 519 590 484 q 513 570 545 553 q 443 586 480 586 q 302 525 345 586 q 258 358 258 464 q 307 189 258 253 q 444 125 356 125 q 530 142 492 125 q 601 194 568 158 l 697 93 q 589 14 653 44 q 443 -17 526 -17 m 175 794 q 203 911 175 858 q 291 998 232 965 q 440 1031 349 1031 q 590 998 532 1031 q 676 911 649 965 q 704 794 704 857 l 565 794 q 536 867 565 833 q 440 900 507 900 q 344 867 375 900 q 314 794 314 833 l 175 794 z "},"ē":{"ha":856,"x_min":104,"x_max":751,"o":"m 443 -17 q 261 30 338 -17 q 145 159 185 76 q 104 356 104 243 q 146 554 104 471 q 264 682 188 637 q 443 726 340 726 q 599 690 528 726 q 710 580 669 654 q 751 390 751 506 q 751 346 751 372 q 746 293 750 320 l 226 293 l 226 429 l 594 429 q 567 519 590 484 q 513 570 545 553 q 443 586 480 586 q 302 525 345 586 q 258 358 258 464 q 307 189 258 253 q 444 125 356 125 q 530 142 492 125 q 601 194 568 158 l 697 93 q 589 14 653 44 q 443 -17 526 -17 m 210 824 l 210 954 l 668 954 l 668 824 l 210 824 z "}}}
